<svg id="oneAtom" viewBox="0 0 1712 1586" fill="none" xmlns="http://www.w3.org/2000/svg">
  <g filter="url(#filter0_d_348_172)">
    <mask id="mask0_348_172" style="mask-type:luminance" maskUnits="userSpaceOnUse" x="184" y="121" width="1344"
      height="1344">
      <path d="M1528 121.691H184.691V1465H1528V121.691Z" fill="white" />
    </mask>
    <g mask="url(#mask0_348_172)">
      <path
        d="M827.323 383.304C807.249 367.693 787.534 353.938 768.402 342.414C672.731 429.121 594.986 536.161 533.608 649.333C541.782 680.745 551.829 712.719 563.903 744.886C600.705 665.614 646.488 590.464 699.796 521.239C737.764 471.4 780.285 424.74 827.323 383.304Z"
        fill="white" />
      <path
        d="M1225.16 972.221C1248.4 962.93 1270.15 952.698 1290.4 941.551C1283.52 910.314 1274.6 878.166 1263.82 845.433C1250.44 877.598 1235.19 909.574 1218.28 941.172C1221.06 951.769 1223.29 961.985 1225.16 972.221Z"
        fill="white" />
      <path
        d="M487.489 613.062C464.255 622.352 442.497 632.585 422.248 643.731C449.913 769.371 502.516 891.969 571.159 1000.66C602.208 1009.21 634.733 1016.46 668.565 1021.85C628.572 964.543 593.483 903.767 563.913 840.413C534.445 777.885 509.338 711.702 494.379 644.107C491.595 633.513 489.361 623.298 487.489 613.062Z"
        fill="white" />
      <path
        d="M1218.27 644.11C1188.43 779.16 1122.81 908.989 1044.09 1021.85C1078.11 1016.08 1110.82 1008.83 1142.06 1000.11C1208.85 890.132 1262.14 770.811 1290.23 644.864C1270.53 633.889 1248.77 623.486 1224.97 613.815C1223.12 623.657 1221.07 633.893 1218.27 644.11Z"
        fill="white" />
      <path
        d="M1157.12 271.574C1206.75 300.202 1235.76 369.357 1238.92 463.605C1263.46 471.966 1287.07 481.258 1309.55 491.306C1311.46 396.27 1292.02 284.182 1211.03 223.389C1115.05 151.328 982.048 191.86 889.982 250.007C909.87 263.95 929.585 279.564 949.093 296.666C1003.01 267.677 1091.12 233.468 1157.12 271.574Z"
        fill="white" />
      <path
        d="M751.491 515.674C785.872 512.498 820.834 511.019 856.335 511.019C892.586 511.019 927.537 512.512 961.366 515.482C939.057 488.347 916.374 463.809 893.702 441.501C868.99 440.746 844.243 440.746 819.533 441.501C796.296 464.188 773.612 488.898 751.491 515.674Z"
        fill="white" />
      <path
        d="M473.747 464.171C475.844 397.676 490.716 312.068 552.195 273.6C622.02 229.912 716.901 269.582 780.255 306.433C945.908 402.827 1069.01 573.8 1148.76 744.691C1160.84 712.524 1170.88 680.738 1179.05 649.33C1125.78 551.117 1060.33 458.466 981.989 378.594C906.41 301.557 815.322 230.288 710.653 198.672C626.968 173.392 533.22 181.67 472.53 250.279C415.204 315.074 401.329 408.547 403.116 492.042C425.613 482.012 449.208 472.533 473.747 464.171Z"
        fill="white" />
      <path
        d="M814.542 903.25C827.837 908.305 842.053 910.882 856.29 910.882C916.196 910.882 967.9 863.908 973.395 804.223C978.885 744.515 936.897 688.638 877.825 677.717C818.776 666.798 759.281 703.635 743.059 761.494C726.824 819.364 758.336 881.903 814.542 903.25Z"
        fill="white" />
      <path d="M944.258 1242.89C934.779 1251.82 968.06 1221.33 944.258 1242.89V1242.89Z" fill="white" />
      <path
        d="M827.32 1202C819.505 1195.11 811.522 1187.86 803.52 1180.43C767.455 1179.12 732.317 1176.34 698.3 1172.06C721.158 1197.72 744.58 1221.5 768.385 1242.89C788.097 1231.17 807.813 1217.42 827.32 1202Z"
        fill="white" />
      <path
        d="M1238.91 1121.13C1236.87 1185.75 1223.08 1266.4 1166.97 1307.3C1102.83 1354.05 1011.47 1321.5 949.272 1288.26C929.747 1305.17 909.861 1320.97 889.974 1335.3C983.364 1391.92 1113.67 1434.68 1210.79 1362.12C1292.24 1301.27 1311.57 1188.58 1309.55 1093.25C1287.05 1103.29 1263.46 1112.57 1238.91 1121.13Z"
        fill="white" />
      <path
        d="M1014.34 1171.88C979.772 1176.15 944.638 1179.13 908.933 1180.24C865.846 1222.31 816.627 1260.04 763.562 1288.62C715.752 1314.34 659.306 1336.19 604.076 1329.49C488.966 1315.57 469.508 1175.41 473.374 1082.46V1081.53C475.244 1034.39 482.184 986.444 494.185 940.816C477.459 909.216 462.211 877.428 448.831 845.454C418.674 936.95 399.304 1034.34 403.51 1131.04C406.74 1205.41 425.026 1285.67 478.075 1341.02C613.385 1482.16 833.08 1347.55 944.259 1242.89C968.06 1221.32 991.486 1197.53 1014.34 1171.88Z"
        fill="white" />
      <path
        d="M1343.96 550.662C1356.76 557.721 1444.97 606.236 1343.21 550.242C1342.3 549.745 1342.25 549.718 1342.86 550.057C1269.18 509.721 1187.92 483.085 1105.82 466.215C1126.83 493.724 1146.9 522.731 1165.86 553.214C1261.43 580.52 1371 628.45 1429.83 712.544C1452.69 745.223 1464.4 784.089 1454.06 823.516C1443.02 865.695 1412.02 900.041 1379.05 927.052C1301.8 990.35 1202.18 1026.35 1105.72 1047.64C994.253 1072.25 878.884 1079.41 765.094 1070.93C681.289 1064.68 595.802 1050.56 516.325 1022.6C512.979 1046.27 510.383 1070.26 510.383 1094.18C646.529 1137.1 792.263 1150.65 934.405 1141.94C1073.9 1133.39 1220.37 1104.06 1343.21 1034.7C1433.66 989.479 1527.99 900.987 1527.99 792.659C1527.99 681.908 1433.23 599.96 1343.96 550.662Z"
        fill="white" />
      <path
        d="M265.324 742.377C301.338 658.415 400.253 606.829 480.83 575.884C502.246 567.055 524.484 559.482 546.827 553.387C565.596 523.094 585.862 493.899 607.052 466.201C525.069 483.048 442.603 509.321 369.48 550.591C365.754 552.445 362.231 554.317 358.697 556.534H358.508C271.768 606.56 182.038 688.767 184.751 797.32C187.465 906.303 281.23 986.483 369.483 1035.05C371.717 1010.51 375.424 985.417 380.267 960.139C307.724 915.395 225.464 835.265 265.324 742.377Z"
        fill="white" />
    </g>
  </g>
  <defs>
    <filter id="filter0_d_348_172" x="0.691406" y="0.802734" width="1711.3" height="1585.09"
      filterUnits="userSpaceOnUse" color-interpolation-filters="sRGB">
      <feFlood flood-opacity="0" result="BackgroundImageFix" />
      <feColorMatrix in="SourceAlpha" type="matrix" values="0 0 0 0 0 0 0 0 0 0 0 0 0 0 0 0 0 0 127 0"
        result="hardAlpha" />
      <feOffset />
      <feGaussianBlur stdDeviation="92" />
      <feComposite in2="hardAlpha" operator="out" />
      <feColorMatrix type="matrix" values="0 0 0 0 0.380392 0 0 0 0 0.631373 0 0 0 0 0.854902 0 0 0 1 0" />
      <feBlend mode="normal" in2="BackgroundImageFix" result="effect1_dropShadow_348_172" />
      <feBlend mode="normal" in="SourceGraphic" in2="effect1_dropShadow_348_172" result="shape" />
    </filter>
  </defs>
</svg>