<svg xmlns="http://www.w3.org/2000/svg" xmlns:xlink="http://www.w3.org/1999/xlink" viewBox="35 0 441.6 512" width="441.6" height="512" xmlns:v="https://vecta.io/nano"><path d="M474.8 497a15 15 0 0 1-15 15H50.2a15 15 0 0 1-15-15V213c0-24 4.4-48 12.5-70.4a210 210 0 0 1 19.9-40.6L68 73a15 15 0 0 1 15-14.8h21.5l16-13.4c48-36.3 111-51.4 170.6-42a221 221 0 0 1 114.6 55.3h21a15 15 0 0 1 15 14.8l.3 29a219 219 0 0 1 25.2 57.1c9.6 34 10.2 70 9.2 105l-1.6 233z" fill="#fff"/><path d="M460 322.2V497h-14.4L256 442 68.4 497H50.2V218s9.5-10.7 10-16.4c.3-5.3-8-14.5-8-14.5l2-11.2a190 190 0 0 1 7.8-27.8 195 195 0 0 1 20.8-41.3C102 77 130 52.2 162.2 36.4c23.3-11.5 48.6-18.6 74.4-20.8 0 0 12 13.6 18 13.6 7 0 20.8-13.4 20.8-13.4 37.3 3.6 73.7 17.6 103.7 40a203 203 0 0 1 73.6 107.4 263 263 0 0 1 8.7 61.5c.5 13 .4 26 0 39l-.6 17.5s-12.2 14.7-12.4 22c-.2 6.4 11.3 19 11.3 19" fill="#512a8d"/><path d="M378.7 160.8H434V216h-55.2zM74.3 261.4h55.2v55.2H74.3z" fill="#ffa7bb"/><path d="M461 281.2l-1 41-69.6-.4 70.7-40.6z" fill="#ffe400"/><path d="M107.7 197.3L50.2 218V213a193 193 0 0 1 1.9-26.2l55.7 10.3z" fill="#eb7dff"/><path d="M283 24.7l-37.3 43-9-52.2a213 213 0 0 1 18.4-.8l20.5 1 7.6 9z" fill="#a5dbff"/><g fill="#fee8da"><circle cx="326.1" cy="51.5" r="10.2"/><circle cx="180.9" cy="51.5" r="10.2"/><circle cx="79.7" cy="341.2" r="10.2"/><circle cx="425.4" cy="259" r="10.2"/></g><path d="M451 390.4L392 338v-16.2-1-105-29-.1l29.6-26 6-5.4-.5-49-.3-33.3h-27-289.4-27.5l-.3 33.6-.5 52.2 40.8 25.5-.1 1-4 76.2-3 55.2-1.3 24.8-50 49 222 57.7z" fill="#eb7dff"/><g fill="#9f06c8"><path d="M427.6 155.4L392 186.8v.1l-269.3-1.7.1-1L82 158.8zm18 341.6l5.4-106.6H64.4l4 106.6z"/><path d="M451 390.4L392 338l-277.6 3.4-50 49z" opacity=".3"/></g><path d="M129.3 195.5h252.2v136.3H129.3z" fill="#21252a"/><path d="M362.7 323.5l-217.7-1-3-13.5.4-106.6h226.2V309z" fill="#a5dbff"/><g fill="#fee8da"><circle cx="161" cy="214.5" r="5"/><circle cx="176.8" cy="214.5" r="5"/><circle cx="192.5" cy="214.5" r="5"/></g><path d="M141.8 309h226.7v16H141.8z" fill="#9f06c8"/><path d="M174 282.8h40.3v10.6H174zm127.5-33h40.3v10.6h-40.3z" fill="#fee8da"/><g fill="#ffe400"><circle cx="194.1" cy="257.3" r="12.7"/><circle cx="321.4" cy="232.7" r="12.7"/></g><g fill="#512a8d"><circle transform="matrix(.71 -.71 .71 .71 -183.91 207.49)" cx="158.5" cy="325.8" r="17.7"/><path d="M158.4 369c-.7 0-1.2-.6-1.2-1.2V329c0-.7.6-1.2 1.2-1.2s1.2.6 1.2 1.2v38.6c0 .7-.6 1.2-1.2 1.2z"/><use xlink:href="#B"/><circle transform="matrix(.23 -.97 .97 .23 -44 595.94)" cx="354.2" cy="325.8" r="17.7"/><path d="M354 369c-.7 0-1.2-.6-1.2-1.2V329c0-.7.6-1.2 1.2-1.2s1.2.6 1.2 1.2v38.6c0 .7-.6 1.2-1.2 1.2z"/><use xlink:href="#B" x="195.7"/></g><g fill="#a5dbff"><path d="M237 352.6c0 1.8-4.5 3.2-10 3.2s-10-1.4-10-3.2 4.5-3.2 10-3.2 10 1.4 10 3.2z"/><ellipse cx="256.7" cy="352.6" rx="10" ry="3.2"/><path d="M296.4 352.6c0 1.8-4.5 3.2-10 3.2s-10-1.4-10-3.2 4.5-3.2 10-3.2 10 1.4 10 3.2z"/></g><g fill="#9f06c8"><ellipse cx="203.8" cy="367.7" rx="14.4" ry="4.7"/><ellipse cx="238.2" cy="367.7" rx="14.4" ry="4.7"/><ellipse cx="277.7" cy="367.7" rx="14.4" ry="4.7"/><ellipse cx="312.1" cy="367.7" rx="14.4" ry="4.7"/></g><path d="M201.7 454H180c-.3 0-.6-.3-.6-.6v-43.7c0-.3.3-.6.6-.6h21.7c.3 0 .6.3.6.6v43.7c0 .3-.3.6-.6.6zm-21-1.2H201v-42.5h-20.4v42.5zm16-33.6h-12.3c-.3 0-.6-.3-.6-.6s.3-.6.6-.6h12.3c.3 0 .6.3.6.6s-.3.6-.6.6zM328.2 454h-21.7c-.3 0-.6-.3-.6-.6v-43.7c0-.3.3-.6.6-.6h21.7c.3 0 .6.3.6.6v43.7c0 .3-.3.6-.6.6zm-21-1.2h20.4v-42.5h-20.4v42.5zm16.8-33.6h-12.3c-.3 0-.6-.3-.6-.6s.3-.6.6-.6H324c.3 0 .6.3.6.6s-.3.6-.6.6z" fill="#512a8d"/><path d="M396 109.4l10.4 16.7v14H102v-14l6.3-26.6z" fill="#fee8da"/><path d="M406.3 89.8v11l-151 10-153.2-10v-11z" fill="#ffe400"/><path d="M406.3 100.8v13l-110.2 7-194.2-7.3v-10.8-1.7z" fill="#9f06c8"/><path d="M102 113.3h304.4v13H102z" fill="#a5dbff"/><defs ><path id="B" d="M157.8 373.6c-7.7 0-19-1.2-19-4.7s11.4-4.7 19-4.7 19 1.2 19 4.7-11.4 4.7-19 4.7zm0-8c-11.7 0-17.8 2.2-17.8 3.4s6 3.4 17.8 3.4 17.8-2.2 17.8-3.4-6-3.4-17.8-3.4z"/></defs></svg>