<svg xmlns="http://www.w3.org/2000/svg" xmlns:xlink="http://www.w3.org/1999/xlink" width="512" height="512" xmlns:v="https://vecta.io/nano"><path d="M0 488.5c0 8.2 6.6 14.8 14.8 14.8h482.3c8.2 0 14.8-6.6 14.8-14.8V264.6v-.1c0-45.8-12.2-92.7-36.5-131.7a257 257 0 0 0-75.6-80c-48-32.5-107-48-164.5-43.3-11.2 1-22.4 2.6-33.4 5-56.7 12.4-108.4 44.2-145 89a260 260 0 0 0-48.7 96.1c-5.6 20.7-7.6 41.7-8.4 63v226z" fill="#fff"/><path d="M497.2 264.6v223.8H14.8V319s23.5-32.4 23.5-33c0-5.7-22.8-40-22.8-40 1-13 3-25.6 6-38l1.2-4.6c4.4-16.8 10.5-33 18.2-48 0 0 1-.5 1.2-.8.1-.2-.4-.7-.4-.7a259 259 0 0 1 10.5-18.4s1-.5 1.2-.7c.2-.3-.2-.8-.2-.8 4.3-6.7 9-13.2 14-19.4 0 0 1.2-.5 1.5-.8.2-.2-.1-.8-.1-.8 6-7.3 12.3-14.3 19-21 0 0 1.3-.5 1.6-.8.3-.3.3-1 .3-1a244 244 0 0 1 29.5-24s2.2-1 3-1.4c.5-.4.5-1 .5-1a240 240 0 0 1 128.2-40.3c2-.1 4.2 0 6.3 0 0 0 .5.6 1 .6.8 0 3-.5 3-.5 12.8.2 25.5 1.5 38 3.8l2 .5 28.3 31.8 40.6-7.7 4 2.2s-.3.7 0 .8c.2.1 1.5 0 1.5 0 .2.1.4.2.6.3 39.7 25 73.7 58 95 100 4 8 7.4 16 10.7 24.3l1 3c9.3 25.6 14.3 53.2 14.3 82z" fill="#ffa7bb"/><path d="M375.3 55L41 155.4l.8-1.5h0l332-99.6 1 .5.6.3zM355 44.7L52.3 135.5l1-1.6 300-90 1.7.8zm-24-9.3l-263.8 79 1.3-1.7 260.4-78 2 .7zm-29.4-7.6L87.6 92l2-2L299 27.3l2.6.5zM261 23.6L119 66l3.4-2.3L257 23.5l4 .1z" fill="#fee8da"/><path d="M94.5 378.5l12.6 22H412l11.8-22c0 0-330-.8-329.2 0z" fill="#512a8d"/><path d="M427 384.4H85.5c-4.3 0-7.7-3.5-7.7-7.7V116c0-4.3 3.5-7.7 7.7-7.7H427c4.3 0 7.7 3.5 7.7 7.7v260.7c0 4.3-3.5 7.7-7.7 7.7z" fill="#9f06c8"/><path d="M107.2 120.8h298v230.7h-298z" fill="#512a8d"/><g fill="#21252a"><path d="M139.6 146h233.2v180.5H139.6z"/><path d="M143.8 149.6c-.1 0-.2 0-.3-.1L107 121.3c-.2-.2-.3-.6-.1-.8s.6-.3.8-.1l36.6 28.2c.3.2.3.6.1.8-.1.1-.3.2-.5.2zm226.4-2c-.2 0-.3-.1-.5-.2-.2-.3-.1-.6.1-.8l35-26.3c.3-.2.6-.1.8.1s.1.6-.1.8l-35 26.3c-.1.1-.2.1-.3.1zm35 204.3c-.1 0-.2 0-.4-.1l-47-36.8c-.2-.2-.3-.6-.1-.8s.6-.3.8-.1l47 36.8c.2.2.3.6.1.8-.1.1-.3.2-.5.2zm-298 0c-.2 0-.3-.1-.4-.2-.2-.2-.2-.6.1-.8l37-29.8c.2-.2.6-.2.8.1s.2.6-.1.8l-37 29.8c-.1.1-.2.1-.4.1z"/></g><g fill="#512a8d"><use xlink:href="#B"/><use xlink:href="#B" x="28.6"/><use xlink:href="#B" x="57.3"/></g><g fill="#21252a"><use xlink:href="#C"/><use xlink:href="#C" y="5.6"/><use xlink:href="#C" y="11"/><use xlink:href="#C" y="16.5"/></g><g fill="#a5dbff"><path d="M181.7 218.2h3v89.3h-3zm29.3 0h3v89.3h-3z"/><path d="M182.4 232.2l30-4.7.4 2.4-30 4.7zm1.8 11H211v2.5h-26.8zm0 16.5H211v2.5h-26.8zm-1.8 14l.4-2.4 29 4.7-.4 2.4zm1 16.5h29.4v2.5h-29.4zm117.3-140.8h3v68.8h-3zm29.4 0h3v68.8h-3z"/><path d="M303 154.2h27v2.5h-27zm0 16.4h27v2.5h-27zm-1.6 14l.4-2.4 29 4.7-.4 2.4zm.8 16.5h29.4v2.5h-29.4z"/></g><path d="M143 216h228.6v6.7H143zm0 90.2h228.6v6.7H143z" fill="#eb7dff"/><path d="M250.7 176.5h13.5v34h-13.5zm67.6 84.8h13.5v34h-13.5z" fill="#ffa7bb"/><g fill="#ffe400"><circle cx="174.5" cy="158.7" r="6.3"/><circle cx="193.5" cy="158.7" r="6.3"/><circle cx="156.8" cy="158.7" r="6.3"/></g><path d="M486.3 370.6c-7.4-13.7-21.8-23.8-43.8-31L434 337v2.6l7.6 2.4c21.4 7 35.3 16.8 42.4 30a67 67 0 0 1 6.2 36.9c-1 14.3-3.6 25-8.7 33.7-8.7 15-25.6 25.5-45.4 28-16.4 2-34.7-1-54.3-9.2l-17.5-8-20-9c-15.4-6.2-28.8-8.4-40.8-6.6l-1.6.3c-2.5-2.4-5.3-4.3-8.4-5.6-6-2.7-13.3-3.5-22-2.5a73 73 0 0 0-15.9 3.7c-10.6 3.7-20.4 9.8-28.4 17.8l1.8 1.8c7.5-7.5 16.7-13.3 26.7-17a71 71 0 0 1 16.2-3.8c8.3-1 15-.2 20.8 2.3 2.3 1 4.4 2.4 6.4 4-13 3.3-23.8 12-28.2 23-3.3 8.3-3.2 18.4.4 27.4h2.7c-.1-.3-.2-.6-.4-1a35 35 0 0 1-.4-25.6 38 38 0 0 1 28-21.7c4 4 7 9.4 8.4 15.3 2 8.7 1 18.6-3.2 28a26 26 0 0 1-2.7 5h3l2-4c4.4-9.8 5.5-20.3 3.3-29.5a36 36 0 0 0-7.9-15.2c11.5-1.7 24.4.4 39.4 6.5l19.7 9c5.7 2.8 11.6 5.7 17.6 8.2a108 108 0 0 0 55.6 9.4c20.5-2.6 38-13.6 47.2-29.2a77 77 0 0 0 9-34.8 69 69 0 0 0-6.5-38.2zM50 467.3l92.4-27.4 113.3 27.4-.2 14.3H51z" fill="#21252a"/><path d="M50 412.6h205.7v54.7H50z" fill="#9f06c8"/><path d="M86.8 427c0 3-5 5.5-11.4 5.5S64 430 64 427s5-5.5 11.4-5.5 11.4 2.4 11.4 5.5z" fill="#21252a"/><g fill="#a5dbff"><use xlink:href="#D"/><use xlink:href="#D" x="43.4"/><use xlink:href="#D" x="31.8" y="-16.6"/><use xlink:href="#D" x="-8.6" y="-15.9"/></g><g fill="#21252a"><path d="M74.8 452.2c0 1.4-3 2.5-6.7 2.5s-6.7-1-6.7-2.5 3-2.5 6.7-2.5 6.7 1 6.7 2.5zm21.2 0c0 1.4-3 2.5-6.7 2.5s-6.7-1-6.7-2.5 3-2.5 6.7-2.5 6.7 1 6.7 2.5zm117-3.2l7.6-30 8 31.2z"/><circle cx="220.7" cy="411.6" r="13.7"/><path d="M220.7 455.8c-10.2 0-21-2.4-21-7s10.8-7 21-7 21 2.4 21 7-10.8 7-21 7zm0-12.6c-11.7 0-19.8 3-19.8 5.7s8 5.7 19.8 5.7 19.8-3 19.8-5.7-8-5.7-19.8-5.7z"/></g><g fill="#fee8da"><circle cx="183.4" cy="69.1" r="10.1"/><circle cx="391.8" cy="89.3" r="10.1"/><path d="M474 323c0 5.6-4.5 10-10 10s-10-4.5-10-10 4.5-10 10-10 10 4.5 10 10z"/><circle cx="50.8" cy="369.7" r="10.1"/></g><circle cx="401.9" cy="440.4" r="36.6" fill="#a5dbff"/><path d="M49.5 282.5c0 19.6-15.3 35.5-34.7 36.6v-54.4c0-6.2.3-12.4.7-18.7 19 1.4 34 17.2 34 36.5z" fill="#eb7dff"/><path d="M369.8 52c-5.6 13-18.6 22-33.6 22-20.2 0-36.6-16.4-36.6-36.6 0-3.4.5-6.7 1.4-9.8l.7.1 15 3.4h0a143 143 0 0 1 5.6 1.5l6.8 2 2 .7c7.6 2.5 15 5.3 22.2 8.5l1.7.8 1.4.6 6.6 3.2 6.8 3.5z" fill="#a5dbff"/><path d="M482.8 182.6l-6.7 4c-.2.1-.5.2-.8.2s-.7-.1-1-.4l-9.6-8.3-11 8c-.7.5-1.6.3-2-.3s-.3-1.6.3-2l11.8-8.7c.6-.4 1.3-.4 2 .1l9.7 8.3 6.2-3.8 1 3zm-421.5 30c-.5.7-1.4.8-2 .4l-10-7-12.3 7.5c-.2.2-.5.2-.8.2s-.7-.1-1-.3l-9.6-8.3-4 3 1.2-4.6 2-1.5c.6-.4 1.3-.4 2 .1l9.7 8.3 12.2-7.5c.5-.3 1-.3 1.6 0l10.8 7.5c.7.5.8 1.4.4 2zm297.3 212c-.4 0-.7-.1-1-.4l-9.6-8.3-11 8c-.7.5-1.6.3-2-.3s-.3-1.6.3-2l11.8-8.6c.6-.4 1.3-.4 2 .1l9.7 8.3 12.2-7.5c.5-.3 1.2-.3 1.7.1l10.8 7.5c.7.5 1 1.4.4 2s-1.4.8-2 .4l-10-7-12.3 7.5c-.2.2-.5.2-.8.2z" fill="#21252a"/><path d="M239.8 85.3c16.5 8.3 23 28.4 14.8 45A33 33 0 0 1 243 143c-.7-11.5-7.3-22.4-18.3-28a33 33 0 0 0-33.3 2 33 33 0 0 1 3.5-16.9c8.3-16.5 28.4-23 45-14.8zm231.4 207c-10 15.5-30.6 20-46.2 10a33 33 0 0 1-11.6-12.8c11.5.5 23-5 29.7-15.3a33 33 0 0 0 1.6-33.4 33 33 0 0 1 16.5 5.3c15.5 10 20 30.6 10 46.2zM46.4 311.7c-15-11-18.2-31.7-7.4-46.7a33 33 0 0 1 13.4-10.9c-1.2 11.5 3.6 23.3 13.6 30.5s22.7 8.2 33.2 3.5a33 33 0 0 1-6.2 16.1c-10.8 15-31.7 18.3-46.7 7.4z" fill="#ffe400"/><defs ><path id="B" d="M336.2 365.7c0 4.5-3.7 8.2-8.2 8.2s-8.2-3.7-8.2-8.2 3.7-8.2 8.2-8.2 8.2 3.7 8.2 8.2z"/><path id="C" d="M190.5 360h-75.8c-.3 0-.6-.3-.6-.6s.3-.6.6-.6h75.8c.3 0 .6.3.6.6s-.3.6-.6.6z"/><path id="D" d="M147.6 446.2c0 3-7.2 5.2-16 5.2s-16-2.3-16-5.2 7.2-5.2 16-5.2 16 2.3 16 5.2z"/></defs></svg>