<svg xmlns="http://www.w3.org/2000/svg" xmlns:xlink="http://www.w3.org/1999/xlink" width="512" height="512" xmlns:v="https://vecta.io/nano"><style><![CDATA[.B{fill:#eb7dff}.C{fill:#ffe400}.D{fill:#fee8da}.E{fill:#21252a}]]></style><path d="M24.3 497.8c0 7.8 6.3 14.2 14.2 14.2h410c7.8 0 14.2-6.3 14.2-14.2v-46.4l34.7-10.8c6-1.8 10-7.3 10-13.5v-38.4c0-5.4-3-10.3-7.8-12.7l-37-18.4V235a218 218 0 0 0-64.2-155 218 218 0 0 0-69.2-46.7c-3.7-19.4-16.8-33-32.8-33h-5.4c-10.7 0-20.4 6.3-26.6 16.7a221 221 0 0 0-39.7-.2c-6.3-8.6-15-13.7-24.7-13.7H195c-14.5 0-26.7 11.2-31.6 28A220 220 0 0 0 79 90l-36.6.2c-4.7 0-9.2 2.4-11.8 6.3l-18 26.8c-8 12.2-10.2 27.2-5.8 41.2l17.8 55.8-.5 277.5z" fill="#fff"/><path d="M448.5 235v31l-2.4 2.7 2.4 5.5v223.8h-410V348.6l3.5-6.3-3.5-4V235c0-62.3 27.8-118.2 71.7-155.7l3.6-3a204 204 0 0 1 129.7-46.2c56.6 0 108 23 145 60 37 37 60 88.4 60 145z" fill="#a5dbff"/><path d="M448.5 265.8v8.3l-.3-.3-9-13.2-14 7.6c-1 .6-2.4.3-3-.7l-9-13.2-14 7.6c-1 .6-2.4.3-3-.7l-9-13.2-14 7.6c-1 .6-2.4.3-3-.8l-9-13.2-14 7.6c-1 .6-2.4.3-3-.8l-10.2-15c-.7-1-.5-2.6.6-3.3s2.6-.4 3.3.6l9 13.2 14-7.6c1-.6 2.4-.3 3 .8l9 13.2 14-7.6c1-.6 2.4-.3 3 .8l9 13.2 14-7.6c1-.6 2.4-.3 3 .8l9 13.2 14-7.6c1-.6 2.4-.3 3 .7l6.5 9.6zM170.2 99c-.6.4-1.3.5-2 .4-.6-.1-1-.5-1.4-1l-9-13.2-14 7.6c-1 .6-2.4.3-3-.7L132 79l-14 7.6c-1 .6-2.4.3-3-.8l-4.7-6.8 3.6-3 3.7 5.4 14-7.6c1-.6 2.4-.3 3 .8l9 13.2 14-7.6c1-.6 2.4-.3 3 .7l10.2 15c.7 1 .4 2.6-.6 3.3zm-13 376.3c-.5-.1-1-.5-1.4-1l-9-13.2-14 7.6c-1 .6-2.4.3-3-.7l-9-13.2-14 7.6c-1 .6-2.4.3-3-.7l-9-13.2-14 7.6c-1 .6-2.4.3-3-.7l-9-13.2-14 7.6c-1 .6-2.4.3-3-.7l-10.2-15c-.7-1-.5-2.5.6-3.3s2.5-.5 3.3.6l9 13.2 14-7.6c1-.6 2.4-.3 3 .7l9 13.2 14-7.6c1-.6 2.4-.3 3 .7l9 13.2 14-7.6c1-.6 2.4-.3 3 .7l9 13.2 14-7.6c1-.6 2.4-.3 3 .7l10.2 15c.7 1 .5 2.5-.6 3.3-.6.4-1.3.5-2 .3z" class="B"/><path d="M367.6 196.3l37-21.3 4.4 7.7-37 21.3zm-313.3 143l-15.8 9v-10.2l11.4-6.6zm344.7 139l37-21.3 4.4 7.7-37 21.3zM254.2 196.3l37-21.3 4.4 7.7-37 21.3zM329.8 321l37-21.3 4.4 7.7-37 21.3zM216.3 486.2L196 497.8h-17.7l33.4-19.3z" class="C"/><g class="D"><circle cx="427.6" cy="220" r="9.2"/><circle cx="427.6" cy="318.1" r="9.2"/><path d="M181.6 430.3c0 5-4 9.2-9.2 9.2s-9.2-4-9.2-9.2 4-9.2 9.2-9.2 9.2 4 9.2 9.2z"/><circle cx="66.2" cy="474.9" r="9.2"/><circle cx="329.5" cy="84.1" r="9.2"/></g><ellipse cx="194.9" cy="47.4" rx="19.7" ry="30.4" class="B"/><ellipse cx="200.2" cy="47.4" rx="19.7" ry="30.4" class="C"/><g class="B"><use xlink:href="#B"/><ellipse cx="247.9" cy="94.1" rx="19.7" ry="30.4"/></g><ellipse cx="253.3" cy="94.1" rx="19.7" ry="30.4" class="C"/><g class="B"><use xlink:href="#B" x="53.1" y="46.7"/><ellipse cx="291.2" cy="44.6" rx="19.7" ry="30.4"/></g><ellipse cx="296.5" cy="44.6" rx="19.7" ry="30.4" class="C"/><use xlink:href="#B" x="96.4" y="-2.7" class="B"/><path d="M320.3 304.2l-207 33.4-12.6 2.5L77 337 20.4 160.2c-3-9.8-1.6-20.4 4-29l18-26.8h.2l207.3-1 70.4 200.8z" fill="#512a8d"/><path d="M113.2 337.6l-12.6 2.5L77 337 20.4 160.2c-3-9.8-1.6-20.4 4-29l18-26.8h.2l70.7 233.2z" class="E"/><path d="M493.2 388.7v38.4l-219.7 68-1.2.4-164-111.4 3.2-48.7 210-32.7 171 85.5z" fill="#512a8d"/><g class="E"><path d="M281.2 454.7l-7.7 40.6-1.2.4L109 385l2.6-49.3z"/><path d="M111.5 336.5c-.5 0-1-.3-1-.8-.1-.5.3-1 .8-1L319.6 302c.5-.1 1 .3 1 .8s-.3 1-.8 1l-208.3 32.5h-.1zm102-7.3l2-.3 5 38.7-2 .3z"/><path d="M194.2 369l23.2-14.6 28.2 12.2c2.5.8 3 4 1 5.7-7 5.2-22.8 12.5-52.2 2.8-3-1-3-5-.2-6.2z"/></g><path d="M241.6 321c1.7 8.4-10 18-26.4 21.2s-31-1-32.5-9.4 10-18 26.4-21.2 31 1 32.5 9.4z" class="B"/><path d="M211.6 314.5c-1.5 1-2.6 2.6-1.3 3.8.6.6 1.7 1 2.6 1.2 3.7 1 7.5 1.7 11.3 2 1.6.2 3.3.3 4.8.1s3-1 3.6-2c1-1.8-.5-4-2.4-5.5-4-3.3-14.8-2-18.7.1z" class="D"/><g class="E"><path d="M387.8 381.3c-.5 0-1-.3-1-.8-.1-.6.2-1.2.8-1.3l48.6-12.5c.6-.1 1.2.2 1.3.8s-.2 1.2-.8 1.3L388 381.3h-.3zm7.2 7c-.5 0-1-.3-1-.8-.1-.6.2-1.2.8-1.3l55-14.3a1 1 0 0 1 1.3.8c.1.6-.2 1.2-.8 1.3l-55 14.3h-.3zm9.3 9.4c-.5 0-1-.3-1-.8-.2-.6.2-1.2.7-1.3l58.7-16.5c.6-.2 1.2.2 1.3.7s-.2 1.2-.7 1.3l-58.7 16.5h-.3z"/><path d="M493.2 388.7v38.4l-219.7 68 7.7-40.6 211.3-66.3z" opacity=".4"/></g><g class="B"><path d="M316.2 331c0 4-7 7.5-15.7 7.5S285 335 285 331s7-7.5 15.7-7.5 15.7 3.4 15.7 7.5zm39.8 5c.4 4-6.3 8-15 9s-16-2-16.3-6 6.3-8 15-9 16 2 16.3 6zm-51.7 16c0 4-7 7.5-15.7 7.5S273 356.2 273 352s7-7.5 15.7-7.5 15.7 3.4 15.7 7.5z"/><ellipse cx="328.2" cy="357.8" rx="15.7" ry="7.5"/></g><g fill="#a5dbff"><use xlink:href="#C"/><use xlink:href="#C" x="43.4" y="-11.5"/><use xlink:href="#C" x="-15.3" y="-18.8"/><use xlink:href="#C" x="29.8" y="-28.2"/><path d="M116.6 306.8L62.8 125.5l181.2-3.8L298 282.4z"/></g><path d="M121 306.8L67.2 125.5l181.2-3.8 53.8 160.8z" class="D"/><path d="M200.6 177l28-2.2c5.2-.4 8.6 5.6 5.7 10.2L219 209.5l10.6 27.2c2 5-2.4 10.3-7.4 9l-27-7.7-21.3 19c-4 3.5-10 .8-10.3-4.7l-1.4-29.4-23.8-15.5c-4.4-3-3.8-9.8 1-11.8l26.2-10.5 6.6-28.6c1.2-5.3 7.7-6.8 11-2.6l17.6 23z" class="C"/><path d="M180.3 203.4c-.1 3-2.5 5.3-5.3 5.2s-5-2.6-5-5.6 2.5-5.3 5.3-5.2 5 2.6 5 5.6zM206 198c-.1 3-2.5 5.3-5.3 5.2s-5-2.6-5-5.6 2.5-5.3 5.3-5.2 5 2.6 5 5.6zm-15.5 16c-4.5 0-7.3-8.6-7.6-9.7-.2-.5.1-1 .6-1.2s1 .1 1.2.6c.7 2.4 3.5 9 6.3 8.3 2.8-.8 2-7.4 1.5-9.7-.1-.5.2-1 .7-1 .5-.1 1 .2 1 .7.2 1 2.2 10.5-2.8 12-.3.1-.7.1-1 .1z" class="E"/><path d="M121 306.8l127.5-185 53.8 160.8z" fill="#ffa7bb" opacity=".2"/><path d="M365.5 161.3h-71.7c.1-8 1.8-15.8 5-23 2.2-5 6.8-10.5 12-9 3.2 1 5 4 6.6 7a67 67 0 0 1 5.4 16.4c2.5-13 5.6-27.3 15.5-36.2 2.6-2.3 5.8-4.3 9.3-4.6 5-.4 10 3 12.7 7.3s3.7 9.5 4.4 14.6c1.2 9 1.4 18.3.8 27.4zM118.2 423.8H46.5c.1-8 1.8-15.8 5-23 2.2-5 6.8-10.5 12-9 3.2 1 5 4 6.6 7a67 67 0 0 1 5.4 16.4C78 402 81 388 91 379c2.6-2.3 5.8-4.3 9.3-4.6 5-.4 10 3 12.7 7.3s3.7 9.5 4.4 14.6c1.2 9 1.4 18.3.8 27.4z" class="D"/><defs ><path id="B" d="M200.6 75.3c-10 0-18-12.5-18-28s8-28 18-28 18 12.5 18 28-8 28-18 28zm0-55c-9.3 0-17 12-17 27s7.6 27 17 27 17-12 17-27-7.6-27-17-27z"/><path id="C" d="M303.6 420.8c.6 2.6-5 6-12.6 7.8s-14 1-14.6-1.7 5-6 12.6-7.8 14-1 14.6 1.7z"/></defs></svg>