<svg xmlns="http://www.w3.org/2000/svg" width="1354" height="866" fill="none" xmlns:v="https://vecta.io/nano"><path d="M462.6 673h-10.8v-4.4h10.8c2 0 3.8-.3 5-1s2.2-1.6 2.8-2.8c.6-1.2 1-2.5 1-4 0-1.4-.3-2.7-1-4-.6-1.2-1.5-2.2-2.8-3a10 10 0 0 0-5.1-1.1H453v36h-5.4v-40.5h15c3 0 5.6.5 7.8 1.6s3.7 2.5 4.8 4.4c1 2 1.6 4 1.6 6.4 0 2.6-.5 4.8-1.6 6.7s-2.7 3.2-4.8 4.2a19 19 0 0 1-7.8 1.4zm18.5 1.2v-.6c0-2.2.3-4.2 1-6 .6-2 1.5-3.5 2.7-5 1.2-1.4 2.6-2.5 4.3-3.2 1.7-.8 3.6-1.2 5.7-1.2 2 0 4 .4 5.7 1.2 1.7.8 3.2 1.8 4.3 3.2 1.2 1.4 2 3 2.8 5 .6 2 1 4 1 6v.6c0 2.2-.3 4.2-1 6s-1.5 3.5-2.8 5c-1.2 1.4-2.6 2.4-4.3 3.2-1.7.8-3.6 1-5.7 1s-4-.4-5.7-1c-1.7-.8-3-2-4.3-3.2-1.2-1.4-2-3-2.7-5s-1-4-1-6zm5-.6v.6c0 1.5.2 3 .5 4.3.4 1.3 1 2.5 1.6 3.5a8 8 0 0 0 2.7 2.4c1 .6 2.3 1 3.8 1 1.4 0 2.6-.3 3.7-1 1-.6 2-1.4 2.7-2.4s1.2-2.2 1.6-3.5c.4-1.3.6-2.8.6-4.3v-.6c0-1.5-.2-3-.6-4.2-.4-1.3-1-2.5-1.6-3.5-.7-1-1.6-2-2.7-2.4-1-.6-2.3-1-3.7-1-1.4 0-2.7.3-3.7 1a8 8 0 0 0-2.7 2.4c-.7 1-1.2 2.2-1.6 3.5-.4 1.3-.5 2.7-.5 4.2zm40.8 11.7c1.2 0 2.4-.2 3.4-.8a7 7 0 0 0 2.6-2.1c.7-1 1-2 1-3h5c-.1 1.8-.7 3.4-1.8 5-1 1.5-2.5 2.8-4.3 3.7-1.8 1-3.7 1.4-6 1.4-2.3 0-4.2-.4-6-1.2-1.7-.8-3-2-4.2-3.3-1-1.4-2-3-2.5-4.8-.5-1.8-.8-3.7-.8-5.8v-1.2a20 20 0 0 1 .8-5.7c.6-1.8 1.4-3.4 2.5-4.8 1-1.4 2.5-2.5 4.2-3.3 1.7-.8 3.7-1.2 6-1.2 2.4 0 4.4.5 6.2 1.4 1.8 1 3 2.2 4 4 1 1.6 1.6 3.5 1.7 5.6h-5c-.1-1.2-.4-2.4-1-3.4-.6-1-1.4-1.8-2.4-2.4-1-.6-2.2-1-3.6-1-1.6 0-3 .3-4 1a7 7 0 0 0-2.5 2.5c-.6 1-1 2.2-1.3 3.5-.3 1.3-.4 2.6-.4 4v1.2c0 1.3.1 2.6.4 4s.7 2.4 1.3 3.5c.6 1 1.5 2 2.5 2.5a8 8 0 0 0 4 .9zm29.8 0c1.2 0 2.4-.2 3.4-.8a7 7 0 0 0 2.6-2.1c.7-1 1-2 1-3h5c-.1 1.8-.7 3.4-1.8 5-1 1.5-2.5 2.8-4.3 3.7-1.8 1-3.7 1.4-6 1.4-2.3 0-4.2-.4-6-1.2-1.7-.8-3-2-4.2-3.3-1-1.4-2-3-2.5-4.8-.5-1.8-.8-3.7-.8-5.8v-1.2a20 20 0 0 1 .8-5.7c.6-1.8 1.4-3.4 2.5-4.8 1-1.4 2.5-2.5 4.2-3.3 1.7-.8 3.7-1.2 6-1.2 2.4 0 4.4.5 6.2 1.4 1.8 1 3 2.2 4 4 1 1.6 1.6 3.5 1.7 5.6h-5c-.1-1.2-.4-2.4-1-3.4-.6-1-1.4-1.8-2.4-2.4-1-.6-2.2-1-3.6-1-1.6 0-3 .3-4 1a7 7 0 0 0-2.5 2.5c-.6 1-1 2.2-1.3 3.5-.3 1.3-.4 2.6-.4 4v1.2c0 1.3.1 2.6.4 4s.7 2.4 1.3 3.5c.6 1 1.5 2 2.5 2.5a8 8 0 0 0 4 .9zm23.4-4.5l14-22h5.2v30H594v-22l-14 22h-5v-30h5v22zm33 0l14-22h5.2v30H627v-22l-14 22h-5v-30h5v22zm11-33h4.2c0 1.4-.3 2.7-1 4-.7 1-1.6 2-3 2.6s-2.7 1-4.4 1c-2.6 0-4.6-.7-6-2-1.5-1.4-2.2-3.2-2.2-5.4h4.2c0 1 .3 2 1 3s1.7 1.3 3.2 1.3c1.5 0 2.5-.4 3.2-1.3s1-1.8 1-3zm28.3 37.4c1.2 0 2.4-.2 3.4-.8a7 7 0 0 0 2.6-2.1c.7-1 1-2 1-3h5c-.1 1.8-.7 3.4-1.8 5-1 1.5-2.5 2.8-4.3 3.7-1.8 1-3.7 1.4-6 1.4-2.3 0-4.2-.4-6-1.2-1.7-.8-3-2-4.2-3.3-1-1.4-2-3-2.5-4.8-.5-1.8-.8-3.7-.8-5.8v-1.2a20 20 0 0 1 .8-5.7c.6-1.8 1.4-3.4 2.5-4.8 1-1.4 2.5-2.5 4.2-3.3 1.7-.8 3.7-1.2 6-1.2 2.4 0 4.4.5 6.2 1.4 1.8 1 3 2.2 4 4 1 1.6 1.6 3.5 1.7 5.6h-5c-.1-1.2-.4-2.4-1-3.4-.6-1-1.4-1.8-2.4-2.4-1-.6-2.2-1-3.6-1-1.6 0-3 .3-4 1a7 7 0 0 0-2.5 2.5c-.6 1-1 2.2-1.3 3.5-.3 1.3-.4 2.6-.4 4v1.2c0 1.3.1 2.6.4 4s.7 2.4 1.3 3.5c.6 1 1.5 2 2.5 2.5a8 8 0 0 0 4 .9zM676 659v30h-5v-30h5zm19.8 0L681.4 676h-7.2l-.8-4.5h6l10-12.7h6.3zm-5.5 30l-11-13.6 3.3-3.7 14.3 17.4H690zm16.6-8.2l14-22h5.2v30h-5.2v-22l-14 22h-5v-30h5v22zm33 0l14-22h5.2v30h-5.2v-22l-14 22h-5v-30h5v22zm11-33h4.2c0 1.4-.3 2.7-1 4-.7 1-1.6 2-3 2.6s-2.7 1-4.4 1c-2.6 0-4.6-.7-6-2-1.5-1.4-2.2-3.2-2.2-5.4h4.2c0 1 .3 2 1 3s1.7 1.3 3.2 1.3c1.5 0 2.5-.4 3.2-1.3s1-1.8 1-3zm-291.5 78v30H454v-30h5.2zm10 0v4.2H444V726h25.2zm15.3 30.7c-2 0-4-.4-5.7-1-1.7-.7-3-1.7-4.4-3-1.2-1.3-2-2.8-2.8-4.6a17 17 0 0 1-1-5.8v-1.2c0-2.5.4-4.6 1-6.5.7-2 1.7-3.6 3-5s2.7-2.3 4.2-3 3.2-1 5-1c2.2 0 4 .4 5.6 1 1.6.7 3 1.8 4 3 1 1.3 1.7 3 2.2 4.7.5 1.8.7 3.7.7 5.8v2.3H474v-4.2h17.3v-.4c-.1-1.3-.4-2.6-.8-4a7 7 0 0 0-2.2-3.1c-1-.8-2.4-1.2-4.2-1.2a7 7 0 0 0-3.2.8c-1 .5-1.8 1.2-2.5 2.2s-1.3 2-1.6 3.5a18 18 0 0 0-.6 4.8v1.2c0 1.4.2 2.8.6 4 .4 1.2 1 2.3 1.8 3.3.8 1 1.7 1.7 2.8 2.2 1 .5 2.4.8 3.8.8a9 9 0 0 0 4.6-1.1c1.3-.7 2.4-1.7 3.3-3l3 2.5c-.6 1-1.5 2-2.5 2.8s-2.2 1.6-3.7 2.2c-1.4.6-3.2.8-5 .8zm21.2-30.7l6.6 11 6.7-11h6l-10 15 10.2 15.3h-6l-7-11.3-7 11.3h-6l10-15.3-9.8-15h6zm45.2 13v4.2h-16V739h16zm-14.8-13v30h-5v-30h5zm19 0v30H550v-30h5.2zm7 15.4v-.6c0-2.2.3-4.2 1-6 .6-2 1.5-3.5 2.7-5 1.2-1.4 2.6-2.5 4.3-3.2 1.7-.8 3.6-1.2 5.7-1.2 2 0 4 .4 5.7 1.2 1.7.8 3.2 1.8 4.3 3.2 1.2 1.4 2 3 2.8 5 .6 2 1 4 1 6v.6c0 2.2-.3 4.2-1 6s-1.5 3.5-2.8 5c-1.2 1.4-2.6 2.4-4.3 3.2-1.7.8-3.6 1-5.7 1s-4-.4-5.7-1c-1.7-.8-3-2-4.3-3.2-1.2-1.4-2-3-2.7-5s-1-4-1-6zm5-.6v.6c0 1.5.2 3 .5 4.3.4 1.3 1 2.5 1.6 3.5a8 8 0 0 0 2.7 2.4c1 .6 2.3 1 3.8 1 1.4 0 2.6-.3 3.7-1 1-.6 2-1.4 2.7-2.4s1.2-2.2 1.6-3.5c.4-1.3.6-2.8.6-4.3v-.6c0-1.5-.2-3-.6-4.2-.4-1.3-1-2.5-1.6-3.5-.7-1-1.6-2-2.7-2.4-1-.6-2.3-1-3.7-1-1.4 0-2.7.3-3.7 1a8 8 0 0 0-2.7 2.4c-.7 1-1.2 2.2-1.6 3.5-.4 1.3-.5 2.7-.5 4.2zm48.4-14.8v4.3h-14.6V726h14.6zm4.5 0v30h-5v-30h5zm-20.3 0h5.2l-.8 14.5c-.1 2.2-.3 4.2-.6 6-.3 1.7-.7 3.2-1.2 4.4-.5 1.2-1 2.2-1.8 3-.7.8-1.6 1.3-2.6 1.7-1 .4-2.2.5-3.5.5H593v-4.5l1-.1c.8-.1 1.5-.2 2-.6.6-.3 1-.8 1.4-1.4.4-.6.7-1.4 1-2.4.3-1 .5-2.2.6-3.5l.3-4.7.6-13zm27.3 15.4v-.6c0-2.2.3-4.2 1-6 .6-2 1.5-3.5 2.7-5 1.2-1.4 2.6-2.5 4.3-3.2 1.7-.8 3.6-1.2 5.7-1.2 2 0 4 .4 5.7 1.2 1.7.8 3.2 1.8 4.3 3.2 1.2 1.4 2 3 2.8 5 .6 2 1 4 1 6v.6c0 2.2-.3 4.2-1 6s-1.5 3.5-2.8 5c-1.2 1.4-2.6 2.4-4.3 3.2-1.7.8-3.6 1-5.7 1s-4-.4-5.7-1c-1.7-.8-3-2-4.3-3.2-1.2-1.4-2-3-2.7-5s-1-4-1-6zm5-.6v.6c0 1.5.2 3 .5 4.3.4 1.3 1 2.5 1.6 3.5a8 8 0 0 0 2.7 2.4c1 .6 2.3 1 3.8 1 1.4 0 2.6-.3 3.7-1 1-.6 2-1.4 2.7-2.4s1.2-2.2 1.6-3.5c.4-1.3.6-2.8.6-4.3v-.6c0-1.5-.2-3-.6-4.2-.4-1.3-1-2.5-1.6-3.5-.7-1-1.6-2-2.7-2.4-1-.6-2.3-1-3.7-1-1.4 0-2.7.3-3.7 1a8 8 0 0 0-2.7 2.4c-.7 1-1.2 2.2-1.6 3.5-.4 1.3-.5 2.7-.5 4.2zm48.2-14.8v4.3h-14v26h-5v-30h19zm10 22l14-22h5.2v30h-5.2v-22l-14 22h-5v-30h5v22zm50-22v30h-5v-30h5zm-1.8 13.8v4.2l-3.2 1-3.4.7a27 27 0 0 1-3.8.3c-2.4 0-4.4-.4-6.2-1.2a9 9 0 0 1-4-3.8c-1-1.7-1.4-3.8-1.4-6.4v-8.8h5v8.8c0 1.7.3 3 .8 4s1.2 1.8 2.2 2.3c1 .5 2 .7 3.5.7 1.3 0 2.6-.1 3.8-.2l3.4-.7 3.2-1zm22.5 16.8c-2 0-4-.4-5.7-1a13 13 0 0 1-4.4-3c-1.2-1.3-2-2.8-2.8-4.6a17 17 0 0 1-1-5.8v-1.2c0-2.5.4-4.6 1-6.5.7-2 1.7-3.6 3-5s2.7-2.3 4.2-3 3.2-1 5-1c2.2 0 4 .4 5.6 1 1.6.7 3 1.8 4 3 1 1.3 1.7 3 2.2 4.7.5 1.8.7 3.7.7 5.8v2.3h-22.5v-4.2H768v-.4c-.1-1.3-.4-2.6-.8-4a7 7 0 0 0-2.2-3.1c-1-.8-2.4-1.2-4.2-1.2a7 7 0 0 0-3.2.8c-1 .5-1.8 1.2-2.5 2.2s-1.3 2-1.6 3.5a18 18 0 0 0-.6 4.8v1.2c0 1.4.2 2.8.6 4 .4 1.2 1 2.3 1.8 3.3.8 1 1.7 1.7 2.8 2.2 1 .5 2.4.8 3.8.8a9 9 0 0 0 4.6-1.1c1.3-.7 2.4-1.7 3.3-3l3 2.5c-.6 1-1.5 2-2.5 2.8s-2.2 1.6-3.7 2.2c-1.4.6-3.2.8-5 .8zm29.8-4.2c1.2 0 2.4-.2 3.4-.8a7 7 0 0 0 2.6-2.1c.7-1 1-2 1-3h5c-.1 1.8-.7 3.4-1.8 5-1 1.5-2.5 2.8-4.3 3.7-1.8 1-3.7 1.4-6 1.4-2.3 0-4.2-.4-6-1.2-1.7-.8-3-2-4.2-3.3-1-1.4-2-3-2.5-4.8-.5-1.8-.8-3.7-.8-5.8v-1.2a20 20 0 0 1 .8-5.7c.6-1.8 1.4-3.4 2.5-4.8 1-1.4 2.5-2.5 4.2-3.3 1.7-.8 3.7-1.2 6-1.2 2.4 0 4.4.5 6.2 1.4 1.8 1 3 2.2 4 4 1 1.6 1.6 3.5 1.7 5.6h-5c-.1-1.2-.4-2.4-1-3.4-.6-1-1.4-1.8-2.4-2.4-1-.6-2.2-1-3.6-1-1.6 0-3 .3-4 1a7 7 0 0 0-2.5 2.5c-.6 1-1 2.2-1.3 3.5-.3 1.3-.4 2.6-.4 4v1.2c0 1.3.1 2.6.4 4s.7 2.4 1.3 3.5c.6 1 1.5 2 2.5 2.5a8 8 0 0 0 4 .9zm23.4-26.4v30h-5v-30h5zm19.8 0L820 743h-7.2l-.8-4.5h6l10-12.7h6.3zm-5.5 30l-11-13.6 3.3-3.7 14.3 17.4h-6.5zm16.6-8.2l14-22h5.2v30h-5.2v-22l-14 22h-5v-30h5v22zm33 0l14-22h5.2v30h-5.2v-22l-14 22h-5v-30h5v22zm11-33h4.2c0 1.4-.3 2.7-1 4-.7 1-1.6 2-3 2.6s-2.7 1-4.4 1c-2.6 0-4.6-.7-6-2-1.5-1.4-2.2-3.2-2.2-5.4h4.2c0 1 .3 2 1 3s1.7 1.3 3.2 1.3c1.5 0 2.5-.4 3.2-1.3s1-1.8 1-3zm-434 105l8.4-27h5.5l-12 34.8c-.3.7-.6 1.5-1 2.4-.4 1-1 1.7-1.7 2.5s-1.6 1.4-2.6 2c-1 .5-2.2.8-3.5.8-.4 0-1-.1-1.6-.2a15 15 0 0 1-1.3-.3v-4.2l.7.1.7.1c1.2 0 2.2-.2 3-.5.8-.3 1.5-.8 2-1.5.6-.7 1-1.7 1.5-3l2-5.8zm-6.2-27l7.8 23.4 1.3 5.4-3.7 2-11-30.7h5.6zm45 13v4.2h-16V806h16zm-14.8-13v30h-5v-30h5zm19 0v30h-5.2v-30h5.2zm14 22l14-22h5.2v30h-5.2v-22l-14 22h-5v-30h5v22zm41.5-5h-10v-4h8c1.6 0 3-.2 4-.5 1-.3 2-.8 2.4-1.4s.8-1.4.8-2.3c0-.7-.2-1.4-.5-2-.3-.6-.8-1-1.4-1.4-.6-.4-1.4-.6-2.3-.8-1-.2-2-.3-3-.3h-6.6v26h-5v-30H552a24 24 0 0 1 5.1.5 12 12 0 0 1 3.9 1.5c1 .7 2 1.5 2.5 2.6s1 2.3 1 3.7c0 1-.2 1.8-.6 2.6s-1 1.5-1.6 2.2-1.6 1.2-2.7 1.6c-1 .4-2.3.6-3.6.8l-2 1.5zm0 13.2H542l2.6-4.2h9.2c1.4 0 2.6-.2 3.6-.5 1-.4 1.7-1 2-1.6.5-.7.7-1.5.7-2.4s-.2-1.8-.7-2.4c-.5-.7-1.2-1.2-2-1.6-1-.4-2-.6-3.6-.6H546v-4h9.8l2 1.6c1.7.1 3 .5 4.2 1.2s2 1.6 2.6 2.6c.6 1 1 2.2 1 3.4 0 1.4-.3 2.7-.8 3.7-.5 1-1.3 2-2.3 2.7-1 .7-2.2 1.2-3.6 1.6-1.4.4-3 .5-4.8.5zm31 .6c-2 0-4-.4-5.7-1-1.7-.7-3-1.7-4.4-3-1.2-1.3-2-2.8-2.8-4.6a17 17 0 0 1-1-5.8v-1.2c0-2.5.4-4.6 1-6.5.7-2 1.7-3.6 3-5s2.7-2.3 4.2-3 3.2-1 5-1c2.2 0 4 .4 5.6 1 1.6.7 3 1.8 4 3 1 1.3 1.7 3 2.2 4.7.5 1.8.7 3.7.7 5.8v2.3H574v-4.2h17.3v-.4c-.1-1.3-.4-2.6-.8-4a7 7 0 0 0-2.2-3.1c-1-.8-2.4-1.2-4.2-1.2a7 7 0 0 0-3.2.8c-1 .5-1.8 1.2-2.5 2.2s-1.3 2-1.6 3.5-.6 3-.6 4.8v1.2c0 1.4.2 2.8.6 4 .4 1.2 1 2.3 1.8 3.3.8 1 1.7 1.7 2.8 2.2 1 .5 2.4.8 3.8.8 1.8 0 3.4-.4 4.6-1s2.4-1.7 3.3-3l3 2.5c-.6 1-1.5 2-2.5 2.8s-2.2 1.6-3.7 2.2c-1.4.6-3.2.8-5 .8zm23-25v36h-5.2V793h4.7l.4 5.8zm20.3 9v.6c0 2.2-.3 4.2-.8 6a15 15 0 0 1-2.3 4.8c-1 1.4-2.2 2.4-3.6 3.2s-3 1-5 1c-2 0-3.6-.3-5-1a10 10 0 0 1-3.7-2.8c-1-1.2-1.8-2.7-2.4-4.3-.6-1.7-1-3.6-1.2-5.7v-3c.2-2.2.6-4.2 1.3-6s1.4-3.3 2.4-4.5c1-1.3 2.3-2.2 3.7-3 1.4-.7 3-1 5-1a11 11 0 0 1 5 1.1c1.5.7 2.7 1.8 3.7 3s1.8 3 2.3 5c.5 2 .8 4 .8 6.3zm-5.2.6v-.6c0-1.5-.2-3-.5-4.2-.3-1.3-.8-2.5-1.5-3.5-.6-1-1.5-1.8-2.5-2.4-1-.6-2.2-1-3.6-1-1.3 0-2.4.2-3.4.7-1 .4-1.8 1-2.4 1.8-.7.7-1.2 1.6-1.6 2.6-.4 1-.7 2-1 3v7.2a16 16 0 0 0 1.6 3.7c.7 1 1.6 2 2.7 2.8 1 .7 2.5 1 4.2 1 1.4 0 2.6-.3 3.6-1 1-.6 2-1.4 2.5-2.4.7-1 1.2-2.2 1.5-3.5.3-1.3.5-2.8.5-4.3zm23.8 11c1.2 0 2.4-.2 3.4-.8a7 7 0 0 0 2.6-2.1c.7-1 1-2 1-3h5c-.1 1.8-.7 3.4-1.8 5-1 1.5-2.5 2.8-4.3 3.7-1.8 1-3.7 1.4-6 1.4-2.3 0-4.2-.4-6-1.2-1.7-.8-3-2-4.2-3.3-1-1.4-2-3-2.5-4.8-.5-1.8-.8-3.7-.8-5.8v-1.2a20 20 0 0 1 .8-5.7c.6-1.8 1.4-3.4 2.5-4.8 1-1.4 2.5-2.5 4.2-3.3 1.7-.8 3.7-1.2 6-1.2 2.4 0 4.4.5 6.2 1.4 1.8 1 3 2.2 4 4 1 1.6 1.6 3.5 1.7 5.6h-5c-.1-1.2-.4-2.4-1-3.4-.6-1-1.4-1.8-2.5-2.4-1-.6-2.2-1-3.6-1-1.6 0-3 .3-4 1a7 7 0 0 0-2.5 2.5c-.6 1-1 2.2-1.3 3.5-.3 1.3-.4 2.6-.4 4v1.2c0 1.3.1 2.6.4 4s.7 2.4 1.3 3.5c.6 1 1.5 2 2.5 2.5a8 8 0 0 0 4 .9zm23.4-4.5l14-22h5.2v30H684v-22l-14 22h-5v-30h5v22zm39.6-22v30h-5.2v-30h5.2zm10 0v4.2h-25.2V793h25.2zm15.3 30.7c-2 0-4-.4-5.7-1a13 13 0 0 1-4.4-3c-1.2-1.3-2-2.8-2.8-4.6a17 17 0 0 1-1-5.8v-1.2c0-2.5.4-4.6 1-6.5.7-2 1.7-3.6 3-5s2.7-2.3 4.2-3 3.2-1 5-1c2.2 0 4 .4 5.6 1 1.6.7 3 1.8 4 3 1 1.3 1.7 3 2.2 4.7.5 1.8.7 3.7.7 5.8v2.3h-22.5v-4.2h17.3v-.4c-.1-1.3-.4-2.6-.8-4a7 7 0 0 0-2.2-3.1c-1-.8-2.4-1.2-4.2-1.2a7 7 0 0 0-3.2.8c-1 .5-1.8 1.2-2.5 2.2s-1.3 2-1.6 3.5a18 18 0 0 0-.6 4.8v1.2c0 1.4.2 2.8.6 4 .4 1.2 1 2.3 1.8 3.3.8 1 1.7 1.7 2.8 2.2 1 .5 2.4.8 3.8.8a9 9 0 0 0 4.6-1.1c1.3-.7 2.4-1.7 3.3-3l3 2.5c-.6 1-1.5 2-2.5 2.8s-2.2 1.6-3.7 2.2c-1.4.6-3.2.8-5 .8zm29.7-30.7v30h-5.2v-30h5.2zm10 0v4.2h-25.2V793h25.2z" fill="#fff"/><g fill-rule="evenodd"><path d="M395.2 783.8a370 370 0 0 1-246.8-108.7c-70.6-70.6-110-167.2-109-267a370 370 0 0 1 106.5-257.1 373 373 0 0 1 266-111.7 370 370 0 0 1 263.4 109.1 370 370 0 0 1 108.7 246.9c.4 9.3 8.2 16.5 17.4 16.5H823A411 411 0 0 0 411.7.6C185 .6.6 185 .6 411.7a411 411 0 0 0 411.1 411.1v-21.6c0-9.3-7.3-17-16.6-17.4zm426.3-335.4v170h-39.7v-95.3c0-4.4.1-9 .4-14l1.6-15.8c-1.8 5-3.7 9.6-5.8 13.8a123 123 0 0 1-6.2 11.1L720 606.8a33 33 0 0 1-3.1 4.2c-1.2 1.4-2.6 2.7-4 3.8a21 21 0 0 1-4.8 2.7 14 14 0 0 1-5.4 1H673v-170h39.7v95.2l-.4 14a153 153 0 0 1-1.6 15.8l5.8-13.7 6.2-11 51.7-88.4c1-1.4 2-2.8 3-4.2 1.2-1.4 2.6-2.7 4-3.8 1.5-1 3-2 4.8-2.7a14 14 0 0 1 5.4-1.1h29.8zM983 504c0 8.5-1.4 16.3-4 23.4-2.7 7-7 13.2-12.5 18.2a59 59 0 0 1-21.3 11.9c-8.6 2.8-18.8 4.3-30.5 4.3h-20.6v57h-39.5v-170h60a99 99 0 0 1 30.9 4.3 59 59 0 0 1 21.3 11.7c5.6 5 9.7 11 12.3 17.6 2.6 6.8 4 14 4 22zm-39.5 0c0-4-.6-7.4-1.7-10.6-1.2-3.2-3-6-5.3-8.2-2.4-2.3-5.4-4-9-5.3-3.6-1.2-8-2-13-2h-20.6v54h20.6c10.3 0 17.7-2.5 22.2-7.4 4.5-5 6.8-11.7 6.8-20.6zm50-34.8a73 73 0 0 1 10.9-9.1 71 71 0 0 1 13.5-7.2c5-2 10.2-3.5 16-4.7 5.7-1 11.7-1.7 18-1.7a90 90 0 0 1 34.4 6.4c10.4 4.3 19.4 10.3 27 18 7.5 7.7 13.3 17 17.4 27.5 4 10.6 6.2 22.3 6.2 35a102 102 0 0 1-5.7 34.6 80 80 0 0 1-16.4 27.6 75 75 0 0 1-26 18.2c-10.2 4.4-21.8 6.6-34.7 6.6a90 90 0 0 1-36.6-6.8 65 65 0 0 1-25.7-20.3l15.7-16.5c.8-1 1.8-1.5 2.7-1.8a8 8 0 0 1 2.8-.5c1.2 0 2.3.3 3.4.8 1 .5 2 1.2 3 2 2.3 2 4.6 3.8 7 5.2 2.3 1.4 4.7 2.5 7.2 3.3 2.6.8 5.3 1.4 8.2 1.8l10 .5c5.4 0 10.5-1 15.3-2.7 4.8-1.8 9.2-4.4 13-8a47 47 0 0 0 9.9-13c2.7-5 4.6-11 5.7-17.7H1023v-28.3h72.2a60 60 0 0 0-5.5-16.8c-2.5-5-5.6-9-9.3-12.3-3.7-3.4-8-6-12.7-7.6a45 45 0 0 0-15.4-2.6 49 49 0 0 0-15.1 1.9c-4 1.3-7 2.7-9.7 4.2l-6.7 4.2a10 10 0 0 1-5.9 1.9c-2 0-3.7-.5-5-1.3-1.2-1-2.2-2-3-3l-13.3-18zm315.6 149.3h-30.6c-3.4 0-6.2-.8-8.3-2.4s-3.7-3.6-4.8-6l-10-29.7H1191l-10 29.7c-1 2.2-2.4 4-4.6 6-2.2 1.8-5 2.6-8.2 2.6h-30.8l66-170h40.4l65.8 170zm-62.7-65l-15.8-46.6-3.7-10.4-4-13-3.7 13.2-3.7 10.5-15.7 46.4h46.6zM730 411.7h-21.7c-9.2 0-17-7.2-17.4-16.4-4-68.5-32.5-132.4-81.5-181.4A278 278 0 0 0 408.9 132a280 280 0 0 0-192.3 79.3 278 278 0 0 0-84.6 204.1 280 280 0 0 0 79.9 192c49.2 50.2 114 79.5 183.3 83.5 9.2.5 16.4 8.2 16.4 17.4V730C236 730 93.4 587.5 93.4 411.7 93.4 236 236 93.4 411.7 93.4 587.6 93.4 730 236 730 411.7zm-93 0h-22c-9 0-16.6-7-17.4-16.2a187 187 0 0 0-196.2-170.2c-94.7 5-171.2 81.6-176.3 176.3a187 187 0 0 0 170.2 196.2c9 .8 16.2 8.3 16.2 17.4v22c-125.5 0-227-102.6-225.3-228.6a226 226 0 0 1 222.1-222.1c126-1.8 228.6 99.8 228.6 225.3zm2.6 36.7v170H605v-97.8c0-2.2.1-4.7.2-7.4l.6-8-45.2 87.5c-1.4 2.7-3.3 4.8-5.7 6.2-2.4 1.4-5 2-8 2h-5.4c-3 0-5.7-.7-8-2-2.4-1.4-4.3-3.5-5.7-6.2L482.5 505l.6 8.2.2 7.4v97.8h-34.8v-170h30l4.5.1c1.3.1 2.4.3 3.4.7s2 1 2.7 1.8a14 14 0 0 1 2.4 3.4l43.8 86.3 4.5 9.2a224 224 0 0 1 4.1 9.8l4-10c1.4-3.3 3-6.4 4.6-9.3l43.7-86c.8-1.5 1.6-2.6 2.4-3.4.8-.8 1.7-1.4 2.8-1.8s2.2-.6 3.4-.7c1.3-.1 2.8-.1 4.5-.1h30z" fill="url(#A)"/><path d="M436.3 514.5L429 516c0 0 0 0 0 0l-1 .1-3.4.5-1.6.2a91 91 0 0 1-3.4.3c-.3 0-.5.1-.8.1h0l-7 .3c-31 0-58.7-13.4-78-34.8l-3-3.5c-.5-.6-1-1.3-1.5-2-.4-.5-.8-1-1.2-1.6h0c-13.4-17.8-21.4-40-21.4-64a106 106 0 0 1 7.7-39.7c0 0 0 0 0 0l.2-.6 1-2.2 1-2.2 1-2 .4-1c0 0 0 0 0 0a106 106 0 0 1 9.9-15.9c0 0-.1 0-.1 0l1.3-1.6 2.5-3 1.3-1.5h.1a105 105 0 0 1 54.4-33c0 0 0 0 0 0l.5-.1 4-1 .5-.1 4.8-.8 14.6-1a105 105 0 0 1 90.5 52c0 0 0 0 0 0 .3.4.5 1 .8 1.3l1.4 2.5 1 2 1.2 2.4c0 .1.1.1.1.1a106 106 0 0 1 10.1 45.4l-.5 11-.6 4.7-.4 2.3-.3 2c0 0 0 0 0 0-1.6 8.3-4 16.2-7.4 23.6l-4-8.2a30 30 0 0 0-2.1-3.7l.7-2-1.6 1c-.2-.3-.5-.6-.7-1-1.2-1.3-2.6-2.2-4-3 3-1.8 6-3.7 8.7-5.8a97 97 0 0 0 2.3-20.7c0-19-5.5-36.6-15-51.5a118 118 0 0 0-35.4-6.2c-.5 2.5-1.7 4.8-3.3 6.6a128 128 0 0 1 15.9 62l-.8 14.2h-6l1-14.2c0-21.3-5.5-41.3-15-58.8a13 13 0 0 1-4.5.9c-5.6 0-10.2-3.5-12-8.5l-15.7 4.2c.1.6.2 1.2.2 2a13 13 0 0 1-1 5c22 17 38 41.3 45.5 69.5H455c-7.2-26.2-22.6-49-43-65-2.3 2-5.3 3.4-8.6 3.4-4 0-7.3-1.8-9.7-4.5a122 122 0 0 0-39.9 38.7 13 13 0 0 1 2.3 16.4 118 118 0 0 0 78.4 29.7h2v5.8l-2 .1c-31.5 0-60.2-12-82.3-31.4-2 1.3-4.4 2-7 2-1 0-2-.1-2.7-.3-4.3 11-7 23-8 35.2 17.2 24.4 45.5 40.4 77.6 40.4 6.6 0 13-.7 19.4-2a121 121 0 0 0 5.2-6.1v15.2zM412.7 316c9.7 6.7 18.5 14.6 26 23.6a13 13 0 0 1 5-1c6 0 11 4 12.4 9.6 10.4.2 20.5 1.7 30.2 4.3-17.2-22-43.8-36-73.7-36.4zM347 341.8c16.6.8 32.3 5 46.5 12 2.4-2.8 5.8-4.6 9.8-4.6 4.5 0 8.4 2.3 10.7 5.7l17-4.6c.3-2.8 1.4-5.3 3-7.3a124 124 0 0 0-31.5-26.6c-21.4 2-40.7 11.3-55.6 25.2zm-24.4 36.6c4 10.6 9.7 20.4 16.4 29.2 1.8-1 3.8-1.5 6-1.5 1.3 0 2.5.3 3.7.6a128 128 0 0 1 42.2-40.9c-.3-1-.5-2.2-.5-3.4 0-1.2.2-2.4.5-3.5-15-7.2-31.7-11.3-49.4-11.4-8 9-14.6 19.4-19 31zm14.5 51a13 13 0 0 1-2.4-18 130 130 0 0 1-14.7-24.7c-2.2 8-3.3 16.4-3.3 25 0 17.4 4.6 33.6 12.6 47.6a130 130 0 0 1 7.8-30.1z" fill="url(#B)" stroke="#fff" stroke-width="5"/></g><defs><linearGradient id="A" x1="1373.5" y1="557.6" x2="783.7" y2="1260.5" gradientUnits="userSpaceOnUse"><stop stop-color="#fff"/></linearGradient><linearGradient id="B" x1="566.4" y1="400.6" x2="427.6" y2="565.9" gradientUnits="userSpaceOnUse"><stop stop-color="#fff"/></linearGradient></defs></svg>