<?xml version="1.0" standalone="no"?>
<!DOCTYPE svg PUBLIC "-//W3C//DTD SVG 20010904//EN"
 "http://www.w3.org/TR/2001/REC-SVG-20010904/DTD/svg10.dtd">
<svg version="1.0" xmlns="http://www.w3.org/2000/svg"
 width="1002.000000pt" height="1280.000000pt" viewBox="0 0 1002.000000 1280.000000"
 preserveAspectRatio="xMidYMid meet">
<metadata>
Created by potrace 1.15, written by Peter Selinger 2001-2017
</metadata>
<g transform="translate(0.000000,1280.000000) scale(0.100000,-0.100000)"
stroke="none" fill="lightgreen">
<path d="M3335 12748 c-94 -68 -248 -141 -370 -175 -93 -25 -113 -27 -290 -27
-205 0 -263 10 -419 71 l-68 27 -18 -21 c-14 -18 -17 -46 -18 -162 -4 -308
-66 -570 -197 -830 -166 -331 -497 -791 -674 -938 -78 -64 -177 -115 -229
-119 -51 -3 -49 -2 -66 -20 -23 -22 -20 -73 7 -116 39 -64 72 -84 262 -153
594 -217 879 -289 1190 -301 190 -8 197 -6 275 98 152 202 300 476 418 776
255 647 371 1237 341 1735 -11 168 -22 208 -57 206 -9 0 -48 -23 -87 -51z m60
-175 c52 -682 -289 -1809 -732 -2425 l-56 -78 -118 0 c-297 0 -625 82 -1272
320 -80 29 -147 70 -147 89 0 4 24 15 53 24 166 53 355 237 619 604 153 212
342 566 402 753 57 174 96 419 96 597 0 68 2 74 18 68 52 -22 193 -55 278 -66
175 -22 394 3 554 64 72 27 209 95 255 126 17 12 33 21 37 21 3 0 9 -44 13
-97z"/>
<path d="M2895 12439 c-115 -21 -210 -31 -296 -33 l-126 -2 -44 -36 c-24 -19
-68 -48 -97 -62 l-53 -27 6 -67 c14 -138 -51 -352 -190 -627 -171 -337 -377
-639 -567 -828 -59 -59 -108 -115 -108 -123 0 -9 13 -29 30 -45 39 -39 48 -89
25 -139 -10 -21 -15 -46 -12 -54 16 -41 224 -145 385 -192 151 -44 410 -71
449 -46 6 4 18 34 26 66 18 67 58 115 122 146 48 23 109 25 145 5 14 -8 32
-14 41 -15 10 0 60 57 121 138 171 225 212 291 262 424 13 35 48 113 79 173
30 61 62 131 71 156 23 71 133 561 150 669 20 133 39 328 35 370 -4 34 -6 35
-50 40 -59 7 -76 22 -105 88 l-24 52 -52 -1 c-29 0 -129 -14 -223 -30z m225
-74 c0 -25 80 -104 114 -113 25 -7 31 -13 29 -33 -25 -240 -59 -445 -109 -645
-6 -24 -90 -65 -203 -98 -71 -21 -68 -21 -76 15 -10 45 -67 103 -126 128 -128
56 -366 67 -510 25 -13 -3 -5 24 32 114 65 160 99 294 99 391 0 71 2 79 23 88
12 6 43 27 70 47 47 36 48 36 145 37 58 0 165 11 267 29 202 34 245 36 245 15z
m-640 -780 c0 -3 -15 -11 -34 -19 -36 -15 -66 -58 -67 -98 0 -13 -8 -43 -17
-68 -17 -44 -19 -45 -61 -45 -31 0 -47 -5 -55 -17 -16 -26 2 -49 57 -72 43
-18 47 -18 71 -2 33 21 70 95 85 168 12 55 13 57 49 63 41 7 97 -9 87 -25 -3
-5 -1 -19 5 -30 12 -22 49 -27 68 -8 17 17 15 79 -4 106 -11 17 -12 22 -2 22
24 -1 93 -37 113 -60 29 -32 27 -108 -2 -149 -27 -36 -29 -67 -5 -80 9 -5 52
-16 95 -26 88 -19 110 -12 105 34 -2 21 -11 29 -50 40 -52 16 -62 36 -25 50
50 20 222 70 226 66 13 -13 -48 -189 -113 -325 -41 -85 -82 -177 -92 -203 -9
-26 -21 -50 -25 -53 -20 -12 -159 219 -159 264 0 22 -40 29 -93 15 -215 -56
-478 82 -512 267 -12 68 47 136 139 161 61 17 216 34 216 24z m-399 -307 c47
-93 174 -186 304 -224 63 -18 200 -24 248 -11 26 7 29 4 47 -38 25 -59 80
-144 125 -194 l37 -41 -21 -34 c-12 -18 -62 -87 -112 -152 -63 -82 -96 -118
-108 -115 -9 2 -45 4 -81 5 -54 0 -74 -4 -118 -28 -73 -41 -138 -113 -153
-170 -6 -25 -15 -46 -19 -46 -55 0 -236 26 -311 45 -111 28 -168 49 -277 104
l-78 39 4 69 c3 54 -1 76 -17 107 l-21 40 83 85 c122 126 286 347 401 539 21
34 39 62 42 62 2 0 13 -19 25 -42z"/>
<path d="M2705 12244 c-75 -38 -115 -105 -115 -188 0 -66 12 -102 48 -139 94
-99 291 3 292 151 0 74 -64 164 -130 182 -47 13 -60 13 -95 -6z m109 -105 c46
-55 31 -131 -34 -164 -39 -20 -63 -19 -84 4 -42 46 -22 150 34 178 38 19 56
16 84 -18z"/>
<path d="M2080 10964 c-75 -20 -112 -44 -132 -84 -49 -97 16 -239 130 -287 18
-8 62 -14 98 -14 113 -1 224 73 224 150 0 82 -65 173 -153 215 -71 34 -103 37
-167 20z m104 -86 c24 -7 59 -30 84 -55 34 -34 42 -50 42 -78 0 -29 -6 -39
-32 -55 -115 -70 -264 0 -256 120 3 44 4 45 53 62 61 21 58 21 109 6z"/>
<path d="M5625 12119 c-71 -5 -215 -21 -320 -35 -104 -15 -210 -29 -235 -31
-25 -2 -54 -8 -65 -13 -11 -5 -83 -23 -160 -40 -149 -34 -451 -122 -491 -143
-13 -7 -90 -78 -171 -157 -81 -80 -194 -184 -251 -230 -98 -81 -103 -87 -100
-119 3 -31 12 -41 83 -92 264 -187 423 -495 425 -825 0 -77 9 -80 129 -39 240
82 532 130 568 94 9 -9 19 -9 42 1 32 13 56 11 241 -17 58 -8 116 -22 128 -30
14 -9 34 -12 48 -9 68 18 572 -147 698 -228 66 -42 136 -112 136 -135 0 -43
72 -57 105 -21 10 11 25 20 34 20 9 0 84 58 166 128 204 175 203 172 215 547
5 164 14 289 24 340 20 98 41 401 40 550 -2 109 -23 222 -59 307 -15 38 -36
48 -195 92 -268 73 -700 109 -1035 85z m610 -84 c184 -20 475 -79 475 -96 0
-3 -43 -39 -96 -79 l-96 -73 -82 26 c-44 15 -112 34 -151 42 -80 17 -336 20
-364 5 -26 -13 -33 -37 -16 -54 11 -11 37 -13 123 -8 121 5 238 -8 341 -40 36
-11 68 -22 70 -24 2 -2 -27 -37 -65 -77 -39 -39 -77 -82 -85 -94 l-16 -23 -69
20 c-192 56 -377 86 -629 102 l-192 12 60 91 61 92 161 -1 c157 -1 160 -1 163
21 6 40 -31 53 -156 53 l-114 0 17 28 c10 15 30 41 44 59 l26 32 230 0 c140 1
281 -5 360 -14z m-701 -7 c-5 -7 -59 -87 -121 -177 -62 -90 -113 -168 -113
-172 0 -4 -64 -10 -142 -14 -79 -4 -186 -11 -238 -15 -52 -5 -96 -7 -98 -6 -1
2 25 38 58 81 34 42 86 114 116 160 52 79 57 84 102 94 43 9 300 45 382 54 19
2 41 5 48 5 8 1 10 -3 6 -10z m-601 -109 c-10 -17 -52 -74 -94 -127 -42 -53
-84 -112 -93 -129 -9 -18 -20 -33 -25 -33 -4 0 -59 -9 -122 -20 -157 -28 -324
-72 -460 -119 l-114 -40 69 62 c38 34 83 67 100 73 17 7 78 30 136 52 58 22
157 51 219 64 124 25 151 42 118 75 -15 15 -24 16 -94 4 -68 -11 -197 -45
-258 -67 -14 -5 -7 6 19 34 35 36 55 46 168 83 107 34 411 116 441 118 5 1 0
-13 -10 -30z m1907 -232 c5 -50 8 -93 6 -96 -2 -3 -9 -94 -16 -201 -7 -107
-23 -262 -36 -345 -19 -121 -24 -187 -24 -346 0 -251 -13 -303 -90 -368 -28
-24 -53 -41 -56 -39 -2 3 1 61 7 129 15 165 15 473 0 579 -14 100 -48 239 -63
257 -13 17 -43 17 -56 0 -8 -9 -5 -32 9 -81 51 -185 62 -441 34 -778 -12 -138
-20 -187 -32 -200 -9 -10 -19 -18 -22 -18 -3 0 -7 91 -9 203 -5 367 -28 626
-72 813 -19 81 -69 235 -89 271 -9 17 -2 30 43 85 50 61 122 128 137 128 12 0
57 -124 82 -230 32 -131 48 -238 52 -345 3 -92 7 -105 35 -105 34 0 43 36 37
145 -11 176 -70 432 -123 538 -22 42 -23 50 -11 60 8 7 54 41 101 77 47 35 89
73 93 85 10 32 52 -111 63 -218z m-1145 -108 c234 -20 537 -87 560 -123 23
-34 83 -226 105 -330 36 -174 52 -383 53 -698 1 -163 -1 -299 -4 -303 -4 -3
-38 24 -75 62 -53 53 -91 80 -164 116 -105 52 -403 153 -550 187 -113 26 -121
29 -131 58 -11 29 -2 29 142 -7 176 -44 303 -87 418 -142 56 -28 109 -48 117
-45 8 3 18 16 23 29 15 40 59 67 106 67 23 0 47 6 53 13 21 25 35 179 29 316
-6 140 -35 283 -77 379 l-19 42 -68 -2 c-61 -3 -72 0 -112 27 -66 45 -86 77
-84 136 1 59 17 50 -192 113 -198 60 -226 65 -320 66 -122 0 -155 8 -155 35 0
22 1 23 113 18 61 -2 166 -8 232 -14z m-421 -21 c3 -18 10 -114 16 -213 19
-321 59 -596 108 -752 l20 -63 -22 5 c-51 12 -225 35 -268 35 l-47 0 -30 98
c-98 324 -172 579 -221 766 -17 65 -28 121 -25 125 10 10 221 28 347 30 l117
1 5 -32z m-544 -23 c0 -9 -14 -17 -37 -21 -166 -28 -421 -90 -440 -106 -9 -7
-11 -26 -7 -63 6 -50 5 -54 -30 -92 -20 -22 -36 -47 -36 -54 0 -8 45 -93 100
-189 85 -148 128 -239 154 -322 3 -10 21 -24 40 -32 19 -8 55 -33 80 -57 l46
-42 58 26 c31 14 84 30 116 36 68 13 216 15 216 4 0 -5 3 -18 6 -30 6 -22 4
-23 -52 -23 -101 0 -251 -29 -421 -80 -56 -16 -104 -30 -106 -30 -2 0 -7 36
-11 79 -14 177 -83 366 -188 518 -56 81 -170 201 -231 243 -20 14 -37 28 -37
31 0 10 182 83 290 117 52 16 147 41 210 56 217 49 280 56 280 31z m820 -72
c-1 -19 -99 -149 -137 -180 l-41 -34 -6 68 c-4 37 -8 87 -10 111 l-4 42 99 0
c55 0 99 -3 99 -7z m-794 -40 c4 -16 51 -181 105 -368 53 -187 96 -341 96
-342 -1 0 -51 -6 -112 -12 -60 -6 -138 -20 -172 -32 l-61 -20 -47 35 c-26 20
-50 36 -54 36 -4 0 -20 33 -35 73 -16 39 -56 119 -89 177 -34 58 -76 132 -94
166 l-33 61 21 19 c27 24 49 75 49 113 0 25 5 32 28 37 15 3 61 15 102 25 59
16 239 52 282 58 4 1 11 -11 14 -26z m1039 -16 l139 -44 8 -37 c11 -54 32 -88
78 -130 55 -50 114 -76 172 -76 l47 0 20 -67 c37 -128 45 -188 46 -328 0 -181
-2 -189 -61 -205 -26 -8 -61 -27 -79 -45 l-32 -32 -35 18 c-110 56 -340 130
-533 170 -59 13 -109 28 -112 35 -2 7 7 30 21 51 84 122 86 341 6 471 l-21 34
51 55 c28 30 65 81 83 114 17 32 39 59 47 59 8 0 78 -19 155 -43z m-353 -307
c29 -74 31 -216 4 -275 l-19 -40 -8 40 c-8 40 -34 246 -44 340 l-5 50 25 -30
c14 -16 35 -55 47 -85z"/>
<path d="M4550 11128 c-119 -60 -114 -219 8 -259 46 -15 127 -6 160 18 37 28
72 81 72 111 0 44 -46 108 -93 131 -55 27 -92 27 -147 -1z m140 -87 c46 -46
18 -98 -59 -108 -35 -5 -44 -2 -71 25 -21 21 -28 36 -23 49 24 68 102 85 153
34z"/>
<path d="M5741 11075 c-47 -42 -71 -105 -71 -182 0 -60 31 -117 90 -167 37
-31 70 -32 125 -7 112 50 147 188 77 300 -37 61 -83 91 -138 91 -36 0 -51 -6
-83 -35z m136 -67 c81 -84 58 -202 -44 -232 -17 -6 -28 2 -57 40 -40 53 -46
91 -21 151 34 81 72 93 122 41z"/>
<path d="M7633 10542 c-7 -5 -26 -47 -42 -95 -102 -302 -318 -544 -604 -677
-45 -21 -121 -50 -169 -65 -112 -34 -116 -43 -50 -133 184 -249 308 -508 360
-753 12 -52 31 -173 44 -269 20 -152 23 -214 22 -470 -1 -318 -12 -440 -49
-558 -27 -84 -81 -179 -107 -188 -23 -7 -34 -49 -22 -82 5 -15 28 -35 54 -50
80 -43 172 -23 685 145 401 131 658 257 860 421 l60 48 -1 190 c-1 330 -65
673 -206 1104 -187 576 -447 1062 -728 1363 -71 76 -83 84 -107 69z m185 -299
c198 -261 357 -569 507 -982 168 -464 260 -899 267 -1260 l3 -143 -95 -69
c-234 -168 -458 -265 -1006 -434 -204 -63 -288 -85 -330 -85 l-55 0 29 43
c100 145 127 263 142 621 11 261 4 414 -31 681 -47 353 -137 598 -323 879 -46
70 -81 128 -77 130 3 2 31 11 61 21 72 23 220 98 290 145 118 81 240 203 321
322 44 64 120 214 139 272 l13 40 34 -40 c19 -21 69 -85 111 -141z"/>
<path d="M7411 9928 c-112 -111 -221 -208 -254 -228 -39 -24 -59 -43 -63 -60
-14 -68 -28 -109 -50 -147 -13 -23 -24 -44 -24 -46 0 -3 21 -29 46 -59 97
-114 187 -371 225 -648 5 -41 17 -122 25 -180 8 -58 17 -220 21 -360 6 -264
-3 -403 -32 -514 -14 -54 -14 -60 1 -77 10 -11 28 -19 41 -19 55 0 113 -56
113 -108 0 -10 8 -27 19 -36 16 -15 28 -16 107 -6 223 27 408 95 607 222 109
70 112 75 81 157 -25 66 -25 66 -8 130 22 82 71 137 132 147 28 4 47 14 54 27
7 14 9 100 5 271 -4 232 -7 258 -31 346 -15 52 -35 147 -46 210 -27 157 -39
194 -131 408 -110 253 -223 483 -311 627 -78 127 -98 144 -133 105 -26 -29
-86 -27 -133 5 -20 14 -43 25 -51 25 -7 0 -102 -87 -210 -192z m254 72 c42
-21 114 -26 145 -10 16 9 27 -6 93 -118 89 -152 109 -190 187 -367 l60 -135
-42 -69 c-22 -38 -58 -89 -78 -112 l-37 -43 -36 23 c-20 12 -60 25 -89 28
-110 11 -301 -84 -439 -218 l-78 -76 -17 71 c-45 191 -119 370 -183 446 l-27
33 23 56 c12 31 23 65 23 77 0 14 17 31 53 54 28 19 131 111 227 207 96 95
175 173 175 173 1 0 18 -9 40 -20z m563 -812 c37 -90 47 -126 67 -253 9 -55
27 -140 40 -189 14 -50 23 -91 22 -92 -6 -6 -103 23 -152 45 -27 12 -71 35
-96 52 -51 32 -71 36 -91 15 -141 -153 -254 -205 -415 -193 -173 13 -261 113
-203 232 25 51 138 169 191 199 l34 19 -27 -29 c-41 -44 -45 -82 -14 -149 34
-74 43 -125 23 -125 -8 0 -25 -8 -38 -19 -21 -16 -22 -22 -11 -45 13 -30 44
-34 97 -12 50 21 60 46 45 120 -6 33 -20 77 -31 98 -10 20 -19 43 -19 51 0 16
34 49 68 67 21 10 26 9 39 -9 27 -39 73 -20 73 29 0 33 -40 73 -74 73 -35 0
-33 4 10 22 48 20 109 19 144 -2 34 -19 65 -83 57 -114 -8 -30 9 -59 34 -59
25 0 164 63 174 79 4 7 4 23 1 37 -8 29 -41 32 -88 8 -25 -13 -32 -14 -39 -2
-13 19 -14 17 45 90 30 37 63 81 73 98 9 16 20 30 24 30 4 0 21 -33 37 -72z
m-78 -555 c47 -22 110 -46 140 -53 30 -7 61 -14 68 -16 9 -3 12 -50 12 -194
l0 -190 -37 -15 c-121 -51 -194 -225 -148 -354 l14 -42 -67 -43 c-163 -105
-351 -174 -548 -200 -39 -5 -41 -5 -58 34 -19 43 -66 87 -109 103 -17 5 -26
15 -23 22 28 75 41 464 23 732 l-8 122 43 -19 c176 -77 420 -27 563 117 22 22
42 39 45 38 3 0 43 -19 90 -42z"/>
<path d="M7480 9733 c-86 -29 -120 -76 -120 -166 0 -105 93 -207 190 -207 106
0 184 149 136 263 -30 74 -140 133 -206 110z m102 -112 c28 -25 33 -36 33 -73
0 -121 -114 -135 -162 -20 -17 40 -12 68 17 100 29 31 72 29 112 -7z"/>
<path d="M7790 8354 c-62 -12 -92 -29 -133 -74 -99 -110 -101 -182 -7 -262
136 -117 347 -42 400 143 20 68 -23 140 -101 173 -40 17 -121 27 -159 20z
m129 -102 c63 -32 66 -73 9 -137 -40 -46 -77 -65 -128 -65 -64 0 -130 43 -130
85 0 32 56 104 93 120 44 20 115 18 156 -3z"/>
<path d="M3664 10258 c-278 -224 -543 -350 -865 -413 -301 -58 -379 -67 -691
-72 -252 -5 -312 -3 -392 12 -110 19 -199 58 -250 109 -28 29 -41 36 -59 30
-60 -18 -93 -84 -84 -173 5 -57 136 -432 242 -696 125 -310 274 -562 430 -729
l45 -49 118 7 c328 19 674 97 1059 237 511 187 942 418 1240 666 105 87 253
236 253 254 0 25 -17 35 -103 58 -202 57 -372 158 -518 308 -126 129 -202 251
-263 423 -29 79 -41 100 -60 100 -7 0 -53 -32 -102 -72z m90 -84 c13 -51 77
-175 138 -265 141 -212 390 -399 631 -475 l57 -18 -22 -24 c-44 -47 -204 -180
-303 -252 -435 -315 -1197 -631 -1755 -729 -139 -24 -288 -41 -368 -41 -54 0
-60 3 -93 38 -184 194 -323 468 -543 1074 -66 182 -86 249 -86 288 l0 51 29
-21 c109 -77 243 -110 476 -117 388 -12 842 43 1145 139 186 59 492 227 630
347 43 37 56 38 64 5z"/>
<path d="M3507 9965 c-102 -97 -333 -191 -596 -245 -55 -11 -106 -22 -113 -25
-39 -14 -387 -56 -538 -65 -164 -9 -276 -5 -452 16 -54 6 -57 6 -62 -17 -3
-13 -7 -36 -11 -52 -8 -39 -54 -85 -100 -99 -36 -12 -40 -17 -43 -50 -5 -55
42 -245 87 -359 62 -154 210 -388 257 -406 8 -3 43 7 78 22 71 30 105 29 182
-5 54 -23 82 -55 98 -110 l13 -45 184 3 c236 3 352 17 457 53 47 15 140 40
206 55 67 14 159 42 206 61 77 32 486 237 570 286 123 72 340 222 345 238 4
13 -2 30 -19 50 -33 39 -33 65 1 134 l28 56 -75 72 c-41 40 -127 118 -191 174
-64 56 -142 135 -172 176 -54 72 -57 74 -107 80 -28 4 -76 18 -107 32 -30 14
-58 25 -62 25 -3 -1 -32 -25 -64 -55z m131 -65 c29 -11 63 -20 76 -20 17 0 40
-20 83 -73 34 -41 133 -137 220 -215 l160 -141 -19 -57 c-16 -47 -17 -65 -9
-106 6 -27 11 -51 11 -52 0 -13 -285 -186 -427 -258 l-172 -89 -63 32 c-35 17
-89 49 -121 71 l-57 39 22 29 c32 44 35 123 9 203 -32 94 -126 230 -222 321
-45 42 -80 78 -78 79 2 2 54 17 114 35 137 41 315 127 375 181 25 22 45 40 45
41 0 0 24 -9 53 -20z m-654 -310 c54 -35 138 -111 168 -153 l20 -28 -33 20
c-45 28 -65 26 -140 -8 -99 -45 -111 -46 -129 -8 -29 61 -86 42 -77 -25 15
-111 70 -118 265 -37 33 14 35 13 63 -19 33 -36 36 -54 14 -72 -34 -28 2 -84
46 -73 27 8 59 51 59 82 0 36 15 12 36 -56 13 -45 13 -56 1 -85 -21 -49 -50
-69 -108 -77 -78 -9 -82 -23 -34 -122 43 -87 63 -106 95 -89 25 14 25 40 0 89
l-19 39 20 5 c14 4 36 -6 65 -28 24 -19 69 -49 99 -67 30 -18 55 -35 55 -39 0
-9 -149 -77 -205 -93 -28 -8 -87 -22 -133 -31 -45 -9 -121 -30 -169 -46 -47
-16 -88 -27 -91 -24 -10 10 33 151 69 222 21 43 39 84 39 92 0 8 -33 45 -73
82 -106 97 -156 207 -157 340 0 83 25 157 70 201 33 34 43 38 87 38 37 0 60
-7 97 -30z m-294 -2 c0 -2 -10 -28 -21 -58 -28 -72 -30 -209 -5 -295 25 -86
80 -178 142 -241 l54 -54 -24 -48 c-23 -46 -55 -144 -72 -227 l-9 -40 -85 -7
c-47 -3 -133 -6 -191 -7 -104 -1 -107 0 -113 23 -9 35 -82 105 -134 128 -66
30 -170 35 -228 13 -52 -20 -43 -27 -118 85 -89 133 -170 326 -196 471 -11 58
-10 65 6 74 42 24 104 89 114 120 11 32 13 34 43 27 65 -14 507 -6 657 12 80
10 147 20 149 22 5 4 31 6 31 2z"/>
<path d="M3631 9664 c-94 -47 -138 -153 -96 -234 17 -33 83 -75 134 -84 111
-20 221 75 221 192 0 126 -131 189 -259 126z m154 -89 c29 -28 30 -34 11 -80
-25 -58 -105 -83 -156 -48 -53 36 -53 63 -1 114 32 33 45 39 80 39 31 0 48 -6
66 -25z"/>
<path d="M2278 9389 c-44 -12 -86 -47 -115 -97 -24 -39 -28 -59 -28 -118 0
-61 4 -77 30 -119 55 -90 153 -145 231 -131 114 22 168 204 101 338 -15 30
-41 55 -83 84 -68 45 -96 54 -136 43z m82 -111 c63 -39 84 -83 77 -165 -4 -64
-28 -103 -63 -103 -42 0 -94 31 -125 73 -49 68 -37 164 27 212 25 19 22 20 84
-17z"/>
<path d="M5366 9581 c-3 -5 -22 -51 -41 -102 -95 -249 -238 -485 -391 -648
-100 -106 -353 -322 -489 -416 -109 -76 -364 -229 -460 -277 -123 -62 -191
-81 -285 -81 -47 -1 -97 3 -112 7 -22 7 -32 3 -54 -19 -23 -23 -26 -32 -22
-75 8 -84 43 -127 241 -293 502 -423 773 -601 1063 -697 l95 -32 53 32 c293
178 633 500 950 899 358 451 579 853 701 1275 46 163 36 177 -100 139 -82 -24
-108 -26 -280 -27 -194 -1 -229 3 -365 46 -105 33 -268 123 -368 203 -87 70
-123 88 -136 66z m83 -135 c44 -41 162 -116 246 -156 185 -88 367 -125 575
-116 74 3 164 12 200 20 36 7 66 13 68 11 5 -4 -59 -197 -100 -300 -250 -628
-896 -1434 -1448 -1805 l-88 -59 -74 24 c-107 37 -298 133 -422 215 -142 93
-294 210 -541 415 -186 154 -265 232 -265 259 0 7 29 11 83 12 105 2 186 23
312 83 111 53 367 204 490 289 201 140 477 384 588 520 115 141 235 348 308
530 18 45 35 82 38 82 3 0 16 -11 30 -24z"/>
<path d="M5532 9258 c-24 -10 -71 -22 -104 -26 -67 -8 -68 -8 -92 -92 -21 -75
-76 -165 -167 -274 -70 -83 -122 -136 -316 -313 -237 -218 -675 -499 -835
-537 -35 -8 -44 -39 -23 -83 23 -48 14 -98 -25 -138 -16 -17 -30 -39 -30 -50
0 -49 203 -256 343 -349 96 -64 280 -154 330 -163 31 -5 36 -2 70 46 45 62 69
78 138 93 74 15 122 5 162 -37 19 -19 41 -35 50 -35 9 0 36 13 59 29 24 16
110 73 192 126 138 89 164 111 356 303 222 222 244 250 495 652 67 107 211
379 235 443 13 37 -1 63 -39 70 -39 8 -62 45 -62 99 0 24 -3 51 -5 60 -7 22
-67 40 -266 79 -185 35 -276 60 -354 94 -66 29 -57 29 -112 3z m145 -107 c44
-17 171 -48 282 -70 111 -22 206 -43 211 -46 6 -4 10 -18 10 -33 1 -40 33
-105 66 -131 l29 -22 -77 -152 c-43 -84 -121 -221 -175 -304 l-98 -153 -130 0
c-129 0 -164 7 -150 29 4 7 1 35 -6 64 -30 129 -263 271 -513 312 l-39 6 60
62 c130 135 223 266 264 374 22 57 27 63 54 63 17 1 46 7 65 14 51 20 58 19
147 -13z m-432 -623 c59 -19 65 -23 40 -25 -62 -7 -76 -14 -102 -56 -15 -23
-42 -59 -61 -79 l-35 -37 -29 22 c-34 25 -61 15 -66 -25 -4 -30 56 -88 91 -88
41 0 95 49 170 155 19 27 43 27 99 -1 23 -12 26 -18 21 -48 -4 -28 -1 -36 16
-45 46 -25 92 34 71 92 -5 17 -9 32 -7 33 2 2 20 -10 40 -27 41 -34 67 -76 67
-109 0 -38 -31 -88 -66 -109 -25 -15 -34 -27 -34 -46 0 -21 14 -35 76 -75 42
-28 82 -50 90 -50 7 0 20 10 28 22 19 27 8 49 -39 78 -33 21 -35 24 -20 40 12
14 24 15 63 9 26 -4 82 -8 125 -8 42 -1 77 -3 77 -7 0 -25 -113 -158 -256
-300 -171 -170 -173 -171 -183 -145 -24 60 -41 150 -41 218 0 88 -17 113 -78
113 -96 0 -248 83 -313 172 -55 76 -79 137 -79 206 0 75 8 93 58 128 35 24 42
25 122 20 47 -2 116 -15 155 -28z m-376 -295 c73 -145 214 -248 394 -287 23
-6 27 -11 27 -42 0 -49 28 -177 51 -237 25 -62 33 -54 -154 -173 l-142 -91
-35 23 c-19 13 -57 28 -84 34 -98 22 -241 -27 -291 -100 l-27 -39 -56 25
c-166 73 -283 154 -414 286 l-98 97 25 47 c19 35 25 63 25 108 l1 61 117 57
c64 31 172 93 240 137 129 85 347 245 359 264 4 7 13 -16 20 -50 7 -34 25 -88
42 -120z"/>
<path d="M5695 9034 c-111 -41 -174 -191 -119 -285 66 -112 274 -78 323 54 25
64 9 141 -37 190 -54 57 -95 67 -167 41z m110 -104 c9 -10 17 -34 18 -53 2
-88 -110 -149 -168 -90 -34 33 -1 131 53 159 29 14 77 6 97 -16z"/>
<path d="M4618 8060 c-47 -9 -67 -25 -89 -75 -39 -85 -18 -186 51 -256 59 -59
128 -84 213 -76 98 9 150 61 150 149 0 92 -69 205 -146 241 -40 18 -130 27
-179 17z m157 -104 c64 -42 101 -144 70 -192 -16 -25 -21 -26 -84 -22 -76 4
-120 29 -148 81 -19 38 -21 103 -4 136 12 22 17 23 77 18 35 -2 75 -12 89 -21z"/>
<path d="M1007 8649 c-9 -5 -22 -7 -27 -4 -6 3 -90 -24 -188 -61 -160 -61
-181 -72 -224 -115 -55 -57 -99 -146 -159 -324 -24 -71 -65 -170 -91 -220
-102 -194 -133 -259 -254 -550 -38 -91 -64 -225 -64 -326 0 -80 -1 -79 135
-174 318 -222 739 -395 1226 -505 123 -27 292 -60 344 -66 218 -27 339 -36
508 -41 l198 -6 157 76 c86 41 225 101 307 132 83 32 156 62 163 67 24 20 12
63 -37 130 -187 257 -239 598 -137 902 35 104 33 106 -117 106 -221 0 -488 47
-547 97 -20 17 -36 22 -50 18 -26 -8 -307 135 -333 171 -10 13 -29 24 -41 24
-47 0 -395 257 -521 384 -75 76 -133 172 -141 232 -2 21 -9 43 -15 51 -13 15
-66 17 -92 2z m48 -116 c30 -80 92 -167 168 -240 94 -89 282 -235 420 -326 84
-56 107 -76 107 -94 0 -13 -4 -23 -10 -23 -15 0 -268 173 -357 244 -45 37
-106 93 -136 126 -30 33 -60 60 -67 60 -8 0 -27 -12 -42 -27 -30 -29 -73 -34
-144 -18 -31 7 -33 5 -67 -57 -46 -81 -91 -200 -117 -308 -25 -104 -39 -323
-21 -344 6 -7 33 -19 59 -26 105 -26 171 -146 126 -231 -11 -22 -12 -34 -5
-43 18 -21 254 -193 323 -235 35 -21 96 -50 136 -65 99 -35 112 -43 112 -67 0
-26 -16 -23 -145 28 -211 83 -447 207 -602 317 l-73 51 0 134 c0 157 19 294
65 478 37 147 179 600 202 648 13 26 42 65 48 65 1 0 10 -21 20 -47z m-138 10
c-8 -13 -143 -440 -176 -553 -66 -229 -110 -532 -98 -667 l6 -62 -57 -33 c-76
-44 -174 -88 -184 -82 -4 3 -8 47 -8 97 0 160 31 357 77 495 28 84 25 105 -14
100 -24 -2 -32 -12 -50 -59 -51 -130 -101 -486 -84 -607 4 -29 5 -54 2 -56 -3
-2 -58 -20 -121 -41 -63 -20 -121 -41 -127 -47 -16 -13 -17 12 -3 119 13 94
40 182 87 283 19 41 53 120 74 175 22 55 64 143 93 195 82 146 92 169 146 325
52 154 107 269 143 303 20 19 116 62 137 62 5 0 -2 -26 -16 -57 -158 -354
-221 -551 -245 -766 -11 -95 -11 -109 3 -123 20 -21 54 -10 62 19 3 12 6 44 6
70 0 123 73 379 174 614 108 251 125 288 143 295 24 9 35 9 30 1z m323 -419
c73 -74 223 -188 373 -284 77 -49 123 -85 124 -96 2 -12 -12 -31 -36 -49 -53
-42 -99 -104 -130 -177 -23 -55 -26 -78 -27 -182 l-1 -119 -54 -28 c-30 -15
-81 -50 -115 -77 l-61 -49 -29 20 c-16 12 -74 54 -129 94 l-101 73 4 63 c3 53
0 72 -21 113 -34 67 -89 121 -138 136 -23 6 -44 18 -47 26 -9 26 18 230 44
319 13 49 42 124 63 168 l38 80 55 -3 c37 -3 66 1 84 12 16 8 34 15 39 16 6 0
35 -25 65 -56z m798 -380 c92 -44 93 -45 88 -77 -3 -17 -8 -106 -11 -197 -6
-146 -18 -358 -41 -672 -4 -53 -10 -101 -13 -107 -7 -12 -155 24 -347 84
l-112 35 35 117 c89 309 184 724 180 795 0 7 1 41 1 75 l2 63 63 -36 c34 -20
104 -56 155 -80z m350 -114 c102 -19 379 -43 395 -33 11 7 9 -7 -15 -93 -29
-106 -32 -391 -5 -496 26 -105 73 -218 127 -309 28 -45 47 -85 44 -88 -11 -11
-430 -5 -524 7 -133 18 -264 42 -272 50 -4 4 -4 12 0 19 5 8 25 7 77 -3 95
-18 401 -48 420 -40 10 3 15 19 15 44 0 42 20 67 77 96 17 9 34 20 37 25 6 8
-7 88 -49 321 -9 47 -16 125 -16 175 -1 88 -1 90 -36 129 -19 21 -44 58 -55
83 l-19 44 -58 -7 c-67 -7 -166 8 -261 40 -60 20 -65 24 -68 54 l-3 32 41 -15
c23 -8 90 -24 148 -35z m-682 -135 c-23 -113 -32 -154 -58 -250 l-11 -40 -13
40 c-34 109 0 264 79 352 11 13 22 22 23 20 2 -1 -8 -56 -20 -122z m613 9 c54
-14 122 -24 162 -24 60 0 68 -2 74 -21 4 -11 19 -35 34 -52 25 -29 29 -42 34
-127 4 -52 20 -167 37 -255 16 -88 30 -163 30 -167 0 -4 -18 -19 -41 -34 -27
-17 -47 -39 -58 -66 l-16 -40 -95 7 c-95 7 -319 41 -329 50 -2 3 1 76 7 163 6
86 17 257 23 380 11 196 14 222 28 216 9 -3 58 -17 110 -30z m-1526 -388 c183
-121 426 -244 625 -316 34 -13 62 -24 62 -25 0 -1 -43 -32 -95 -70 -90 -63
-97 -66 -114 -51 -10 9 -27 16 -39 16 -27 0 -145 44 -175 65 -28 19 -51 19
-68 -1 -11 -13 -11 -20 1 -41 15 -26 27 -31 155 -74 39 -13 72 -25 74 -26 6
-4 -24 -27 -75 -58 l-40 -25 -100 31 c-153 48 -365 134 -517 211 -163 83 -368
214 -347 223 8 3 62 20 119 39 l104 34 56 -46 c121 -98 247 -164 400 -208 97
-28 121 -24 121 17 0 23 -3 25 -102 53 -46 14 -109 36 -142 51 -66 29 -204
116 -230 143 -16 18 -13 20 46 46 35 14 83 40 108 56 25 16 49 29 53 29 5 1
59 -32 120 -73z m811 -33 c-13 -49 -27 -98 -30 -111 -5 -17 -11 -21 -23 -16
-9 4 -45 18 -81 31 -36 13 -69 28 -73 32 -13 13 71 79 148 117 39 18 73 34 77
34 4 0 -4 -39 -18 -87z m300 -439 l109 -28 -26 -20 c-13 -12 -60 -43 -103 -70
-43 -28 -102 -69 -131 -93 -36 -29 -62 -43 -83 -43 -34 0 -352 63 -420 82
l-44 14 179 130 180 130 115 -37 c63 -20 164 -49 224 -65z m471 -95 c50 -6
171 -14 270 -18 l180 -6 -82 -32 c-70 -27 -100 -33 -205 -39 -80 -4 -161 -2
-233 7 -60 7 -128 13 -150 13 -38 1 -40 -1 -40 -29 0 -28 3 -30 60 -42 33 -7
118 -16 189 -19 l129 -7 -44 -23 c-38 -20 -59 -23 -149 -23 -101 -1 -416 23
-473 35 -15 3 -25 10 -21 15 3 5 62 47 132 93 70 46 135 92 145 103 17 19 19
19 110 2 50 -10 133 -23 182 -30z"/>
<path d="M1255 7824 c-108 -56 -145 -186 -86 -301 57 -113 198 -97 271 31 41
71 45 111 21 182 -28 79 -57 104 -124 104 -29 0 -65 -7 -82 -16z m126 -81 c33
-82 19 -146 -41 -197 -57 -48 -99 -29 -120 54 -23 87 34 170 117 170 27 0 36
-5 44 -27z"/>
<path d="M2361 7290 c-79 -19 -124 -88 -102 -160 53 -178 306 -162 314 19 3
91 -109 165 -212 141z m99 -85 c18 -9 31 -26 35 -46 16 -71 -83 -108 -139 -53
-31 32 -36 87 -8 103 25 15 79 13 112 -4z"/>
<path d="M8754 7362 c-6 -4 -33 -34 -59 -67 -147 -183 -306 -331 -470 -440
-267 -176 -758 -350 -1205 -426 -186 -32 -354 -15 -416 42 -50 46 -114 4 -122
-80 -7 -75 17 -130 153 -350 277 -448 397 -613 580 -797 118 -119 260 -234
289 -234 33 0 306 85 424 132 529 210 1158 629 1552 1034 178 182 390 462 390
513 0 29 -29 41 -98 41 -130 0 -320 49 -456 117 -182 91 -338 230 -443 393
-84 130 -93 140 -119 122z m71 -206 c188 -269 512 -466 825 -501 110 -12 106
-6 48 -88 -168 -236 -391 -462 -676 -684 -129 -101 -466 -327 -612 -411 -292
-166 -640 -314 -856 -362 -45 -10 -46 -10 -107 37 -218 168 -392 384 -688 858
-142 226 -211 357 -196 372 3 2 33 -6 68 -18 51 -18 92 -24 199 -27 116 -3
153 0 265 23 304 61 490 115 739 212 377 147 616 311 850 582 44 51 82 88 86
84 4 -4 28 -39 55 -77z"/>
<path d="M8608 6979 c-36 -61 -129 -147 -229 -212 -74 -48 -337 -187 -354
-187 -3 0 -31 -11 -61 -25 -275 -126 -748 -255 -937 -255 -34 0 -68 -4 -76 -9
-9 -6 -14 -30 -15 -71 -1 -58 -3 -63 -38 -93 -20 -18 -46 -39 -59 -48 l-23
-16 23 -64 c48 -131 130 -277 218 -386 92 -116 240 -253 272 -253 7 0 38 18
68 40 50 36 62 40 115 40 32 0 75 -7 96 -15 42 -18 82 -52 82 -71 0 -6 8 -22
18 -34 l18 -22 205 52 c243 62 304 84 418 150 47 27 129 68 181 91 132 58 173
86 445 304 230 185 525 462 525 494 0 7 -16 27 -35 44 -39 34 -44 63 -23 143
16 58 22 53 -206 181 -200 112 -244 141 -309 201 -47 44 -47 45 -125 46 -42 1
-98 6 -123 10 l-46 8 -25 -43z m203 -67 c22 3 42 -7 94 -49 65 -52 141 -99
352 -216 l101 -57 -10 -37 c-13 -46 -2 -115 22 -146 l19 -24 -132 -129 c-73
-71 -190 -176 -261 -234 l-129 -104 -71 18 c-39 10 -99 31 -133 46 l-61 28 15
43 c29 86 -12 184 -130 307 -69 72 -155 136 -236 177 l-53 26 98 56 c171 96
296 190 352 266 l33 44 52 -9 c28 -5 63 -8 78 -6z m-609 -448 c53 -26 178
-111 178 -120 0 -2 -13 2 -30 11 -16 8 -39 15 -52 15 -23 0 -35 -7 -129 -72
-30 -21 -59 -38 -65 -38 -6 0 -16 11 -22 25 -13 29 -52 34 -72 10 -28 -33 30
-125 78 -125 37 1 97 29 156 74 55 43 76 43 120 -3 27 -28 27 -30 11 -55 -17
-25 -17 -28 0 -46 23 -26 38 -25 71 4 21 17 28 33 28 59 0 28 3 34 12 26 21
-17 54 -93 54 -123 0 -54 -57 -116 -107 -116 -24 0 -43 -19 -43 -43 0 -27 107
-157 128 -157 46 0 54 46 17 94 -14 18 -25 35 -25 38 0 18 38 14 92 -11 35
-15 88 -36 118 -46 l54 -18 -34 -29 c-67 -56 -148 -105 -246 -148 -54 -23
-136 -65 -182 -91 -45 -27 -85 -49 -89 -49 -13 0 6 198 25 259 11 35 18 69 15
77 -3 8 -34 28 -69 45 -79 39 -175 136 -210 214 -69 151 -50 320 41 362 42 19
112 10 177 -23z m-339 -71 c-12 -47 -7 -155 12 -218 38 -133 142 -269 248
-325 33 -18 45 -30 41 -40 -15 -40 -34 -170 -34 -239 l0 -78 -72 -20 c-40 -12
-120 -33 -178 -47 l-106 -26 -50 48 c-60 58 -117 77 -222 76 -63 -1 -79 -5
-123 -33 l-51 -31 -51 42 c-114 96 -255 290 -322 445 l-34 78 40 39 c27 27 44
57 55 92 15 53 15 53 62 59 212 27 469 90 682 168 52 19 98 36 103 36 4 1 4
-11 0 -26z"/>
<path d="M8846 6730 c-51 -16 -103 -60 -130 -109 -67 -123 3 -231 149 -231 49
0 69 5 102 27 138 89 105 306 -48 319 -24 2 -57 -1 -73 -6z m111 -106 c25 -34
16 -83 -21 -120 -38 -38 -77 -44 -126 -19 -25 13 -30 22 -30 51 0 29 8 45 40
76 37 38 43 40 82 35 23 -3 48 -14 55 -23z"/>
<path d="M7499 6141 c-85 -45 -122 -179 -79 -280 40 -91 145 -161 244 -161 49
0 98 32 124 81 32 60 27 160 -11 236 -31 60 -60 85 -130 111 -83 31 -111 33
-148 13z m140 -103 c34 -16 48 -31 63 -66 26 -57 27 -136 3 -162 -39 -43 -146
-10 -192 59 -34 50 -32 129 3 171 30 35 45 35 123 -2z"/>
<path d="M5285 6859 c-430 -47 -925 -188 -1400 -398 -344 -153 -670 -360 -868
-552 -98 -94 -96 -104 24 -143 356 -115 637 -396 743 -742 15 -49 31 -96 35
-104 16 -30 47 -21 121 35 101 76 227 153 346 213 227 113 397 157 763 197
216 24 722 17 857 -13 112 -24 197 -64 247 -114 55 -56 106 -47 144 25 34 64
22 139 -60 402 -198 629 -306 869 -503 1122 l-65 83 -152 -1 c-84 -1 -188 -6
-232 -10z m392 -139 c114 -142 242 -388 336 -651 71 -197 208 -639 214 -691 3
-26 3 -54 -1 -63 -5 -15 -10 -14 -36 9 -69 58 -194 103 -345 126 -118 18 -566
24 -711 11 -303 -29 -515 -68 -674 -123 -130 -45 -321 -143 -458 -235 -106
-70 -125 -80 -129 -64 -12 48 -74 186 -113 255 -128 223 -360 425 -595 518
-47 18 -85 36 -85 40 0 14 210 175 338 259 569 374 1551 685 2132 675 l74 -1
53 -65z"/>
<path d="M5080 6639 c-247 -6 -271 -8 -355 -33 -49 -14 -142 -35 -206 -46
-143 -25 -172 -35 -439 -152 -267 -118 -349 -159 -520 -260 -187 -111 -199
-123 -160 -168 34 -39 34 -58 -1 -126 -39 -77 -59 -45 181 -284 97 -96 194
-202 216 -234 38 -58 41 -60 104 -76 36 -8 83 -26 103 -38 21 -12 43 -22 49
-22 6 0 32 20 58 44 55 51 130 91 250 134 101 35 286 80 379 92 36 5 111 15
166 24 307 47 724 47 904 1 64 -16 91 -7 91 31 0 55 59 124 106 124 45 0 57
26 49 109 -20 217 -127 490 -263 673 -41 55 -53 57 -131 27 -46 -17 -61 -19
-103 -10 -27 6 -62 18 -77 26 -37 19 -79 69 -87 103 -12 54 -15 60 -32 63 -9
2 -136 1 -282 -2z m235 -101 c37 -126 242 -217 367 -164 l36 16 50 -78 c93
-145 149 -282 181 -439 27 -132 27 -138 -8 -153 -38 -15 -91 -68 -107 -106
l-13 -30 -88 14 c-110 17 -517 19 -662 3 -57 -7 -105 -11 -107 -9 -2 3 6 29
17 59 64 166 17 387 -114 534 l-53 59 22 41 c33 58 71 163 79 217 5 31 13 48
24 51 9 3 96 5 193 6 175 1 177 1 183 -21z m-492 -54 c-18 -69 -53 -150 -87
-201 -14 -20 -26 -44 -26 -52 0 -8 28 -42 63 -76 100 -97 148 -205 148 -335 1
-195 -100 -301 -228 -239 -49 24 -171 137 -193 180 -13 23 -12 24 7 7 35 -32
72 -32 155 1 93 38 106 38 114 6 14 -57 84 -52 84 6 0 49 -25 97 -55 105 -33
8 -127 -12 -177 -37 -51 -26 -61 -24 -97 16 -36 42 -37 49 -11 75 12 12 17 26
13 37 -21 58 -97 34 -118 -37 -8 -25 -8 -25 -21 10 -41 113 14 200 125 200 58
0 62 25 17 126 -33 76 -36 79 -68 79 -28 0 -33 -4 -36 -27 -2 -15 4 -41 13
-59 14 -26 15 -33 3 -40 -20 -13 -20 -13 -87 41 -35 28 -81 61 -102 73 -21 12
-39 25 -39 28 0 13 182 79 258 93 45 9 117 23 160 31 44 8 97 21 118 29 21 8
49 15 61 15 21 1 21 0 6 -55z m-535 -265 c28 -22 52 -42 52 -44 0 -2 -9 -22
-21 -45 -30 -57 -34 -108 -14 -176 35 -120 112 -243 221 -351 l72 -71 -92 -22
c-180 -44 -360 -119 -429 -179 l-34 -30 -59 24 c-32 14 -66 25 -76 25 -9 0
-39 31 -67 69 -29 38 -124 139 -211 224 l-160 153 20 39 c21 42 26 108 11 148
-9 23 -3 28 131 108 78 45 217 117 310 160 l169 77 62 -35 c34 -19 86 -52 115
-74z"/>
<path d="M5219 6217 c-75 -49 -103 -180 -65 -295 14 -43 28 -60 70 -92 73 -55
116 -72 156 -60 52 15 100 59 126 114 43 93 28 187 -43 266 -78 87 -175 113
-244 67z m151 -96 c19 -16 44 -43 54 -61 37 -63 18 -157 -40 -195 -26 -17 -29
-17 -61 1 -48 25 -91 77 -99 119 -17 91 29 184 84 170 15 -3 43 -19 62 -34z"/>
<path d="M3885 5865 c-79 -28 -146 -133 -130 -204 29 -133 196 -174 306 -74
57 51 72 86 66 147 -4 42 -10 55 -44 87 -39 36 -94 59 -138 59 -11 -1 -38 -7
-60 -15z m143 -110 c27 -32 23 -57 -17 -98 -39 -40 -99 -47 -140 -18 -44 31
-42 72 4 118 33 33 39 35 82 30 35 -4 53 -12 71 -32z"/>
<path d="M1117 5976 c-10 -8 -28 -52 -43 -107 -81 -307 -303 -563 -585 -676
-109 -43 -111 -50 -35 -136 152 -175 314 -448 301 -507 -5 -21 -1 -32 13 -42
11 -7 28 -39 37 -70 29 -100 63 -276 58 -301 -3 -14 2 -35 10 -48 24 -37 41
-239 41 -484 1 -201 -1 -226 -22 -292 -12 -39 -38 -92 -57 -117 -19 -26 -35
-52 -35 -60 0 -15 48 -66 62 -66 6 0 17 -9 26 -19 24 -28 333 -191 373 -197
62 -9 191 23 361 89 112 44 209 75 290 92 106 21 235 58 518 147 117 37 232
102 318 182 l43 40 -6 85 c-36 466 -210 980 -499 1475 -42 71 -76 134 -76 139
0 6 -9 20 -19 31 -11 12 -55 74 -99 139 -90 134 -244 336 -300 394 -25 26 -65
49 -122 72 -98 39 -309 143 -422 207 -82 47 -102 51 -131 30z m244 -339 c90
-111 152 -202 227 -329 43 -73 49 -88 37 -98 -12 -10 -18 -6 -32 20 -37 69
-225 346 -250 368 -23 21 -27 22 -47 7 -52 -38 -64 -40 -117 -17 -28 11 -57
18 -65 15 -9 -3 -73 -77 -144 -163 -71 -87 -158 -184 -193 -215 -59 -51 -65
-60 -70 -105 -3 -27 -13 -62 -21 -79 -24 -45 -20 -69 19 -102 43 -38 96 -124
136 -220 l30 -73 -23 -17 c-22 -17 -22 -17 -73 84 -56 112 -121 213 -213 329
l-60 75 68 32 c106 51 188 109 283 201 132 126 218 265 277 444 l22 68 65 -63
c36 -35 101 -108 144 -162z m157 44 c85 -89 167 -194 219 -281 20 -34 43 -64
51 -67 22 -9 45 22 39 50 -8 30 -89 154 -150 229 -26 32 -47 60 -47 63 0 3 22
-6 48 -19 28 -14 70 -50 99 -83 79 -92 303 -400 303 -417 0 -9 -57 4 -176 40
-62 18 -130 36 -153 40 -39 6 -43 11 -87 88 -26 44 -81 131 -122 191 -66 97
-99 140 -226 291 l-28 34 78 -42 c57 -30 100 -63 152 -117z m-288 -176 c25 0
54 3 65 7 17 6 32 -10 101 -110 107 -154 150 -231 138 -247 -7 -11 -560 -429
-593 -449 -5 -3 -31 40 -59 97 -27 56 -68 123 -90 148 l-41 46 15 48 c7 27 14
56 14 66 0 9 32 48 71 86 39 37 108 113 152 168 122 152 127 157 157 148 14
-4 45 -8 70 -8z m634 -374 c51 -16 134 -38 185 -47 l93 -18 50 -86 c73 -122
191 -350 181 -350 -4 1 -102 24 -217 53 l-209 52 -52 120 c-28 66 -70 160 -93
209 -23 49 -42 90 -42 92 0 7 13 4 104 -25z m-121 -118 c88 -186 129 -285 120
-293 -4 -4 -89 -44 -188 -90 -318 -145 -526 -260 -675 -372 l-65 -49 -22 98
c-12 54 -31 127 -43 163 l-20 65 27 23 c147 122 777 592 793 592 4 0 36 -62
73 -137z m189 -448 c79 -214 147 -504 167 -705 11 -110 15 -102 -104 -200
-135 -111 -313 -216 -525 -310 -199 -89 -463 -198 -509 -210 -69 -18 -72 -11
-31 74 21 42 43 104 50 138 22 113 10 539 -21 712 -9 50 -8 61 7 77 10 11 21
16 25 12 28 -30 60 -516 41 -628 -12 -75 -3 -95 43 -95 42 0 85 -34 101 -81
11 -33 13 -34 61 -32 62 3 225 54 318 100 134 67 305 196 305 229 0 8 -9 32
-20 54 -25 49 -25 112 -1 166 20 44 63 84 91 84 38 0 42 21 30 177 -15 220
-27 292 -66 404 -29 82 -33 103 -22 110 23 15 30 5 60 -76z m176 55 c75 -17
101 -27 98 -37 -3 -7 10 -45 29 -84 19 -40 40 -96 46 -125 14 -63 29 -80 57
-65 23 12 37 58 24 74 -5 7 -17 37 -27 67 -10 30 -26 72 -36 92 -13 25 -15 36
-7 33 7 -2 39 -11 70 -20 66 -18 69 -22 136 -191 97 -243 160 -473 193 -698
11 -80 19 -151 17 -156 -2 -6 -51 19 -109 55 l-107 65 -4 118 c-6 133 -29 234
-83 365 -38 90 -64 123 -90 113 -30 -11 -27 -38 13 -124 49 -107 80 -229 89
-345 l6 -87 -44 24 c-24 13 -79 36 -121 51 l-77 27 -6 67 c-24 247 -106 586
-191 795 -6 15 -4 18 7 14 8 -3 60 -15 117 -28z m-287 -100 c39 -104 39 -104
-19 -96 -53 7 -157 45 -193 70 -22 15 -20 16 72 60 52 24 98 43 103 42 5 -1
21 -35 37 -76z m-289 -68 c-66 -92 -177 -154 -287 -160 l-70 -3 60 37 c78 47
307 165 313 159 2 -2 -5 -17 -16 -33z m168 -76 c41 -14 96 -27 121 -31 l47 -6
5 -47 c4 -26 9 -100 13 -164 6 -105 5 -118 -10 -118 -28 0 -93 -74 -109 -126
-29 -91 -30 -128 -7 -181 l21 -48 -28 -23 c-54 -45 -193 -133 -255 -161 -65
-30 -219 -81 -242 -81 -7 0 -25 17 -39 38 -14 22 -43 47 -66 58 l-40 19 -4
220 c-4 155 -11 260 -26 355 -22 142 -20 157 24 145 142 -39 323 15 436 130
33 34 60 54 69 51 8 -3 49 -16 90 -30z m521 -695 c30 -10 83 -33 119 -51 l65
-33 -53 -48 c-112 -102 -346 -247 -489 -301 -74 -28 -50 -92 24 -68 131 42
395 205 514 317 l66 62 99 -61 c54 -33 110 -64 123 -67 22 -6 20 -9 -32 -49
-87 -65 -173 -108 -287 -142 -58 -17 -152 -47 -210 -65 -58 -19 -170 -48 -250
-65 -104 -22 -187 -47 -292 -90 -254 -102 -332 -113 -430 -57 l-58 33 173 52
c299 92 494 178 655 292 71 50 85 73 60 98 -19 19 -29 15 -103 -39 -108 -79
-324 -180 -519 -242 -327 -106 -353 -113 -375 -103 -12 5 -21 12 -21 15 0 3
40 21 88 40 276 107 572 244 734 340 91 53 245 169 292 220 35 36 37 37 107
12z"/>
<path d="M993 5249 c-80 -51 -65 -205 27 -266 43 -30 117 -31 152 -3 81 64 75
207 -11 266 -46 31 -122 33 -168 3z m138 -78 c31 -31 37 -67 18 -104 -25 -46
-63 -49 -102 -9 -82 85 0 196 84 113z"/>
<path d="M1413 4119 c-84 -16 -127 -51 -166 -136 -30 -66 -25 -95 24 -144 110
-110 295 -50 348 114 23 69 -25 147 -101 162 -18 4 -40 8 -48 10 -8 1 -34 -1
-57 -6z m121 -88 c22 -18 20 -59 -4 -99 -46 -75 -144 -96 -202 -42 l-33 29 26
48 c33 62 76 85 146 80 28 -2 59 -9 67 -16z"/>
<path d="M8500 4826 c-341 -230 -683 -582 -1013 -1041 -272 -380 -476 -790
-563 -1132 -27 -106 -28 -114 -12 -129 16 -16 24 -16 130 12 106 27 125 29
298 28 158 0 197 -3 263 -22 177 -49 337 -131 465 -240 92 -78 105 -73 148 48
46 128 151 342 217 443 116 178 275 340 552 562 142 114 414 289 574 370 134
67 294 97 383 71 39 -12 78 29 78 81 -1 91 -48 143 -340 380 -344 278 -522
402 -723 502 -117 58 -310 131 -345 131 -9 0 -60 -29 -112 -64z m217 -57 c185
-65 396 -185 628 -358 178 -133 502 -399 548 -450 56 -63 52 -71 -41 -71 -109
0 -212 -29 -342 -96 -135 -68 -383 -223 -505 -314 -126 -94 -367 -303 -448
-390 -162 -171 -298 -394 -397 -645 -13 -33 -26 -63 -29 -67 -4 -4 -31 11 -61
33 -133 100 -277 168 -460 217 -84 22 -115 25 -270 25 -130 1 -194 -3 -248
-16 -40 -9 -77 -17 -82 -17 -9 0 32 140 75 259 234 642 885 1480 1449 1867 44
30 83 54 87 54 4 0 47 -14 96 -31z"/>
<path d="M8830 4560 c-69 -107 -213 -133 -301 -53 -21 19 -45 33 -52 30 -8 -3
-94 -58 -193 -123 -170 -112 -188 -127 -366 -306 -103 -104 -203 -208 -222
-231 -18 -23 -103 -150 -187 -282 -159 -247 -352 -611 -347 -649 2 -13 18 -28
40 -38 51 -24 68 -53 68 -114 0 -34 5 -56 15 -64 8 -7 93 -27 187 -46 252 -48
347 -72 409 -100 57 -27 76 -27 144 0 22 8 58 15 80 16 52 0 85 23 85 59 0 44
72 179 147 276 253 326 831 778 1131 885 73 27 87 45 66 84 -25 49 -18 110 16
149 17 19 30 43 30 54 0 11 -29 54 -65 96 -138 162 -327 297 -534 381 -96 39
-113 36 -151 -24z m195 -90 c151 -72 322 -199 413 -307 l41 -50 -25 -49 c-21
-40 -25 -60 -22 -105 l4 -57 -80 -36 c-132 -59 -385 -224 -559 -364 -43 -35
-79 -62 -80 -60 -2 1 -10 35 -20 73 -10 39 -32 94 -50 124 -69 114 -223 224
-352 251 -50 10 -55 14 -59 43 -21 145 -31 184 -70 278 -6 13 25 37 136 111
79 52 149 98 156 102 8 5 32 -2 60 -17 62 -33 119 -41 186 -26 79 17 137 50
171 96 35 48 33 48 150 -7z m-905 -377 c12 -38 24 -110 27 -160 3 -51 11 -97
17 -102 7 -6 43 -15 81 -21 90 -14 180 -58 250 -121 109 -100 163 -272 109
-346 -29 -39 -80 -63 -137 -63 -53 0 -173 25 -221 46 l-31 13 38 1 c55 0 71
12 121 89 51 80 61 88 84 68 38 -33 82 -24 82 16 0 31 -62 90 -94 90 -37 0
-91 -45 -134 -111 -20 -32 -41 -60 -45 -63 -11 -8 -64 4 -95 20 -18 10 -20 15
-12 31 25 46 -32 80 -72 43 -20 -18 -24 -73 -7 -105 l11 -21 -30 21 c-16 12
-44 38 -62 58 -29 33 -32 42 -27 83 4 39 12 52 52 87 31 27 46 48 43 60 -4 23
-135 113 -163 114 -26 0 -45 -18 -45 -41 0 -14 46 -57 78 -75 1 0 0 -8 -3 -16
-5 -12 -27 -14 -133 -10 -70 2 -129 6 -131 8 -2 1 18 34 44 71 44 63 361 401
377 403 4 0 17 -30 28 -67z m-282 -501 l44 -7 4 -47 c5 -64 23 -96 90 -157 90
-82 321 -181 424 -181 15 0 30 -3 33 -7 4 -3 -22 -38 -57 -77 -137 -154 -239
-308 -261 -398 -6 -22 -14 -28 -48 -33 -23 -4 -58 -14 -77 -21 -33 -13 -41
-12 -117 15 -44 17 -178 49 -296 72 l-215 41 -6 40 c-9 53 -32 98 -64 125
l-25 21 54 118 c52 113 114 222 229 406 52 82 57 87 95 91 67 6 148 6 193 -1z"/>
<path d="M8664 4176 c-65 -29 -97 -111 -75 -193 16 -58 69 -132 119 -168 41
-28 49 -30 137 -30 85 0 96 2 119 24 39 37 60 101 53 167 -13 131 -113 214
-256 214 -36 -1 -80 -7 -97 -14z m171 -85 c64 -28 95 -73 95 -132 0 -80 -9
-89 -89 -89 -65 0 -70 2 -106 37 -75 73 -88 174 -25 196 31 11 86 6 125 -12z"/>
<path d="M7785 3150 c-92 -21 -147 -86 -152 -178 -5 -68 22 -123 77 -160 77
-52 195 -8 245 91 72 145 -22 283 -170 247z m88 -92 c16 -13 22 -40 19 -85 -1
-12 -16 -38 -33 -58 -25 -29 -38 -35 -69 -35 -48 0 -70 27 -70 85 1 61 44 104
106 105 16 0 38 -6 47 -12z"/>
<path d="M4277 4589 c-92 -32 -232 -75 -310 -96 -78 -20 -148 -41 -154 -46
-23 -17 -14 -64 27 -133 92 -158 135 -339 127 -534 -6 -141 -27 -237 -82 -365
-20 -45 -33 -89 -29 -98 4 -11 24 -18 62 -22 274 -30 543 -103 598 -162 12
-12 31 -23 43 -23 31 0 68 -21 202 -111 66 -45 119 -88 122 -99 3 -12 14 -20
27 -20 27 0 116 -70 271 -216 235 -220 329 -352 329 -464 0 -55 30 -85 74 -75
17 4 43 7 58 7 15 -1 109 21 210 49 180 49 184 50 231 97 62 61 102 127 180
298 42 93 95 186 159 280 53 78 111 171 128 205 18 35 54 101 82 146 58 98
100 188 121 263 21 74 39 209 30 224 -5 7 -41 43 -82 80 -323 294 -809 548
-1351 707 -74 22 -139 44 -144 49 -6 6 -23 10 -38 10 -16 0 -90 14 -166 31
-177 39 -432 79 -502 78 -40 0 -100 -16 -223 -60z m478 -45 c194 -33 300 -57
299 -69 -1 -6 -63 -42 -138 -81 -75 -40 -145 -79 -156 -89 -17 -15 -23 -15
-101 9 -168 51 -354 88 -564 112 l-60 7 75 24 c67 21 86 23 185 18 125 -7 248
-26 350 -54 78 -22 108 -15 103 22 -4 28 -93 58 -251 85 -94 17 -108 21 -87
29 14 6 32 13 40 16 23 10 141 -1 305 -29z m575 -134 c121 -35 298 -95 308
-104 1 -2 -59 -38 -135 -81 -76 -43 -162 -93 -191 -112 l-53 -33 -42 21 c-23
12 -118 53 -210 90 -93 37 -171 69 -173 72 -2 2 42 27 98 55 57 28 130 69 163
91 33 22 68 40 78 40 10 1 81 -17 157 -39z m-1097 -76 c196 -29 467 -98 467
-120 0 -23 -15 -23 -100 2 -47 13 -154 38 -238 54 -168 33 -182 32 -182 -21 0
-37 -28 -65 -79 -79 -30 -8 -42 -17 -47 -35 -3 -13 2 -114 11 -224 13 -156 14
-217 5 -277 l-10 -77 34 -51 c19 -28 38 -63 41 -78 10 -39 21 -45 107 -51 58
-4 102 -16 180 -47 57 -22 106 -44 110 -48 4 -4 4 -19 0 -33 l-7 -26 -72 28
c-99 40 -287 87 -402 101 -53 6 -97 13 -99 14 -2 1 8 34 22 73 104 288 94 564
-30 830 l-44 94 117 -7 c65 -4 162 -14 216 -22z m1584 -98 c196 -84 446 -221
593 -324 107 -75 251 -195 243 -202 -5 -4 -59 -17 -121 -29 l-113 -22 -88 83
c-99 93 -224 172 -345 219 -83 32 -107 31 -114 -5 -4 -21 15 -46 36 -46 24 0
194 -84 258 -127 65 -45 164 -130 164 -143 0 -4 -14 -10 -31 -14 -17 -3 -71
-22 -120 -41 l-88 -36 -94 78 c-174 144 -322 242 -545 360 l-113 60 102 58
c60 34 104 53 108 47 3 -5 35 -22 71 -36 36 -15 91 -43 123 -62 32 -20 65 -33
73 -30 22 8 28 34 15 59 -10 20 -116 77 -195 107 -16 6 -27 12 -25 14 5 5 121
66 125 66 1 0 38 -15 81 -34z m-1423 -46 c100 -20 255 -62 275 -74 5 -4 5 -22
0 -44 -7 -32 -53 -308 -109 -646 -5 -32 -11 -61 -13 -63 -2 -2 -28 8 -58 21
-85 37 -187 66 -235 66 -41 0 -45 2 -65 43 -12 23 -26 48 -32 56 -7 8 -12 71
-12 165 0 83 -5 204 -9 268 l-9 116 34 15 c38 16 89 70 89 93 0 10 6 14 18 10
9 -2 66 -14 126 -26z m487 -29 c100 -37 319 -128 327 -136 2 -2 -31 -90 -73
-197 -138 -347 -207 -562 -236 -738 -7 -41 -13 -77 -15 -78 -1 -2 -54 30 -116
71 -62 42 -125 81 -140 88 -16 7 -28 15 -28 19 0 4 14 96 30 206 63 411 133
804 144 804 2 0 50 -17 107 -39z m506 -222 c225 -118 399 -231 559 -364 l96
-80 -6 -100 c-10 -162 -65 -376 -156 -605 -87 -218 -233 -537 -258 -563 l-27
-28 -21 69 c-27 90 -68 161 -147 252 -71 84 -249 253 -380 361 -73 61 -87 77
-87 101 l0 30 43 -31 c153 -113 388 -341 440 -428 21 -36 55 -44 77 -19 6 8
27 20 46 26 30 10 40 9 74 -9 22 -11 46 -18 54 -15 17 7 94 121 134 200 68
134 122 334 122 449 l0 52 -47 18 c-58 21 -89 48 -114 97 -23 44 -25 116 -4
144 8 10 15 26 15 36 0 18 -211 216 -305 286 -33 25 -85 57 -115 71 -118 58
-121 60 -110 81 6 11 12 20 15 20 2 0 48 -23 102 -51z m-64 -104 c42 -22 76
-44 74 -50 -6 -18 -111 -75 -176 -95 -35 -11 -65 -19 -66 -18 -5 6 79 208 84
206 3 -2 41 -21 84 -43z m209 -142 c29 -25 81 -72 116 -104 l62 -59 -11 -46
c-26 -100 40 -237 132 -278 l50 -21 -7 -50 c-17 -141 -77 -313 -152 -438 -34
-57 -50 -76 -62 -71 -35 14 -88 15 -127 1 l-41 -14 -36 48 c-54 70 -225 231
-359 338 -72 57 -117 100 -117 111 0 11 18 29 44 44 122 72 220 269 203 412
-4 40 -2 47 15 52 32 8 151 69 188 96 19 14 38 25 42 26 4 0 31 -21 60 -47z
m1157 -170 c-27 -110 -50 -162 -126 -288 -33 -55 -76 -131 -96 -170 -19 -38
-67 -115 -107 -170 -45 -63 -107 -174 -170 -301 -121 -247 -154 -287 -252
-314 -38 -10 -68 -16 -68 -13 0 4 29 56 64 117 179 313 252 486 292 693 17 89
12 113 -22 113 -28 0 -37 -19 -48 -93 -25 -166 -135 -421 -311 -720 -41 -70
-75 -132 -75 -138 0 -5 -6 -9 -14 -9 -8 0 -21 -3 -29 -6 -10 -4 4 38 40 118
168 375 249 583 293 753 27 108 50 240 50 295 0 71 8 85 58 110 46 22 178 70
194 70 13 0 9 -87 -7 -178 -21 -124 -61 -266 -101 -362 -46 -110 -52 -138 -29
-146 26 -10 47 7 74 61 71 144 141 428 141 575 l0 67 108 22 c59 13 118 26
132 30 35 11 36 -9 9 -116z m-1539 25 c0 -60 -6 -100 -22 -145 -22 -64 -108
-187 -116 -165 -8 24 114 392 130 392 4 0 8 -37 8 -82z"/>
<path d="M4293 3899 c-44 -22 -83 -82 -83 -128 0 -81 112 -161 201 -145 123
23 159 143 71 238 -54 57 -119 70 -189 35z m134 -85 c54 -60 34 -114 -42 -114
-57 0 -95 30 -95 74 0 72 87 97 137 40z"/>
<path d="M5357 3331 c-58 -37 -107 -118 -107 -177 0 -56 26 -137 51 -160 16
-15 36 -19 88 -19 58 0 74 4 109 29 57 39 87 103 86 182 -1 149 -110 219 -227
145z m128 -61 c26 -29 32 -118 11 -159 -28 -53 -105 -87 -143 -63 -7 4 -17 29
-23 56 -14 64 -1 104 51 150 44 41 77 45 104 16z"/>
<path d="M3414 3362 c-7 -4 -26 -49 -43 -99 -38 -114 -67 -174 -139 -283 -139
-210 -375 -382 -617 -451 -44 -13 -86 -27 -92 -32 -23 -17 -13 -49 36 -116 90
-122 161 -240 221 -363 102 -214 137 -348 181 -688 37 -284 28 -779 -17 -955
-23 -91 -70 -181 -109 -211 -43 -33 -50 -55 -30 -94 25 -48 92 -74 169 -67 87
9 636 180 860 269 219 87 467 228 584 333 l52 47 0 93 c0 709 -336 1727 -768
2329 -89 123 -240 296 -260 296 -9 0 -22 -4 -28 -8z m195 -309 c213 -286 392
-645 543 -1092 144 -425 214 -768 225 -1102 l6 -177 -83 -61 c-239 -178 -513
-294 -1134 -481 -124 -37 -183 -50 -217 -48 l-48 3 39 57 c102 153 137 380
127 841 -12 587 -109 948 -354 1315 -43 64 -78 121 -78 126 0 4 20 15 45 23
149 49 332 159 455 275 123 115 266 334 307 470 l12 41 40 -44 c21 -24 73 -90
115 -146z"/>
<path d="M3205 2756 c-111 -113 -208 -201 -252 -230 -68 -46 -71 -49 -81 -101
-6 -30 -23 -77 -37 -104 -14 -28 -25 -55 -25 -60 0 -5 18 -29 41 -53 85 -91
178 -340 214 -573 9 -60 21 -130 26 -155 37 -175 52 -692 24 -870 -8 -52 -19
-109 -24 -127 -12 -39 9 -73 45 -73 56 0 114 -55 114 -108 0 -10 8 -27 19 -36
16 -15 28 -16 107 -6 221 27 417 100 611 226 103 66 109 78 82 141 -25 58 -27
93 -9 157 19 67 73 123 128 132 26 4 47 14 52 25 13 23 13 367 0 484 -5 50
-19 119 -30 155 -11 36 -31 128 -45 205 -30 172 -35 188 -179 510 -108 241
-278 562 -326 613 -26 27 -34 27 -70 0 -38 -27 -80 -26 -135 6 -24 14 -49 26
-56 26 -7 0 -95 -83 -194 -184z m246 64 c48 -21 103 -25 142 -11 24 9 28 4
110 -137 80 -137 227 -445 227 -475 0 -15 -88 -158 -124 -201 l-24 -29 -53 27
c-61 30 -104 32 -180 10 -121 -36 -255 -121 -352 -223 -32 -33 -60 -55 -62
-48 -2 7 -9 37 -15 67 -35 157 -110 343 -177 434 l-28 39 26 80 c25 74 30 81
81 114 29 20 127 111 218 204 91 93 166 169 166 169 1 0 21 -9 45 -20z m572
-824 c24 -61 44 -137 57 -217 11 -68 31 -164 45 -213 14 -49 23 -91 22 -92
-13 -14 -208 64 -267 106 -15 11 -36 20 -45 20 -9 0 -45 -29 -78 -64 -95 -97
-207 -146 -338 -146 -86 0 -162 24 -207 64 -32 29 -36 40 -40 92 -3 53 0 64
28 106 32 48 113 128 173 170 l32 23 -27 -34 c-35 -41 -36 -90 -4 -162 13 -30
27 -66 30 -81 5 -23 2 -27 -24 -33 -35 -8 -50 -46 -29 -71 16 -20 77 -14 114
10 35 23 34 97 -4 192 -31 81 -29 91 25 124 l35 22 20 -21 c25 -26 41 -27 64
-1 17 19 18 22 2 55 -10 20 -26 36 -39 39 -13 3 -32 7 -43 9 -32 6 29 29 92
35 84 7 122 -28 133 -122 8 -72 22 -76 115 -36 110 48 129 73 81 105 -23 15
-27 15 -65 -4 -50 -26 -51 -26 -51 0 0 11 20 44 43 74 24 29 57 74 73 99 16
25 31 46 34 46 3 0 22 -42 43 -94z m42 -592 c39 -9 76 -18 83 -20 9 -3 12 -50
12 -192 l0 -189 -41 -18 c-115 -52 -191 -239 -143 -353 15 -36 15 -37 -12 -59
-121 -97 -403 -206 -581 -226 -47 -5 -52 -4 -57 16 -9 36 -64 94 -104 112
l-38 17 13 72 c20 113 27 411 14 605 -7 95 -10 175 -8 177 2 2 27 -5 56 -16
164 -63 386 -14 529 115 l55 51 76 -38 c42 -20 108 -45 146 -54z"/>
<path d="M3270 2554 c-89 -31 -116 -59 -126 -136 -9 -61 11 -122 54 -170 63
-70 140 -87 203 -45 91 61 113 180 51 275 -30 46 -138 91 -182 76z m97 -119
c33 -33 35 -39 30 -81 -11 -105 -105 -116 -156 -17 -17 33 -13 72 10 104 29
42 71 39 116 -6z"/>
<path d="M3512 1154 c-31 -11 -54 -31 -82 -68 -58 -77 -71 -113 -56 -157 56
-162 256 -199 389 -71 106 102 102 229 -8 286 -52 27 -181 32 -243 10z m195
-83 c22 -11 44 -28 47 -39 13 -41 -36 -117 -96 -148 -15 -8 -50 -14 -79 -14
-46 0 -55 4 -90 39 -22 21 -39 43 -39 49 0 21 67 98 100 114 45 23 104 22 157
-1z"/>
<path d="M7645 2124 c-258 -212 -536 -346 -845 -408 -324 -64 -390 -71 -750
-71 -361 0 -390 3 -506 55 -37 16 -69 40 -83 59 -18 25 -30 31 -57 31 -73 0
-114 -94 -90 -206 13 -64 156 -460 238 -664 125 -308 277 -564 432 -728 38
-40 43 -42 96 -42 244 0 641 77 980 190 656 219 1162 499 1533 850 78 74 97
97 97 120 0 27 -4 30 -87 55 -119 35 -135 41 -236 93 -263 133 -462 365 -556
645 -26 76 -30 82 -57 84 -23 2 -46 -11 -109 -63z m114 -129 c134 -319 403
-571 734 -686 37 -13 67 -27 67 -30 0 -9 -128 -122 -225 -199 -486 -385 -1362
-744 -2015 -825 -68 -8 -157 -15 -197 -15 l-72 0 -59 72 c-123 151 -236 347
-335 579 -45 105 -206 536 -246 658 -19 58 -28 131 -16 131 2 0 33 -15 67 -34
137 -75 255 -96 528 -96 313 0 527 22 844 86 287 58 546 178 796 368 47 35 88
65 91 65 3 1 20 -33 38 -74z"/>
<path d="M7511 1848 c-156 -167 -663 -308 -1254 -349 -166 -12 -292 -8 -431
13 -73 11 -79 11 -92 -7 -8 -10 -14 -34 -14 -53 0 -43 -54 -102 -94 -102 -47
0 -57 -32 -40 -132 28 -175 105 -370 205 -523 71 -109 118 -165 139 -165 10 0
43 12 73 26 51 23 61 24 113 15 92 -17 164 -77 164 -137 0 -44 18 -47 213 -40
239 9 330 21 441 56 50 16 152 43 226 59 131 29 144 35 445 185 375 187 655
360 655 405 0 15 -9 34 -20 44 -30 25 -30 72 1 125 35 61 29 72 -98 184 -169
148 -279 256 -321 313 -45 62 -44 61 -104 68 -27 4 -74 18 -105 32 -30 14 -57
25 -59 25 -1 0 -21 -19 -43 -42z m184 -98 c15 0 34 -11 48 -27 85 -101 128
-144 252 -255 181 -162 171 -147 150 -203 -17 -42 -17 -106 -1 -145 9 -21
-225 -172 -432 -278 l-166 -85 -72 37 c-40 21 -94 53 -119 72 l-46 35 20 32
c30 49 35 97 17 168 -31 120 -146 289 -260 382 l-55 45 128 41 c153 50 309
125 370 179 l45 39 48 -19 c27 -10 59 -18 73 -18z m-736 -282 c44 -21 207
-175 197 -186 -3 -3 -14 2 -24 11 -35 32 -76 32 -144 -1 -35 -17 -75 -34 -91
-37 -24 -6 -29 -4 -38 23 -14 40 -45 51 -71 24 -19 -19 -19 -23 -6 -63 8 -23
26 -52 41 -63 24 -18 31 -18 79 -8 28 7 78 24 110 39 l59 26 25 -24 c40 -38
48 -58 30 -78 -22 -24 -20 -58 3 -71 38 -20 87 15 97 68 l7 36 18 -45 c44
-109 -2 -199 -104 -199 -68 0 -73 -34 -19 -135 30 -56 42 -71 63 -73 15 -2 31
4 39 13 11 14 10 23 -8 61 -26 53 -26 50 -6 58 10 4 40 -12 83 -43 36 -27 83
-57 104 -67 20 -10 37 -21 37 -24 0 -20 -191 -93 -313 -120 -72 -16 -165 -41
-206 -55 -41 -14 -76 -25 -78 -25 -2 0 -3 11 -3 24 0 40 40 158 76 223 19 34
34 68 34 76 0 7 -26 34 -58 59 -126 98 -195 268 -171 421 12 72 48 141 87 161
39 22 99 19 151 -6z m-304 -60 c-26 -63 -31 -199 -11 -278 24 -97 74 -186 141
-257 l60 -62 -27 -58 c-23 -49 -36 -93 -74 -249 -2 -11 -50 -15 -321 -27 -60
-3 -63 -2 -72 23 -39 113 -233 193 -356 146 -24 -10 -49 -15 -55 -11 -19 12
-107 149 -147 230 -48 95 -87 200 -108 291 -22 93 -20 111 13 128 38 20 78 65
96 107 l15 36 58 -9 c85 -14 514 -1 668 20 72 10 132 17 134 15 2 -1 -4 -21
-14 -45z"/>
<path d="M7642 1547 c-124 -47 -180 -190 -105 -269 76 -80 188 -87 269 -16 40
36 59 68 68 120 9 50 -24 128 -65 152 -38 22 -124 29 -167 13z m111 -88 c50
-27 51 -77 2 -126 -33 -33 -39 -35 -81 -30 -52 5 -84 30 -84 64 0 73 96 127
163 92z"/>
<path d="M6219 1237 c-59 -40 -93 -99 -97 -173 -6 -86 15 -139 77 -198 85 -79
166 -97 232 -52 48 33 72 86 77 168 6 89 -17 156 -68 202 -84 76 -160 94 -221
53z m127 -89 c58 -39 78 -75 78 -143 2 -133 -75 -166 -171 -73 -64 62 -67 151
-8 213 18 19 37 35 43 35 5 0 32 -15 58 -32z"/>
</g>
</svg>
