<svg width="649" height="761" viewBox="0 0 649 761" fill="none" xmlns="http://www.w3.org/2000/svg">
<path d="M106.926 511.992C103.371 511.896 99.9888 510.919 97.0673 508.323H27.0789C18.8765 508.323 12.2264 501.673 12.2264 493.471V222.6C12.2264 222.6 10.2731 221.971 10.2711 221.971C2.72688 219.547 -1.72085 210.967 0.630536 203.406C0.630536 203.406 48.5034 49.6671 48.5384 49.5551C52.368 37.2561 66.0963 30.0629 78.3953 33.9366L101.394 41.1878C115.598 30.9941 131 22.5437 147.279 16.0186C173.527 5.4959 202.134 0 230.384 0C287.563 0 343.14 22.6757 384.403 62.1222C425.202 101.124 446.048 156.35 449.624 211.881C452.23 252.327 448.544 292.913 448.541 333.39C448.541 333.39 466.504 418.726 466.553 418.96C469.186 431.471 458.24 435.864 448.541 437.978V493.473C448.541 501.675 441.891 508.325 433.689 508.325C433.689 508.325 125.806 508.325 125.804 508.325C120.037 509.579 113.212 512.162 106.926 511.992Z" fill="white"/>
<path d="M434.006 261.898C433.462 282.988 432.372 303.98 432.372 324.253V493.472H305.731L278.34 483.725L250.95 493.472H25.7627C25.7627 493.472 25.7627 466.386 25.7627 429.012C25.7627 429.012 44.4967 410.552 44.4967 401.622C44.4967 392.425 25.7627 374.231 25.7627 374.231C25.7627 297.783 25.7627 211.771 25.7627 211.771C26.0437 163.945 44.7048 116.953 76.83 81.6393C97.3854 59.0436 123.149 41.1637 151.488 29.8048C151.488 29.8048 169.055 34.8627 176.475 32.7963C182.376 31.1531 191.219 18.269 191.219 18.269C247.3 7.89825 306.643 21.4025 352.392 55.4991C353.283 56.1422 354.175 56.8103 355.041 57.5044C405.308 97.721 431.677 159.612 433.982 223.084C433.982 223.084 423.298 235.863 423.281 242.491C423.263 248.816 434.006 261.898 434.006 261.898Z" fill="#EB7DFF"/>
<path d="M198.793 54.1369L151.488 29.804C164.137 24.7051 177.431 20.8185 191.219 18.2681L198.793 54.1369Z" fill="#A5DBFF"/>
<path d="M170.888 291.226L235.775 201.058L227.349 287.855L170.888 291.226Z" fill="#A5DBFF"/>
<path d="M434.006 261.898L365.461 226.648L433.981 223.083C434.476 235.956 434.353 248.951 434.006 261.898Z" fill="#A5DBFF"/>
<path d="M65.1221 374.231H25.7627V429.012H65.1221V374.231Z" fill="#FFA7BB"/>
<path d="M390.831 114.261H336.056V169.036H390.831V114.261Z" fill="#FFA7BB"/>
<path d="M305.731 471.564H250.95V493.472H305.731V471.564Z" fill="#FFA7BB"/>
<path d="M204.322 312.686L184.318 315.662L182.053 300.439C181.506 296.763 184.044 293.338 187.721 292.792L194.41 291.797C198.087 291.25 201.511 293.787 202.058 297.464L204.322 312.686Z" fill="#21252A"/>
<path d="M66.3343 421.041C62.2746 412.452 56.7047 404.555 51.3579 396.956C47.9173 392.079 44.3777 387.054 41.2582 381.906C34.005 369.826 28.7081 356.384 25.7617 342.547V352.672C28.9052 363.366 33.4359 373.688 39.1539 383.169C42.2974 388.392 45.862 393.467 49.3275 398.367C54.6244 405.918 60.1203 413.69 64.1049 422.106C70.0209 434.607 72.4473 448.023 71.1351 460.946C70.244 469.808 67.6445 477.407 63.4608 483.571C60.9364 487.284 57.6939 490.601 53.8563 493.473H57.8169C60.8124 490.948 63.4108 488.077 65.5152 484.958C69.9459 478.472 72.6693 470.476 73.6095 461.194C74.9737 447.824 72.4483 433.938 66.3343 421.041ZM180.747 267.789C173.049 261.997 162.8 258.828 150.325 258.357C149.88 257.936 149.409 257.54 148.939 257.119C137.725 247.491 121.387 242.243 102.896 242.391C68.4137 242.663 36.8525 262.218 25.7627 290.117V298.013C26.3318 295.909 26.9759 293.854 27.743 291.849C38.1397 264.446 69.0578 245.113 102.896 244.866H103.589C120.743 244.866 135.893 249.619 146.488 258.307C128.046 258.48 112.328 264.99 103.045 276.427C100.1 280.066 98.4656 283.481 98.0695 286.848C97.5994 290.883 98.8366 295.314 101.782 300.017C107.401 309.053 116.882 315.612 127.253 318.087H127.303C131.165 319.052 135.101 319.448 139.061 319.176C144.457 318.83 149.037 317.444 152.725 315.018C154.31 313.978 155.671 312.765 156.834 311.503C159.706 308.409 161.463 304.894 162.502 302.122C167.503 288.828 163.542 272.59 152.923 260.98C163.666 261.748 172.528 264.692 179.261 269.767C186.81 275.435 191.316 284.026 191.316 292.268C191.316 293.803 191.168 295.312 190.846 296.773L193.271 297.293C193.643 295.534 193.816 293.728 193.741 291.896C193.595 283.037 188.768 273.829 180.747 267.789ZM160.177 301.256C158.889 304.697 156.39 309.45 151.81 312.618L151.785 312.643C151.637 312.742 151.512 312.841 151.364 312.94C148.048 315.119 143.864 316.406 138.888 316.703C137.18 316.827 135.448 316.802 133.739 316.654C121.808 315.713 110.224 308.906 103.886 298.732C101.263 294.499 100.124 290.613 100.52 287.147C100.866 284.251 102.326 281.255 104.951 277.989C113.887 266.998 129.21 260.785 147.256 260.785C147.924 260.785 148.617 260.785 149.31 260.81C160.647 271.824 165.128 288.087 160.177 301.256Z" fill="#21252A"/>
<path d="M261.866 113.47L242.738 106.901L247.737 92.3452C248.944 88.8296 252.774 86.9583 256.289 88.1655L262.685 90.3619C266.201 91.5691 268.072 95.3977 266.865 98.9143L261.866 113.47Z" fill="#21252A"/>
<path d="M399.342 164.844L368.639 258.28L350.036 314.953L349.815 315.616L349.616 315.55L266.797 289.005L265.735 288.673L251.512 284.116L153.165 252.595L152.102 252.263L40.7491 216.583L27.4439 202.423L65.0521 62.0081C66.9544 55.9251 70.0519 53.1356 76.1129 55.0599L84.7903 51.9414L211.872 92.002L213.93 92.6431L304.225 121.134L306.283 121.775L390.915 148.452C397.793 150.621 401.597 157.987 399.342 164.844Z" fill="#512A8D"/>
<path d="M114.291 199.088L101.818 194.019C98.9346 192.848 97.5474 189.56 98.7196 186.677L121.733 130.041C122.905 127.158 126.192 125.771 129.075 126.943L141.548 132.012C144.431 133.183 145.818 136.47 144.647 139.354L121.633 195.989C120.461 198.873 117.174 200.26 114.291 199.088Z" fill="#EB7DFF"/>
<path d="M87.6678 150.561L88.621 148.215C90.9283 142.535 97.4044 139.802 103.084 142.11L149.591 161.008C155.271 163.317 158.004 169.792 155.697 175.472L154.744 177.817C152.435 183.497 145.96 186.231 140.28 183.923L93.7738 165.025C88.0939 162.716 85.3594 156.241 87.6678 150.561Z" fill="#EB7DFF"/>
<path d="M40.7421 216.574L13.4966 207.831L61.4035 53.9708C62.8737 49.248 67.9006 46.6186 72.6193 48.1038L84.7803 51.9324L40.7421 216.574Z" fill="#21252A"/>
<path d="M148.246 117.26C122.478 102.359 89.3561 111.171 74.4296 136.964C67.2014 149.441 65.2711 163.996 69.0087 177.932C72.7213 191.894 81.6328 203.552 94.1339 210.781C102.476 215.607 111.734 218.058 121.116 218.058C125.77 218.058 130.473 217.464 135.102 216.226C149.063 212.489 160.722 203.577 167.95 191.076C182.876 165.307 174.039 132.187 148.246 117.26ZM166.984 190.531C159.905 202.759 148.493 211.498 134.829 215.136C121.164 218.8 106.906 216.894 94.6779 209.814C82.4499 202.735 73.7115 191.323 70.0729 177.659C66.4343 163.995 68.3156 149.737 75.3948 137.509C85.1974 120.577 102.995 111.12 121.289 111.12C130.275 111.12 139.384 113.398 147.702 118.224C159.93 125.304 168.668 136.74 172.307 150.38C175.97 164.045 174.064 178.303 166.984 190.531Z" fill="#EB7DFF"/>
<path d="M243.349 123.385L224.436 117.021C222.277 116.295 221.105 113.934 221.832 111.775C222.558 109.616 224.919 108.444 227.078 109.171L245.991 115.535C248.149 116.261 249.321 118.622 248.595 120.781C247.869 122.94 245.509 124.112 243.349 123.385Z" fill="#EB7DFF"/>
<path d="M281.177 136.113L262.263 129.749C260.104 129.023 258.932 126.662 259.659 124.503C260.385 122.344 262.747 121.172 264.905 121.899L283.818 128.262C285.977 128.988 287.15 131.349 286.422 133.509C285.696 135.667 283.336 136.839 281.177 136.113Z" fill="#EB7DFF"/>
<path d="M329.449 217C323.049 213.296 320.844 205.029 324.549 198.63C328.253 192.231 336.52 190.026 342.919 193.731C349.318 197.435 351.522 205.702 347.819 212.101C344.114 218.501 335.848 220.705 329.449 217Z" fill="#A5DBFF"/>
<path d="M345.9 249.537C339.501 245.832 337.297 237.566 341 231.167C344.705 224.768 352.971 222.563 359.37 226.267C365.769 229.971 367.975 238.238 364.27 244.637C360.566 251.037 352.299 253.241 345.9 249.537Z" fill="#EB7DFF"/>
<path d="M312.804 260.37C306.405 256.665 304.2 248.399 307.904 242C311.609 235.601 319.875 233.396 326.274 237.1C332.673 240.804 334.877 249.071 331.174 255.47C327.469 261.869 319.203 264.073 312.804 260.37Z" fill="#A5DBFF"/>
<path d="M296.655 231.578C290.256 227.873 288.051 219.607 291.755 213.208C295.46 206.809 303.726 204.604 310.125 208.308C316.524 212.013 318.729 220.279 315.024 226.678C311.321 233.077 303.054 235.282 296.655 231.578Z" fill="#EB7DFF"/>
<path d="M198.249 223.114C200.258 225.22 197.925 230.71 193.035 235.375C188.146 240.04 182.553 242.115 180.543 240.009C178.534 237.903 180.867 232.413 185.757 227.748C190.647 223.083 196.24 221.007 198.249 223.114Z" fill="#21252A"/>
<path d="M227.154 231.588C229.163 233.695 226.83 239.185 221.94 243.849C217.051 248.515 211.458 250.589 209.448 248.484C207.437 246.379 209.772 240.888 214.662 236.223C219.551 231.557 225.143 229.482 227.154 231.588Z" fill="#21252A"/>
<path d="M254.422 240.847C256.431 242.954 254.098 248.444 249.208 253.109C244.319 257.774 238.727 259.849 236.716 257.743C234.707 255.637 237.04 250.147 241.93 245.482C246.82 240.817 252.413 238.742 254.422 240.847Z" fill="#21252A"/>
<path d="M294.036 153.923L205.215 126.021L211.876 91.9971L213.928 92.6482L207.704 124.547L292.749 151.288L304.228 121.127L306.281 121.777L294.036 153.923Z" fill="#21252A"/>
<path d="M285.996 183.137L268.366 280.4L266.796 289.005L265.734 288.673L267.194 280.666L284.913 182.938C286.417 174.643 281.441 166.525 273.388 164.048L216.428 146.705C208.421 144.25 199.771 148.165 196.387 155.84L153.164 252.594L152.101 252.262L195.368 155.397C198.996 147.213 208.199 143.032 216.759 145.643L273.696 163.008C282.303 165.64 287.59 174.289 285.996 183.137Z" fill="#EB7DFF"/>
<path d="M270.852 200.706C269.194 197.588 266.396 195.334 263.03 194.32L211.789 179.097C208.448 178.081 204.883 178.477 201.764 180.161C198.669 181.844 196.417 184.591 195.401 187.958C194.411 191.3 194.782 194.889 196.466 197.984C197.654 200.137 199.362 201.894 201.441 203.083C202.333 203.627 203.273 204.048 204.288 204.321L255.529 219.544C258.871 220.559 262.435 220.188 265.53 218.505C268.648 216.822 270.902 214.049 271.917 210.683C272.907 207.34 272.535 203.8 270.852 200.706ZM270.852 210.36C269.936 213.454 267.881 215.979 265.035 217.538C262.163 219.073 258.921 219.444 255.851 218.503L204.61 203.255C201.54 202.363 198.966 200.284 197.456 197.438C195.897 194.591 195.574 191.373 196.466 188.279C197.382 185.21 199.461 182.66 202.283 181.126C205.154 179.567 208.397 179.245 211.466 180.161L262.732 195.36C263.623 195.657 264.514 196.028 265.331 196.498C267.237 197.613 268.796 199.222 269.886 201.201C271.421 204.048 271.768 207.315 270.852 210.36Z" fill="#EB7DFF"/>
<path d="M368.639 258.28L350.035 314.953L349.615 315.55L266.796 289.005L265.735 288.673L251.512 284.117L267.194 280.666L268.367 280.401L368.639 258.28Z" fill="#21252A"/>
<path d="M450.704 422.018L365.518 440.577L364.434 440.82L248.922 465.994L247.838 466.237L133.586 491.144L110.619 485.083L73.9715 343.442C72.5563 337.204 74.6096 333.5 80.8257 332.107L89.213 326.592L219.28 297.592L221.382 297.127L313.801 276.532L315.902 276.068L402.525 256.757C409.56 255.187 416.528 259.655 418.01 266.711L450.704 422.018Z" fill="#512A8D"/>
<path d="M192.073 439.076L178.906 441.887C175.862 442.537 172.869 440.597 172.219 437.552L159.457 377.767C158.807 374.724 160.748 371.729 163.791 371.08L176.958 368.27C180.002 367.621 182.995 369.561 183.646 372.604L196.408 432.389C197.057 435.434 195.116 438.427 192.073 439.076Z" fill="#EB7DFF"/>
<path d="M142.793 413.874L142.265 411.399C140.985 405.403 144.808 399.505 150.804 398.225L199.898 387.744C205.894 386.464 211.792 390.287 213.072 396.282L213.6 398.758C214.881 404.754 211.057 410.652 205.062 411.932L155.968 422.412C149.971 423.693 144.073 419.87 142.793 413.874Z" fill="#EB7DFF"/>
<path d="M133.587 491.145L105.627 497.228L70.0039 340.068C68.9107 335.244 71.9432 330.449 76.771 329.371L89.2141 326.592L133.587 491.145Z" fill="#21252A"/>
<path d="M176.885 351.333C147.107 351.333 122.873 375.567 122.873 405.346C122.873 435.15 147.107 459.384 176.885 459.384C206.664 459.384 230.898 435.15 230.898 405.346C230.899 375.567 206.665 351.333 176.885 351.333ZM176.885 458.271C147.701 458.271 123.962 434.532 123.962 405.347C123.962 376.188 147.701 352.448 176.885 352.448C206.046 352.448 229.785 376.187 229.785 405.347C229.785 434.532 206.046 458.271 176.885 458.271Z" fill="#EB7DFF"/>
<path d="M262.245 308.988L242.688 312.957C240.456 313.41 238.258 311.954 237.805 309.721C237.352 307.489 238.809 305.291 241.041 304.838L260.598 300.871C262.831 300.418 265.028 301.874 265.481 304.106C265.934 306.339 264.478 308.536 262.245 308.988Z" fill="#EB7DFF"/>
<path d="M301.359 301.052L281.802 305.019C279.569 305.472 277.372 304.016 276.919 301.784C276.466 299.551 277.922 297.354 280.154 296.901L299.712 292.932C301.944 292.479 304.141 293.935 304.594 296.168C305.047 298.402 303.591 300.6 301.359 301.052Z" fill="#EB7DFF"/>
<path d="M383.66 346.872C376.266 346.872 370.217 340.823 370.217 333.429C370.217 326.034 376.267 319.985 383.66 319.985C391.055 319.985 397.104 326.035 397.104 333.429C397.105 340.823 391.055 346.872 383.66 346.872Z" fill="#A5DBFF"/>
<path d="M414.199 366.788C406.805 366.788 400.756 360.739 400.756 353.345C400.756 345.95 406.806 339.901 414.199 339.901C421.594 339.901 427.643 345.951 427.643 353.345C427.643 360.739 421.593 366.788 414.199 366.788Z" fill="#EB7DFF"/>
<path d="M390.983 392.744C383.589 392.744 377.54 386.694 377.54 379.301C377.54 371.907 383.59 365.858 390.983 365.858C398.378 365.858 404.427 371.908 404.427 379.301C404.427 386.694 398.377 392.744 390.983 392.744Z" fill="#A5DBFF"/>
<path d="M362.583 375.917C355.189 375.917 349.14 369.867 349.14 362.473C349.14 355.079 355.189 349.03 362.583 349.03C369.977 349.03 376.026 355.079 376.026 362.473C376.026 369.868 369.976 375.917 362.583 375.917Z" fill="#EB7DFF"/>
<path d="M273.177 417.893C275.972 418.709 276.702 424.629 274.808 431.116C272.913 437.603 269.113 442.201 266.318 441.386C263.524 440.57 262.794 434.65 264.687 428.163C266.581 421.675 270.382 417.078 273.177 417.893Z" fill="#21252A"/>
<path d="M302.438 410.747C305.233 411.563 305.963 417.483 304.069 423.97C302.175 430.457 298.374 435.055 295.58 434.24C292.786 433.423 292.055 427.503 293.949 421.015C295.843 414.528 299.644 409.931 302.438 410.747Z" fill="#21252A"/>
<path d="M330.677 405.099C333.471 405.915 334.201 411.835 332.308 418.322C330.414 424.809 326.613 429.407 323.819 428.592C321.024 427.775 320.294 421.855 322.187 415.368C324.082 408.88 327.882 404.283 330.677 405.099Z" fill="#21252A"/>
<path d="M321.411 310.023L230.562 330.374L219.281 297.592L221.383 297.127L231.978 327.852L318.978 308.387L313.477 276.068L315.943 275.491L321.411 310.023Z" fill="#21252A"/>
<path d="M365.518 440.577L364.434 440.82L328.046 339.708C325.193 331.766 316.831 327.232 308.625 329.134L250.626 342.649C242.463 344.551 236.955 352.272 237.862 360.611L249.052 466.376L247.824 466.638L236.756 360.721C235.805 351.829 241.667 343.6 250.382 341.565L308.36 328.072C317.119 326.036 326.034 330.881 329.086 339.331L365.518 440.577Z" fill="#EB7DFF"/>
<path d="M330.708 370.246C329.891 366.83 327.786 363.958 324.767 362.126C321.771 360.27 318.232 359.7 314.816 360.517L262.833 372.993C259.441 373.81 256.545 375.938 254.688 378.959C252.857 381.954 252.288 385.469 253.104 388.886C253.92 392.277 256.049 395.198 259.045 397.029C261.149 398.316 263.526 398.96 265.902 398.96C266.941 398.96 267.956 398.861 268.997 398.613L320.98 386.113C324.372 385.296 327.267 383.192 329.099 380.197C330.955 377.177 331.525 373.637 330.708 370.246ZM328.182 379.603C326.474 382.376 323.851 384.306 320.732 385.049L268.749 397.525C265.63 398.292 262.362 397.773 259.639 396.09C256.867 394.381 254.936 391.758 254.193 388.639C253.426 385.52 253.97 382.277 255.653 379.529C257.337 376.757 259.985 374.826 263.105 374.083L315.088 361.582C316.003 361.359 316.969 361.26 317.886 361.26C320.113 361.26 322.267 361.879 324.198 363.042C326.945 364.726 328.876 367.374 329.618 370.494C330.361 373.612 329.866 376.855 328.182 379.603Z" fill="#EB7DFF"/>
<path d="M352.392 55.4991C339.792 58.0975 327.762 63.2224 316.078 68.2222C302.34 74.1132 288.131 80.1782 272.956 81.9114C272.758 81.9364 272.585 81.9614 272.412 81.9614C277.437 72.901 278.65 61.4651 274.565 51.6135C268.178 36.1419 249.712 26.1913 232.509 28.9137C224.76 30.1509 215.181 34.6317 211.616 43.4691C208.77 50.4743 210.403 59.4598 215.75 66.3419C220.033 71.8368 226.37 76.1445 235.108 79.511C245.455 83.4967 256.57 85.279 267.634 84.8079C266.05 86.8382 264.268 88.6695 262.238 90.2038C260.679 91.417 258.971 92.4562 257.164 93.2983L258.204 95.5507C260.531 94.4615 262.685 93.1003 264.64 91.441C266.992 89.5107 269.047 87.1833 270.779 84.6089C271.596 84.5349 272.413 84.4609 273.229 84.3618C288.775 82.6045 303.132 76.4405 317.043 70.4996C329.271 65.2767 341.896 59.9048 355.041 57.5034C354.175 56.8103 353.283 56.1422 352.392 55.4991ZM269.417 82.2325C258.08 82.9996 246.619 81.2923 235.999 77.2077C227.682 73.9901 221.692 69.9305 217.706 64.8056C212.879 58.6176 211.394 50.5973 213.919 44.3833C217.087 36.512 225.8 32.4763 232.905 31.3631C234.712 31.0661 236.519 30.9421 238.326 30.9421C252.733 30.9421 266.991 39.7055 272.288 52.5526C276.298 62.2562 274.789 73.6191 269.417 82.2325Z" fill="#21252A"/>
<path d="M318.99 90.6517C303.085 98.2259 287.094 103.542 281.301 85.6949C277.775 74.8311 285.302 60.8838 301.207 53.3096C317.111 45.7353 333.985 47.9547 338.896 58.2664C343.806 68.5781 334.894 83.0774 318.99 90.6517Z" fill="#A5DBFF"/>
<path d="M321.422 95.7045C337.328 88.1297 346.24 73.6292 341.329 63.3168C336.418 53.0043 319.543 50.785 303.637 58.3598C287.732 65.9346 278.819 80.4351 283.731 90.7475C288.642 101.06 305.517 103.279 321.422 95.7045Z" fill="#FFE400"/>
<path d="M303.411 98.5351C302.178 98.5351 300.97 98.4651 299.793 98.3221C293.22 97.5219 288.402 94.5655 286.228 89.9967C284.053 85.428 284.792 79.824 288.315 74.2161C291.791 68.6832 297.575 63.7904 304.603 60.4439C311.634 57.0953 319.077 55.6911 325.565 56.4772C332.138 57.2773 336.956 60.2338 339.129 64.8026C341.304 69.3713 340.565 74.9752 337.043 80.5832C333.566 86.1161 327.782 91.0089 320.754 94.3554C315 97.0939 308.969 98.5351 303.411 98.5351ZM321.941 57.2823C316.536 57.2823 310.659 58.6896 305.043 61.363C298.185 64.6286 292.552 69.3863 289.178 74.7602C285.846 80.0591 285.126 85.3149 287.148 89.5566C289.169 93.8013 293.701 96.5548 299.917 97.3089C306.221 98.082 313.461 96.6998 320.315 93.4363C327.173 90.1707 332.806 85.413 336.181 80.0391C339.512 74.7402 340.232 69.4843 338.211 65.2427C336.19 60.998 331.658 58.2445 325.442 57.4904C324.303 57.3494 323.132 57.2823 321.941 57.2823Z" fill="#A5DBFF"/>
<path d="M387.147 438.108C402.844 446.105 416.802 455.547 406.179 471.014C399.713 480.429 384.066 482.958 368.371 474.961C352.675 466.964 344.154 452.231 349.339 442.054C354.524 431.877 371.45 430.11 387.147 438.108Z" fill="#A5DBFF"/>
<path d="M389.692 433.11C405.388 441.107 413.909 455.84 408.724 466.016C403.54 476.193 386.613 477.96 370.916 469.963C355.221 461.967 346.699 447.233 351.884 437.056C357.069 426.88 373.997 425.114 389.692 433.11Z" fill="#FFE400"/>
<path d="M390.028 472.574C384.238 472.574 377.924 470.959 371.956 467.919C365.021 464.384 359.369 459.342 356.043 453.714C352.673 448.016 352.083 442.397 354.38 437.886C356.679 433.377 361.574 430.552 368.164 429.927C374.667 429.301 382.071 430.917 389.009 434.453C395.944 437.988 401.599 443.033 404.925 448.658C408.294 454.355 408.884 459.975 406.588 464.486C404.289 468.995 399.394 471.823 392.804 472.446C391.895 472.53 390.97 472.574 390.028 472.574ZM370.943 430.817C370.034 430.817 369.137 430.858 368.258 430.94C362.028 431.53 357.421 434.159 355.289 438.349C353.154 442.536 353.734 447.808 356.92 453.196C360.149 458.657 365.654 463.564 372.421 467.01C379.187 470.457 386.391 472.018 392.707 471.431C398.939 470.841 403.547 468.212 405.679 464.022C407.813 459.835 407.233 454.563 404.048 449.175C400.818 443.714 395.313 438.809 388.545 435.361C382.721 432.392 376.571 430.817 370.943 430.817Z" fill="#A5DBFF"/>
<path d="M83.2171 294.807C83.2171 312.423 81.1417 329.147 62.5367 326.704C51.2128 325.216 41.8563 312.423 41.8563 294.807C41.8563 277.191 51.1148 262.911 62.5367 262.911C73.9586 262.911 83.2171 277.191 83.2171 294.807Z" fill="#A5DBFF"/>
<path d="M68.1456 326.704C79.5671 326.704 88.826 312.423 88.826 294.807C88.826 277.192 79.5671 262.911 68.1456 262.911C56.7241 262.911 47.4652 277.192 47.4652 294.807C47.4652 312.423 56.7241 326.704 68.1456 326.704Z" fill="#FFE400"/>
<path d="M68.5407 324.105C58.185 324.105 49.7596 310.962 49.7596 294.806C49.7596 278.65 58.184 265.507 68.5407 265.507C78.8944 265.507 87.3187 278.65 87.3187 294.806C87.3187 310.962 78.8944 324.105 68.5407 324.105ZM68.5407 266.528C58.7481 266.528 50.7797 279.215 50.7797 294.807C50.7797 310.4 58.7471 323.086 68.5407 323.086C78.3343 323.086 86.2986 310.4 86.2986 294.807C86.2986 279.215 78.3333 266.528 68.5407 266.528Z" fill="#A5DBFF"/>
<path d="M174.435 50.5992L187.336 54.7139L174.68 59.2756L170.566 72.1767L166.005 59.5207L153.104 55.406L165.76 50.8442L169.873 37.9431L174.435 50.5992Z" fill="#FFE400"/>
<path d="M407.439 214.292L420.34 218.406L407.684 222.968L403.57 235.869L399.008 223.213L386.107 219.099L398.763 214.537L402.878 201.636L407.439 214.292Z" fill="#FFE400"/>
<path d="M246.309 65.3846C251.661 65.3846 255.999 61.046 255.999 55.694C255.999 50.342 251.661 46.0034 246.309 46.0034C240.957 46.0034 236.618 50.342 236.618 55.694C236.618 61.046 240.957 65.3846 246.309 65.3846Z" fill="#FEE8DA"/>
<path d="M387.459 123.951C392.811 123.951 397.15 119.612 397.15 114.26C397.15 108.908 392.811 104.57 387.459 104.57C382.107 104.57 377.768 108.908 377.768 114.26C377.768 119.612 382.107 123.951 387.459 123.951Z" fill="#FEE8DA"/>
<path d="M257.685 487.151C263.037 487.151 267.375 482.812 267.375 477.46C267.375 472.108 263.037 467.77 257.685 467.77C252.333 467.77 247.994 472.108 247.994 477.46C247.994 482.812 252.333 487.151 257.685 487.151Z" fill="#FEE8DA"/>
<path d="M60.9174 426.899C60.9174 432.251 56.5787 436.59 51.2268 436.59C45.875 436.59 41.5363 432.251 41.5363 426.899C41.5363 421.547 45.875 417.208 51.2268 417.208C56.5787 417.207 60.9174 421.547 60.9174 426.899Z" fill="#FEE8DA"/>
<path d="M648.504 747.604C648.504 755.001 642.506 761 635.109 761H173.395C165.998 761 160 755.001 160 747.604C160 747.604 160 492.839 160 492.826C160 454.154 169.188 415.647 186.847 381.229C219.293 317.999 280.025 271.03 349.222 255.045C422.825 238.041 503.367 257.515 561.358 305.844C613.628 349.406 645.482 414.639 648.292 482.539L648.504 747.604Z" fill="white"/>
<path d="M577.498 555.069L635.014 673.506V697.173L633.271 699.184L635.014 702.327V747.603H524.921L499.48 740.116L471.092 747.603H464.002L463.355 746.636L460.877 747.603H450.295L449.215 746.804L447.191 747.603H436.602L435.39 746.949L433.483 747.603H325.452L214.996 691.053L173.301 577.885V492.826C173.301 411.427 215.407 339.874 279.058 298.773C279.393 298.55 279.705 298.327 280.039 298.125C280.397 297.902 280.754 297.679 281.111 297.456C298.302 286.584 317.033 277.965 336.88 271.915C336.88 271.915 343.293 272.242 345.71 271.596C347.541 271.105 349.606 268.455 349.606 268.455H349.651C363.716 265.039 378.272 262.918 393.23 262.204C393.23 262.204 394.802 263.109 395.353 263.088C395.84 263.07 396.355 262.092 396.355 262.092C398.944 262.003 401.556 261.958 404.168 261.958C405.24 261.958 406.334 261.958 407.405 262.003C407.405 262.003 408.899 262.857 409.561 262.868C409.997 262.875 410.71 262.048 410.71 262.048C414.683 262.159 418.613 262.36 422.542 262.673C422.542 262.673 424.216 263.722 424.92 263.781C425.41 263.822 426.115 262.985 426.115 262.985C430.424 263.387 434.688 263.923 438.93 264.548C438.93 264.548 440.693 265.753 441.47 265.882C442.011 265.972 442.881 265.217 442.881 265.217C447.66 265.999 452.393 266.959 457.081 268.053C457.081 268.053 459.093 269.535 460.033 269.766C460.546 269.892 461.433 269.125 461.433 269.125C502.177 279.529 538.59 300.76 567.413 329.582C607.041 369.21 632.335 423.215 634.813 483.092L577.498 555.069Z" fill="#9F06C8"/>
<path d="M556.216 449.745L577.01 411.163L577.672 457.081L614.477 473.91L578.296 474.452L577.873 511.895L560.889 476.182L529.776 497.158L545.87 467.335L516.981 441.291L556.216 449.745Z" fill="#FFE400"/>
<path d="M559.334 460.777C558.537 462.255 556.694 462.807 555.215 462.011C553.737 461.215 553.186 459.371 553.981 457.893C554.778 456.415 556.622 455.863 558.1 456.66C559.578 457.455 560.131 459.299 559.334 460.777Z" fill="#21252A"/>
<path d="M574.427 464.812C573.63 466.29 571.787 466.841 570.308 466.046C568.83 465.249 568.279 463.406 569.074 461.927C569.871 460.449 571.715 459.898 573.193 460.693C574.671 461.49 575.223 463.333 574.427 464.812Z" fill="#21252A"/>
<path d="M563.971 466.683C563.82 466.683 563.665 466.67 563.501 466.644C560.412 466.143 561.123 461.11 561.156 460.895C561.2 460.592 561.468 460.389 561.79 460.425C562.094 460.471 562.305 460.754 562.259 461.059C562.255 461.101 561.704 465.221 563.68 465.541C565.769 465.883 566.553 462.289 566.56 462.252C566.631 461.952 566.918 461.765 567.229 461.83C567.529 461.899 567.715 462.197 567.649 462.498C567.61 462.678 566.672 466.683 563.971 466.683Z" fill="#21252A"/>
<path d="M540.912 639.013L436.586 747.604H433.482L539.283 637.472C539.729 637.026 540.422 637.004 540.868 637.45C541.314 637.874 541.336 638.566 540.912 639.013Z" fill="#FEE8DA"/>
<path d="M548.034 645.867L450.271 747.604H447.19L546.427 644.326C546.851 643.88 547.543 643.858 547.99 644.282C548.437 644.706 548.459 645.42 548.034 645.867Z" fill="#FEE8DA"/>
<path d="M555.156 652.698L464.001 747.604H460.876L553.549 651.158C553.973 650.712 554.665 650.712 555.112 651.136C555.56 651.56 555.581 652.274 555.156 652.698Z" fill="#FEE8DA"/>
<path d="M562.278 659.552L477.687 747.604H474.607L560.671 658.012C561.095 657.565 561.809 657.543 562.256 657.967C562.68 658.414 562.702 659.106 562.278 659.552Z" fill="#FEE8DA"/>
<path d="M569.399 666.406L491.394 747.603H488.29L567.791 664.842C568.215 664.418 568.93 664.396 569.376 664.819C569.824 665.245 569.824 665.959 569.399 666.406Z" fill="#FEE8DA"/>
<path d="M490.329 517.338C490.343 522.544 487.159 528.11 484.892 532.567C463.148 575.317 436.964 615.937 411.044 656.228C409.065 659.306 407.165 662.706 404.781 665.379C405.961 666.883 407.379 668.266 408.724 669.666L410.444 671.451L412.408 673.505L438.507 700.653L440.337 702.551L440.359 702.573C441.811 704.091 441.631 706.524 439.958 707.797C433.573 712.664 417.209 721.996 395.039 712.084C366.172 699.158 335.764 677.882 335.764 677.882L325.405 747.604H244.14L237.197 673.506L232.263 620.952V620.885L224.047 533.48C224.047 533.48 234.651 513.566 234.651 513.543L248.358 487.869C248.358 487.869 252.333 485.972 258.873 482.958C260.28 482.333 261.798 481.618 263.45 480.881C291.96 467.91 352.35 441.678 368.447 444.557C378.829 446.411 407.717 460.23 434.843 475.478C438.571 477.577 442.277 479.719 445.916 481.84C446.161 481.996 446.362 482.13 446.587 482.265C454.177 486.822 461.622 491.615 469.04 496.448C475.458 500.629 483.251 504.687 488.072 510.761C489.689 512.799 490.323 515.033 490.329 517.338Z" fill="#FFA7BB"/>
<path d="M440.336 702.552C438.64 702.953 436.876 703.132 435.09 703.132C427.79 703.132 420.109 700.028 414.438 694.381C412.406 692.394 410.799 690.273 409.66 688.107C406.646 682.481 406.4 675.561 408.722 669.667L410.442 671.452C408.745 676.542 409.08 682.302 411.625 687.057C412.675 689.022 414.148 690.965 416 692.795C422.185 698.934 430.869 701.837 438.505 700.654L440.336 702.552Z" fill="#21252A"/>
<path d="M635.014 492.826V664.397L629.522 668.951H232.131L232.263 620.951V620.839L234.652 513.565V513.52L235.388 480.97C235.276 480.859 243.939 480.836 258.763 480.881H263.429C263.451 480.881 263.474 480.881 263.474 480.881C299.954 480.97 366.998 481.349 434.845 481.773C438.529 481.796 442.212 481.818 445.896 481.84C445.896 481.84 445.918 481.84 445.941 481.84C448.821 481.862 451.723 481.885 454.603 481.885C532.587 482.377 607.823 482.912 634.815 483.091C634.947 486.306 635.014 489.566 635.014 492.826Z" fill="#A5DBFF"/>
<path d="M260.254 492.35L256.357 656.223H631.032V494.242C631.032 494.242 259.604 491.721 260.254 492.35Z" fill="#21252A"/>
<path d="M329.427 613.662H314.269C310.765 613.662 307.925 610.822 307.925 607.318V538.494C307.925 534.991 310.766 532.15 314.269 532.15H329.427C332.931 532.15 335.77 534.991 335.77 538.494V607.318C335.77 610.823 332.931 613.662 329.427 613.662Z" fill="white"/>
<path d="M281.091 574.331V571.481C281.091 564.579 286.687 558.983 293.589 558.983H350.105C357.007 558.983 362.603 564.579 362.603 571.481V574.331C362.603 581.233 357.007 586.829 350.105 586.829H293.589C286.687 586.829 281.091 581.234 281.091 574.331Z" fill="white"/>
<path d="M619.855 501.51C619.855 501.51 551.316 501.064 475.119 500.594H475.097C464.738 500.527 454.222 500.482 443.707 500.415C392.716 500.125 352.083 499.924 322.926 499.79C267.648 499.566 267.381 499.875 267.381 499.875V500.214L267.493 609.051V616.351L267.538 651.09V651.648H619.856V501.51H619.855ZM618.762 650.533H268.631L268.609 620.148V617.402L268.587 612.379V612.357L268.498 500.841C276.512 500.596 383.049 501.177 476.638 501.712C548.124 502.137 612.087 502.561 618.763 502.605V650.533H618.762Z" fill="#FEE8DA"/>
<path d="M544.166 549.523C548.772 556.667 546.714 566.192 539.57 570.797C532.426 575.403 522.902 573.346 518.296 566.203C513.69 559.058 515.748 549.533 522.891 544.927C530.036 540.321 539.56 542.379 544.166 549.523Z" fill="#A5DBFF"/>
<path d="M575.519 521.908C580.125 529.052 578.067 538.576 570.923 543.182C563.779 547.788 554.254 545.73 549.649 538.587C545.043 531.443 547.1 521.918 554.243 517.313C561.388 512.707 570.913 514.764 575.519 521.908Z" fill="#A5DBFF"/>
<path d="M575.04 580.397C579.646 587.541 577.588 597.066 570.445 601.672C563.301 606.277 553.776 604.22 549.171 597.076C544.565 589.932 546.623 580.406 553.766 575.801C560.91 571.197 570.435 573.253 575.04 580.397Z" fill="#A5DBFF"/>
<path d="M606.393 552.782C610.999 559.926 608.941 569.45 601.798 574.056C594.654 578.662 585.13 576.604 580.524 569.46C575.918 562.316 577.976 552.791 585.119 548.186C592.263 543.581 601.788 545.639 606.393 552.782Z" fill="#A5DBFF"/>
<path d="M329.427 609.673H314.269C310.765 609.673 307.925 606.832 307.925 603.328V534.505C307.925 531.001 310.766 528.161 314.269 528.161H329.427C332.931 528.161 335.77 531.002 335.77 534.505V603.328C335.77 606.832 332.931 609.673 329.427 609.673Z" fill="#FEE8DA"/>
<path d="M281.091 570.341V567.491C281.091 560.589 286.687 554.993 293.589 554.993H350.105C357.007 554.993 362.603 560.589 362.603 567.491V570.341C362.603 577.243 357.007 582.839 350.105 582.839H293.589C286.687 582.84 281.091 577.244 281.091 570.341Z" fill="#FEE8DA"/>
<path d="M335.764 568.264C335.653 564.624 334.112 561.343 331.679 558.977C329.222 556.566 325.852 555.069 322.123 555.069C318.395 555.069 315.046 556.566 312.568 558.977C310.023 561.455 308.461 564.916 308.461 568.733C308.461 576.256 314.6 582.397 322.124 582.397C329.514 582.397 335.542 576.503 335.765 569.202C335.787 569.046 335.787 568.89 335.787 568.733C335.786 568.577 335.786 568.421 335.764 568.264ZM322.122 581.28C315.201 581.28 309.576 575.654 309.576 568.733C309.576 564.804 311.384 561.277 314.242 558.977C316.407 557.213 319.131 556.164 322.122 556.164C325.114 556.164 327.86 557.213 330.025 558.977C332.883 561.277 334.691 564.804 334.691 568.733C334.692 575.654 329.066 581.28 322.122 581.28Z" fill="#21252A"/>
<path d="M389.277 599.061V629.445H510.08V599.061H389.277ZM508.964 628.33H390.393V600.177H508.964V628.33Z" fill="#FEE8DA"/>
<path d="M418.191 618.62H405.588C404.236 618.62 403.13 616.654 403.13 614.25C403.13 611.847 404.235 609.88 405.588 609.88H418.191C419.543 609.88 420.648 611.847 420.648 614.25C420.648 616.654 419.543 618.62 418.191 618.62Z" fill="#FEE8DA"/>
<path d="M457.052 618.62H445.564C444.332 618.62 443.325 616.654 443.325 614.25C443.325 611.847 444.333 609.88 445.564 609.88H457.052C458.284 609.88 459.29 611.847 459.29 614.25C459.291 616.654 458.284 618.62 457.052 618.62Z" fill="#FEE8DA"/>
<path d="M497.148 618.62H485.66C484.429 618.62 483.421 616.654 483.421 614.25C483.421 611.847 484.429 609.88 485.66 609.88H497.148C498.379 609.88 499.387 611.847 499.387 614.25C499.388 616.654 498.38 618.62 497.148 618.62Z" fill="#FEE8DA"/>
<path d="M635.014 664.397H243.425V673.506H635.014V664.397Z" fill="#21252A"/>
<path d="M276.624 664.397C276.602 665.87 276.556 667.322 276.489 668.773C276.422 669.778 277.007 670.741 276.94 671.767L276.859 672.302C276.814 672.86 276.871 672.991 276.827 673.549C275.197 697.37 270.864 727.445 268.185 747.605H173.301V577.885C175.422 570.629 177.409 564.066 179.195 558.552C186.63 535.556 191.095 500.93 195.604 471.147C195.715 470.389 195.828 469.652 195.917 468.937C198.953 449.067 202.034 431.586 206.052 421.496C206.343 420.759 206.633 420.045 206.945 419.397C208.799 415.356 210.874 412.901 213.218 412.454C229.181 409.418 254.454 435.45 258.249 474.207C258.45 476.35 258.628 478.583 258.762 480.883C258.807 481.552 258.829 482.245 258.873 482.959C260.615 518.636 254.14 567.819 253.069 575.699C252.957 576.414 252.913 576.793 252.913 576.793C252.913 576.793 255.012 581.08 257.982 588.068V588.09C260.906 595.056 264.657 604.678 268.05 615.551V615.573C271.488 626.668 274.525 639.015 275.887 651.093C276.066 652.812 276.222 654.531 276.355 656.227C276.556 658.995 276.646 661.718 276.624 664.397Z" fill="#FFA7BB"/>
<path d="M220.05 471.549C219.671 472.331 219.134 473.157 218.22 473.559C217.795 473.738 217.371 473.782 216.992 473.782C216.656 473.782 216.344 473.737 216.076 473.715L195.603 471.148C195.714 470.389 195.827 469.653 195.916 468.938L216.366 471.505C216.701 471.55 217.125 471.595 217.348 471.505C217.638 471.371 217.928 470.813 218.041 470.568C220.139 466.348 221.032 461.169 220.853 454.27C220.608 445.384 218.799 437.861 215.494 431.855C213.105 427.568 209.824 423.974 206.051 421.496C206.342 420.759 206.632 420.045 206.944 419.397C211.142 422.098 214.825 426.05 217.437 430.783C220.942 437.078 222.84 444.96 223.086 454.202C223.265 461.503 222.305 467.018 220.05 471.549Z" fill="#21252A"/>
<path d="M278.763 694.01C278.166 694.01 277.671 693.537 277.649 692.935C277.637 692.628 276.458 661.91 271.964 634.936C267.486 608.065 252.086 577.613 251.93 577.309C251.65 576.759 251.868 576.087 252.418 575.807C252.968 575.524 253.64 575.744 253.919 576.295C254.076 576.602 269.63 607.354 274.165 634.57C278.685 661.689 279.869 692.545 279.879 692.853C279.902 693.469 279.422 693.987 278.805 694.01C278.791 694.01 278.777 694.01 278.763 694.01Z" fill="#21252A"/>
<path d="M484.621 566.272H403.2C394.085 566.272 386.649 558.855 386.629 549.739L386.52 501.026H387.658L387.767 549.737C387.787 558.227 394.708 565.134 403.2 565.134H484.621C493.091 565.134 500.015 558.243 500.053 549.772L500.271 501.78L501.409 501.784L501.191 549.776C501.148 558.873 493.716 566.272 484.621 566.272Z" fill="#FEE8DA"/>
<path d="M454.613 482.275H434.853V464.794C434.853 459.337 439.276 454.914 444.733 454.914C450.19 454.914 454.613 459.337 454.613 464.794V482.275Z" fill="#21252A"/>
<path d="M508.183 367.312C489.788 345.232 460.92 334.65 428.951 338.311C418.636 339.494 408.233 341.771 398.164 343.982C377.2 348.581 355.523 353.314 333.889 348.246C311.14 342.933 292.743 328.689 284.706 310.182C282.898 306.029 281.715 301.743 281.112 297.456C280.755 297.679 280.398 297.902 280.04 298.126C279.705 298.327 279.393 298.55 279.059 298.773C279.706 302.926 280.911 307.055 282.653 311.075C290.98 330.23 309.934 344.943 333.376 350.434C355.501 355.614 377.447 350.814 398.634 346.17C408.658 343.982 419.017 341.705 429.198 340.544C460.408 336.972 488.561 347.242 506.467 368.741C520.085 385.106 525.8 409.864 507.851 428.283C501.556 434.734 492.915 439.624 482.914 442.37C472.733 445.183 461.906 445.54 451.524 443.598C453.511 434.355 452.306 424.375 447.751 415.959C445.474 411.718 441.387 406.136 434.891 403.569C428.305 400.934 421.942 402.274 417.878 407.141C413.413 412.476 413.1 420.38 417.119 426.831C420.156 431.743 425.112 435.873 432.211 439.445C437.458 442.08 443.062 444.044 448.8 445.317C447.862 448.711 446.456 451.948 444.58 454.917C444.223 455.52 443.821 456.122 443.397 456.703L445.227 457.998C445.875 457.105 446.478 456.168 447.036 455.208C448.754 452.261 450.095 449.068 450.987 445.764C461.749 447.817 472.978 447.438 483.515 444.536C493.897 441.655 502.872 436.588 509.457 429.823C528.388 410.444 522.449 384.458 508.183 367.312ZM449.333 443.151C443.751 441.923 438.327 440.026 433.214 437.459C426.494 434.065 421.829 430.202 419.015 425.648C415.51 420.023 415.755 413.169 419.596 408.569C421.829 405.89 424.954 404.483 428.414 404.483C430.223 404.483 432.142 404.863 434.063 405.644C439.935 407.966 443.685 413.101 445.784 417.008C450.071 424.979 451.232 434.423 449.333 443.151Z" fill="#21252A"/>
<path d="M512.738 319.022C512.515 319.267 512.225 319.38 511.934 319.38C511.666 319.38 511.376 319.29 511.176 319.067L457.082 268.054C458.533 268.411 460.006 268.746 461.435 269.126L512.695 317.46C513.139 317.883 513.162 318.575 512.738 319.022Z" fill="#FEE8DA"/>
<path d="M505.973 326.21C505.75 326.456 505.46 326.568 505.148 326.568C504.879 326.568 504.612 326.479 504.389 326.256L438.93 264.548C440.247 264.771 441.564 264.972 442.881 265.217L505.928 324.648C506.375 325.072 506.398 325.764 505.973 326.21Z" fill="#FEE8DA"/>
<path d="M499.187 333.399C498.963 333.644 498.673 333.757 498.383 333.757C498.093 333.757 497.824 333.667 497.601 333.444L422.543 262.673C423.726 262.784 424.932 262.874 426.115 262.985L499.141 331.837C499.588 332.26 499.61 332.953 499.187 333.399Z" fill="#FEE8DA"/>
<path d="M492.4 340.588C492.199 340.833 491.886 340.945 491.596 340.945C491.328 340.945 491.038 340.856 490.837 340.633L407.407 262.002C408.523 262.002 409.617 262.024 410.711 262.047L492.356 339.026C492.801 339.45 492.823 340.141 492.4 340.588Z" fill="#FEE8DA"/>
<path d="M485.635 347.776C485.412 348.022 485.122 348.134 484.831 348.134C484.541 348.134 484.273 348.045 484.05 347.821L393.23 262.203C394.279 262.158 395.306 262.114 396.356 262.091L485.591 346.214C486.036 346.637 486.059 347.33 485.635 347.776Z" fill="#FEE8DA"/>
<path d="M262.044 388.317L307.275 330.119L299.318 368.066L340.326 366.229L303.603 439.675L308.499 387.039L262.044 388.317Z" fill="#FFE400"/>
<path d="M526.758 711.704L524.749 747.604H471.123L463.354 693.107L489.274 739.188L526.758 711.704Z" fill="#FFE400"/>
<path d="M472.627 406.616L469.469 403.46L491.999 380.929L517.84 396.89L536.808 377.922L564.115 393.851L584.179 372.354L587.443 375.401L564.946 399.505L537.531 383.514L518.498 402.545L492.658 386.585L472.627 406.616Z" fill="#A5DBFF"/>
<path d="M400.463 301.965L400.128 306.407L368.359 303.996L363.626 273.991L336.88 271.959V271.914C341.078 270.642 345.319 269.481 349.606 268.454H349.651L367.489 269.816L372.222 299.8L400.463 301.965Z" fill="#A5DBFF"/>
<path d="M635.014 697.171V702.328L631.778 700.431L612.733 719.474L586.903 703.512L566.877 723.538L563.707 720.39L586.234 697.863L612.086 713.825L631.041 694.849L635.014 697.171Z" fill="#A5DBFF"/>
<path d="M222.525 672.312L222.523 628.482L244.892 668.589L285.276 665.939L253.684 683.583L271.077 716.745L239.182 693.366L221.746 726.593L221.763 692.704L183.975 683.485L222.525 672.312Z" fill="#FFE400"/>
<path d="M230.503 680.543C230.503 682.223 229.142 683.583 227.464 683.583C225.784 683.583 224.423 682.222 224.423 680.543C224.423 678.865 225.784 677.504 227.464 677.504C229.142 677.503 230.503 678.864 230.503 680.543Z" fill="#21252A"/>
<path d="M245.703 676.934C245.703 678.613 244.342 679.973 242.664 679.973C240.985 679.973 239.624 678.612 239.624 676.934C239.624 675.254 240.985 673.893 242.664 673.893C244.343 673.893 245.703 675.254 245.703 676.934Z" fill="#21252A"/>
<path d="M236.132 683.875C233.674 683.875 232.232 679.966 232.165 679.783C232.061 679.493 232.209 679.173 232.5 679.069C232.793 678.969 233.111 679.115 233.213 679.403C233.226 679.443 234.712 683.323 236.592 682.676C238.535 682.003 237.577 678.449 237.566 678.414C237.484 678.116 237.657 677.81 237.956 677.726C238.249 677.648 238.56 677.819 238.642 678.115C238.693 678.303 239.889 682.718 236.958 683.733C236.671 683.831 236.396 683.875 236.132 683.875Z" fill="#21252A"/>
</svg>
