<svg xmlns="http://www.w3.org/2000/svg" xmlns:xlink="http://www.w3.org/1999/xlink" width="467" height="456" fill="none" xmlns:v="https://vecta.io/nano"><style><![CDATA[.B{fill:#eb7dff}.C{fill:#fee8da}.D{fill:#ffe400}.E{fill:#21252a}.F{fill:#a5dbff}.G{fill:#512a8d}]]></style><path d="M166 299.5a9 9 0 0 1-9-9V155c0-22.4 4.7-44 14-64V62.4c0-8.6 7-15.5 15.6-15.5H201C230 17 270.3 0 312 0a156 156 0 0 1 111 46.9l9.6-.1C442 47 451 52 451 62.4v23.7c10.5 21.2 16 45 16 68.8v135.5a9 9 0 0 1-9 9H166h0z" fill="#fff"/><path d="M458 155v53.4l-.3.4.3.4v9l-.4.4.4.4v9l-.4.3.4.4v9l-.3.4.3.4v9l-.3.4.3.3v9l-.3.4.3.3v9l-.3.4.3.3v9l-.3.4.3.4v9l-.4.4.4.4v3.3h-15.8l-1.2-.2-2.4.2h-43l-1.2-.3-2.4.3h-43l-1-.2-2.5.2h-43l-1-.3-2.6.3h-43l-.8-.3-2.8.3h-43l-.6-.3-15-7.4-19.5 7.7H166v-.6l.5-.3-.5-.4v-9l.5-.4-.5-.4v-9l.3-.4-.3-.3V155A146 146 0 0 1 312 9c21.7 0 42.3 4.7 60.8 13.2 0 0 3.2 10 8 12.8 4 2.4 18.3 2.8 18.3 2.8a149 149 0 0 1 16.1 13.9c26.4 26.4 42.8 63 42.8 103.2z" fill="#9f06c8"/><path d="M458 208.4v.7l-292 61.3v-.7l292-61.3zm0 9.8v.7l-292 61.3v-.8L458 218zm0 9.8v.7L166 290v-.8L458 228zm0 9.7v.7l-248.2 52h-3.6L458 237.7zm0 9.7v.7l-201.8 42.3h-3.6l205.3-43zm0 9.8v.7l-155.3 32.6H299l159-33.3zm0 9.8v.7l-108.8 22.8h-3.6L458 267zm0 9.7v.7l-62.4 13H392l66-13.8zm0 9.8v.7l-16 3.3h-3.6l19.4-4z" class="C"/><path d="M444.5 283c7.8-3.7 11.2-13 7.6-20.8s-13-11.2-20.8-7.6-11.2 13-7.6 20.8 13 11.2 20.8 7.6z" fill="#00f4fc"/><path d="M445.8 167.5c8-3.3 11.8-12.5 8.4-20.5s-12.5-11.8-20.5-8.4S422 151 425.3 159s12.5 11.8 20.5 8.4zm-257.8-4c8-3.3 11.8-12.5 8.5-20.5s-12.5-11.8-20.5-8.5-11.8 12.5-8.5 20.5 12.5 12 20.5 8.5z" class="D"/><path d="M209.2 290.5h-34.3l-4.7-2.5 36.3-24 2.7 26.4z" class="F"/><path d="M399 37.8l-14.4 1.7-10 1.2-12 1.4 10.3-20c9.3 4.3 18.2 9.5 26.3 15.6z" class="B"/><g class="C"><use xlink:href="#B"/><use xlink:href="#B" x="143.5" y="-1.9"/><use xlink:href="#B" x="-63.2" y="199"/><use xlink:href="#B" x="211.7" y="122.2"/></g><path d="M435.4 271.5h-249c-3.6 0-6.6-3-6.6-6.6V62.4c0-3.6 3-6.6 6.6-6.6h249c3.6 0 6.6 3 6.6 6.6V265c0 3.6-3 6.6-6.6 6.6z" class="E"/><g class="G"><path d="M425.5 69.3H196.2V258h229.3V69.3z"/><path d="M424.4 71l-.8-1L440 57.6c.3-.2.7-.2 1 .1s.2.7-.1 1L424.4 71zM440 271l-16.3-14 .7-1 16.3 14c.2.2.3.6.1.8s-.6.3-.8.1zm-258-.3c-.2-.2-.2-.6 0-.8l17-15.8.8.8-17 15.8c-.2.2-.6.2-.8 0zm17-198.2l-17-15.2c-.2-.2-.3-.6 0-.8s.6-.3.8 0l17 15.2-.7.8z"/></g><path d="M414.6 78.3H207V249h207.5V78.3z" class="F"/><path d="M404 191.3H216.6V249H404v-57.7z" class="B"/><g fill="#9f06c8"><path opacity=".1" d="M404 203.4H216.6V236H404v-32.6z"/><path opacity=".1" d="M404 203.4H216.6V222H404v-18.5z"/></g><path d="M404 191.3V225h-15.7v-13.4h-17.6v21h-15.3v-20.3h-13v26h-15v-26.8l-11.8-.8V223l-12-.4v-11.5H291V240h-11v-29h-8.8v10.3h-12.6v-10.7h-8.8v18.4h-15V212h-18.4v-20.7H404z" class="G"/><path d="M290.6 124.7v7.6h-76.2V126h9.2v-10H235v-11h13.5v4h12.7v5.4H278v10.2h12.7zm102.8 37.5v7.6h-76.2v-6.4h9.2v-10H338v-11h13.5v4H364v5.4h16.6V162h12.7zM304 179.5v3h-43.6V176h8v-7h15v4h12v6.6h8.7z" class="C"/><path d="M381.6 102.5l-8.8-10.8-10.3 8.2-10.7-8.2-8.5 10.8V119l18.8 12.5v.5l.4-.3.4.3v-.5l18.8-12.5v-16.3h0zm-122.8 47l-7.6-9.3-9 7-9.2-7-7.3 9.3v14l16.2 10.8v.4l.3-.2.3.2v-.4l16.2-10.8v-14z" class="B"/><path d="M273.3 159.7v-2h-2v-2h4v2h6v-4H273v-2h-2v-4h2v-2h10.2v2h2v2h-4v-2h-6v4h8.2v2h2v4h-2v2h-10.2zm20.3 0v-12.2h-4v-2h12.2v2h-4v12.2h-4zm10.2 0v-10.2h2v-2h2v-2h6v2h2v2h2v10.2h-4v-4h-6v4h-4zm4-6h6v-4h-2v-2h-2v2h-2v4h0zm12.2 6v-14.3h12.2v2h2v6h-4v2h2v2h2v2h-6v-2h-2v-2h-2v4h-4 0zm4-6h4v-2h2v-4h-6v6h0zm18.5 6v-12.2h-4v-2h12.2v2h-4v12.2h-4zM271.2 141v-14.3h12.2v2h2v6h-2v2h-8.2v4h-4 0zm4-6h6v-6h-6v6zm12.3 6v-14.3h12.2v2h2v6h-4v2h2v2h2v2h-6v-2h-2v-2h-2v4h-4 0zm4-6h4v-2h2v-4h-6v6zm12.3 6v-14.3H318v2h-10v4h8.2v2H308v4h10v2h-14.3 0zm18.4 0v-2h-2v-2h4v2h6v-4H322v-2h-2v-4h2v-2h10.2v2h2v2h-4v-2h-6v4h8.2v2h2v4h-2v2h-10.2zm16.3 0v-2h-2v-2h4v2h6v-4h-8v-2h-2v-4h2v-2h10.2v2h2v2h-4v-2h-6v4h8.2v2h2v4h-2v2h-10.2z" class="E"/><g class="C"><use xlink:href="#C"/><use xlink:href="#C" x="116.3" y="46.2"/><use xlink:href="#C" x="40.7" y="109.1"/><use xlink:href="#C" x="-50.7" y="98.8"/><path opacity=".1" d="M414.6 78.3L207 249.2l207.7-.1V78.3z"/><use xlink:href="#D"/><use xlink:href="#D" x="63.1"/></g><path d="M333.5 38c-.4 0-.8-.3-1-.7l-1.4-7-8.2-1.8c-.4-.1-.6-.4-.7-.8l-.7-7.3-7.7-1c-.5-.1-.8-.5-.8-1s.5-.8 1-.8l8.4 1c.4.1.7.4.8.8l.7 7.4 8 1.8c.3.1.6.3.7.7l1.5 7.5c.1.5-.2 1-.7 1h-.2zM301 285.7c-.2 0-.5-.1-.6-.3-.3-.4-.3-1 .1-1.2l6.3-5.7c.3-.3.8-.3 1-.1l6 4.2 6.6-5c.3-.2.6-.2 1-.1l6.7 3.7c.4.2.6.8.3 1.2s-.8.6-1.2.3l-6.2-3.4-6.6 5c-.3.2-.7.2-1 0l-6-4.2-5.8 5.3c-.2.2-.4.2-.6.2z" class="E"/><path d="M287.5 28c10 5 14 17.2 9 27.2a20 20 0 0 1-7 7.8c-.4-7-4.4-13.6-11-17s-14.4-2.7-20.2 1a20 20 0 0 1 2.1-10.2c5-10 17.2-14 27.2-9z" class="D"/><path d="M12 447c0 4.8 4 8.7 8.7 8.7h252.8c4.8 0 8.7-4 8.7-8.7v-28.6l21.4-6.6c3.7-1 6-4.5 6-8.3v-23.7c0-3.3-2-6.3-4.8-7.8l-22.7-11.4v-75.7c0-36-14-70-39.6-95.6-12.4-12.4-26.7-22-42.6-28.8C198 148.5 190 140 180 140h-3.3c-6.6 0-12.6 4-16.4 10.3-8-.8-16.3-.8-24.5-.1-4-5.3-9.3-8.5-15.2-8.5h-3.3c-9 0-16.5 7-19.5 17.3-20 7.8-37.8 20.4-52 36.5l-22.6.1c-3 0-5.6 1.5-7.3 4L5 216c-5 7.5-6.3 16.8-3.6 25.4l11 34.4-.3 171z" fill="#fff"/><path d="M273.7 284.8v19l-1.5 1.7 1.5 3.4v138H21v-92l2.2-4-2.2-2.5v-63.8a126 126 0 0 1 44.2-96l2.2-2a126 126 0 0 1 80-28.5 126 126 0 0 1 89.4 37 126 126 0 0 1 37 89.4z" class="F"/><path d="M273.7 304v5l-.2-.2-5.5-8-8.6 4.7c-.7.4-1.5.2-2-.5l-5.5-8-8.6 4.7c-.7.4-1.5.2-2-.5l-5.5-8-8.6 4.7c-.7.4-1.5.2-2-.5l-5.5-8-8.6 4.7c-.7.3-1.5.2-2-.5l-6-9.6c-.5-.7-.3-1.6.4-2s1.6-.3 2 .4l5.5 8 8.6-4.7c.7-.3 1.5-.2 2 .5l5.5 8 8.6-4.7c.7-.3 1.5-.2 2 .5l5.5 8 8.6-4.7c.7-.4 1.5-.2 2 .5l5.5 8 8.6-4.7c.7-.4 1.5-.2 2 .5l4 6zM102 201c-.4.2-.8.3-1.2.2-.3-.1-.7-.3-1-.6l-5.5-8-8.6 4.7c-.7.4-1.5.2-2-.5l-5.5-8-8.6 4.7c-.7.3-1.5.2-2-.5l-3-4.2 2.2-2L69 190l8.6-4.7c.7-.4 1.5-.2 2 .5l5.5 8 8.6-4.7c.7-.4 1.5-.2 2 .5l6.3 9.2c.4.7.3 1.6-.4 2zm-8 232c-.3-.1-.6-.3-1-.6l-5.5-8L79 429c-.7.4-1.5.2-2-.5l-5.5-8-8.6 4.7c-.7.4-1.5.2-2-.5l-5.5-8-8.6 4.7c-.7.4-1.5.2-2-.5l-5.5-8-8.6 4.7c-.7.4-1.5.2-2-.5l-6.3-9.2c-.5-.7-.3-1.6.4-2s1.6-.3 2 .4l5.5 8 8.6-4.7c.7-.4 1.5-.2 2 .5l5.5 8 8.6-4.7c.7-.4 1.5-.2 2 .5l5.5 8 8.6-4.7c.7-.4 1.5-.2 2 .5l5.5 8 8.6-4.7c.7-.4 1.5-.2 2 .5l6.3 9.2c.5.7.3 1.6-.4 2-.4.2-.8.3-1.2.2z" class="B"/><path d="M246.5 248l-22.8 13 2.7 4.7 22.8-13-2.7-4.7zm-216 101.3L21 355v-6.3l7-4 2.7 4.7zM266 422l-23 13 2.7 4.7 22.8-13-2.7-4.7zm-89.4-174L154 261l2.7 4.7 22.8-13-2.7-4.7zm46.6 76.7l-22.8 13 2.7 4.7 22.8-13-2.7-4.7zm-92.7 115L118 447h-11l20.6-12 2.7 4.7z" class="D"/><g class="C"><use xlink:href="#E"/><use xlink:href="#E" y="60.4"/><path d="M109 405.3c0 3-2.6 5.7-5.7 5.7s-5.7-2.6-5.7-5.7 2.6-5.7 5.7-5.7 5.7 2.6 5.7 5.7zm-71 33.2c3 0 5.7-2.6 5.7-5.7S41 427 38 427s-5.7 2.6-5.7 5.7 2.6 5.7 5.7 5.7z"/><use xlink:href="#E" x="-60.5" y="-83.8"/></g><use xlink:href="#F" class="B"/><path d="M120.6 188c6.7 0 12.2-8.4 12.2-18.8s-5.4-18.8-12.2-18.8-12.2 8.4-12.2 18.8S114 188 120.6 188z" class="D"/><path d="M120.8 186.4c-6 0-11-7.7-11-17.2s5-17.2 11-17.2 11 7.7 11 17.2-5 17.2-11 17.2zm0-34c-5.8 0-10.4 7.5-10.4 16.6s4.7 16.6 10.4 16.6 10.4-7.5 10.4-16.6-4.7-16.6-10.4-16.6zm29.2 64.4c6.7 0 12.2-8.4 12.2-18.8s-5.4-18.8-12.2-18.8-12 8.5-12 18.8 5.4 18.8 12.2 18.8z" class="B"/><use xlink:href="#F" x="36" y="28.8" class="D"/><g class="B"><path d="M153.6 215.3c-6 0-11-7.7-11-17.2s5-17.2 11-17.2 11 7.7 11 17.2-5 17.2-11 17.2zm0-34c-5.8 0-10.4 7.5-10.4 16.6s4.7 16.6 10.4 16.6S164 207.2 164 198s-4.7-16.6-10.4-16.6z"/><use xlink:href="#F" x="59.4" y="-1.7"/></g><use xlink:href="#F" x="62.7" y="-1.7" class="D"/><path d="M180.2 184.7c-6 0-11-7.7-11-17.2s5-17.2 11-17.2 11 7.7 11 17.2-5 17.2-11 17.2zm0-34c-5.8 0-10.4 7.5-10.4 16.6s4.7 16.6 10.4 16.6 10.4-7.5 10.4-16.6S186 151 180.2 151z" class="B"/><path d="M194.6 327.6L67 348l-7.8 1.5-14.6-2-34.8-109c-2-6-1-12.6 2.5-18l11-16.5h.1l127.8-.6 43.4 123.8z" class="G"/><path d="M67 348l-7.8 1.5-14.6-2-34.8-109c-2-6-1-12.6 2.5-18l11-16.5h.1L67 348z" class="E"/><path d="M301.3 379.7v23.7l-135.5 42-.8.2L64 377l2-30 129.5-20L301 379.5l.4.2z" class="G"/><g class="E"><path d="M170.6 420.4l-4.8 25-.8.2-100.7-68.3L66 347l104.6 73.4z"/><path d="M66 347.5c-.3 0-.5-.2-.6-.5 0-.3.2-.6.5-.7l128.4-20c.3-.1.6.2.7.5s-.2.6-.5.7L66 347.5H66zm64.2-4.7l-1.3.2 3 24 1.3-.2-3-24z"/><path d="M117 367.4l14.3-9 17.4 7.5c1.5.5 2 2.6.6 3.5-4.2 3.2-14 7.7-32.2 1.7-1.8-.6-2-3-.2-3.8z"/></g><path d="M146 337.8c1 5.2-6.3 11-16.3 13s-19-.6-20-5.8 6.3-11 16.3-13 19 .6 20 5.8z" class="B"/><path d="M127.6 334c-1 .5-1.6 1.6-.8 2.4.4.4 1 .6 1.6.7a52 52 0 0 0 7 1.3c1 .1 2 .2 3 .1s2-.5 2.2-1.2c.7-1-.3-2.4-1.5-3.4-2.4-2-9-1.3-11.5.1z" class="C"/><g class="E"><path d="M236.3 375c-.3 0-.6-.2-.6-.5-.1-.4.1-.7.5-.8l30-7.7c.3-.1.7.1.8.5s-.1.7-.5.8l-30 7.7h-.2zm4.3 4.5c-.3 0-.6-.2-.6-.5-.1-.4.1-.7.5-.8l33.8-8.8c.4-.1.7.1.8.5s-.1.7-.5.8l-33.8 8.8h-.2zm5.8 5.8c-.3 0-.6-.2-.6-.5-.1-.4.1-.7.5-.8l36.2-10.2c.3-.1.7.1.8.5s-.1.7-.5.8l-36.2 10.2h-.2z"/><path opacity=".1" d="M301.3 379.7v23.7l-135.5 42 4.8-25 130.3-41 .4.2z"/></g><path d="M192 344c0 2.6-4.3 4.6-9.7 4.6s-9.7-2-9.7-4.6 4.3-4.6 9.7-4.6 9.7 2 9.7 4.6zm24.7 3.2c.2 2.5-4 5-9.2 5.5s-9.8-1.2-10-3.8 4-5 9.2-5.5 9.8 1.2 10 3.8zm-32 9.8c0 2.6-4.3 4.6-9.7 4.6s-9.7-2-9.7-4.6 4.3-4.6 9.7-4.6 9.7 2 9.7 4.6zm14.7 8.2c5.3 0 9.6-2 9.6-4.6s-4.3-4.6-9.6-4.6-9.7 2-9.7 4.6 4.3 4.6 9.7 4.6z" class="B"/><g class="F"><use xlink:href="#G"/><use xlink:href="#G" x="26.6" y="-7"/><use xlink:href="#G" x="-9.4" y="-11.6"/><use xlink:href="#G" x="18.3" y="-17.4"/><path d="M69 329L36 217.4l111.7-2.4 33.2 99L69 329z"/></g><path d="M71.7 329L38.6 217.4l111.7-2.4 33.2 99-111.7 15z" class="C"/><path d="M120.8 249l17.2-1.4c3.2-.3 5.3 3.5 3.5 6.3l-9.4 15.2 6.6 16.8c1.2 3-1.5 6.4-4.6 5.5l-16.7-4.7-13.2 11.8c-2.4 2.2-6.2.5-6.4-3l-1-18-14.7-9.5c-2.7-1.8-2.3-6 .7-7.3l16-6.5 4-17.6c.8-3.3 4.8-4.2 6.8-1.6l10.8 14z" class="D"/><path d="M108.3 265.4c-.1 1.8-1.5 3.3-3.3 3.2s-3-1.6-3-3.4 1.5-3.3 3.3-3.2 3 1.6 3 3.4zm16-3.4c-.1 1.8-1.5 3.3-3.3 3.2s-3-1.6-3-3.4 1.5-3.3 3.3-3.2 3 1.6 3 3.4zm-9.6 10c-2.8 0-4.5-5.3-4.7-6-.1-.3.1-.6.4-.7s.6.1.7.4c.5 1.5 2.2 5.6 4 5 1.7-.5 1.2-4.6 1-6-.1-.3.1-.6.4-.7s.6.1.7.4c.1.7 1.4 6.5-1.7 7.3-.2.1-.4.1-.6.1z" class="E"/><path opacity="0" d="M71.7 329l78.6-114 33.2 99-111.7 15z" fill="#ffa7bb"/><path d="M222.5 239.4h-44.2a36 36 0 0 1 3-14.2c1.4-3 4.2-6.5 7.4-5.5 2 .5 3.2 2.5 4 4.3 1.5 3.2 2.7 6.6 3.3 10 1.6-8 3.4-16.8 9.6-22.3 1.6-1.4 3.6-2.6 5.7-2.8 3.2-.2 6 1.8 7.8 4.5a22 22 0 0 1 2.7 9c.7 5.6 1 11.3.5 17zM70 401.3H25.8a36 36 0 0 1 3-14.2c1.4-3 4.2-6.5 7.4-5.5 2 .5 3.2 2.5 4 4.3 1.5 3.2 2.7 6.6 3.3 10C45 388 47 379 53 373.6c2-1.4 4-2.6 6-2.6 3.2-.2 6 1.8 7.8 4.5a22 22 0 0 1 2.7 9c.7 5.6 1 11.3.5 17z" class="C"/><defs ><path id="B" d="M242 44.2c0 3-2.5 5.5-5.5 5.5s-5.5-2.5-5.5-5.5 2.5-5.5 5.5-5.5 5.5 2.5 5.5 5.5z"/><path id="C" d="M283.3 89.5l5.3 3-5.3 3-3 5.3-3-5.3-5.3-3 5.3-3 3-5.3 3 5.3z"/><path id="D" d="M254.2 267h-40.5c-1.4 0-2.5-1-2.5-2.5s1-2.5 2.5-2.5h40.5c1.4 0 2.5 1 2.5 2.5s-1 2.5-2.5 2.5z"/><path id="E" d="M260.8 281.4c3 0 5.7-2.6 5.7-5.7s-2.6-5.7-5.7-5.7-5.7 2.6-5.7 5.7 2.6 5.7 5.7 5.7z"/><path id="F" d="M117.3 188c6.7 0 12.2-8.4 12.2-18.8s-5.4-18.8-12.2-18.8-12.2 8.4-12.2 18.8 5.4 18.8 12.2 18.8z"/><path id="G" d="M184.4 399.4c.4 1.6-3 3.8-7.7 4.8s-8.7.5-9-1 3-3.8 7.7-4.8 8.7-.5 9 1z"/></defs></svg>