<svg width="150" height="30" viewBox="0 0 150 30" fill="none" xmlns="http://www.w3.org/2000/svg">
<path d="M11.2546 27.8571V28.0952H11.5177V27.8571H11.2546ZM11.2546 24.2571L11.0685 24.0888L10.9914 24.1586V24.2571H11.2546ZM15.2051 20.6829V20.4448H15.0961L15.019 20.5145L15.2051 20.6829ZM17.1946 20.6829L17.38 20.5139L17.303 20.4448H17.1946V20.6829ZM21.1735 24.2571H21.4367V24.1581L21.3589 24.0881L21.1735 24.2571ZM21.1735 27.8571H20.9103V28.0952H21.1735V27.8571ZM25.124 27.8571V28.0952H25.3872V27.8571H25.124ZM25.124 22.4829H25.3872V22.3847L25.3108 22.3151L25.124 22.4829ZM21.1735 18.8829L20.9868 18.7151L20.8027 18.8829L20.9868 19.0506L21.1735 18.8829ZM25.124 15.2829L25.3108 15.4506L25.3872 15.381V15.2829H25.124ZM25.124 9.85714H25.3872V9.61905H25.124V9.85714ZM21.1735 9.85714V9.61905H20.9103V9.85714H21.1735ZM21.1735 13.4829L21.3596 13.6512L21.4367 13.5815V13.4829H21.1735ZM17.1946 17.0829V17.321H17.3036L17.3806 17.2512L17.1946 17.0829ZM15.2051 17.0829L15.0183 17.2506L15.0955 17.321H15.2051V17.0829ZM11.2546 13.4829H10.9914V13.581L11.0678 13.6506L11.2546 13.4829ZM11.2546 9.85714H11.5177V9.61905H11.2546V9.85714ZM7.27561 9.85714V9.61905H7.01245V9.85714H7.27561ZM7.27561 15.2829H7.01245V15.3815L7.08953 15.4512L7.27561 15.2829ZM11.2546 18.8829L11.4406 19.0512L11.6267 18.8829L11.4406 18.7145L11.2546 18.8829ZM7.27561 22.4829L7.08953 22.3145L7.01245 22.3842V22.4829H7.27561ZM7.27561 27.8571H7.01245V28.0952H7.27561V27.8571ZM11.5177 27.8571V24.2571H10.9914V27.8571H11.5177ZM11.4406 24.4255L15.3912 20.8512L15.019 20.5145L11.0685 24.0888L11.4406 24.4255ZM15.2051 20.921H17.1946V20.4448H15.2051V20.921ZM17.0091 20.8518L20.9881 24.4262L21.3589 24.0881L17.38 20.5139L17.0091 20.8518ZM20.9103 24.2571V27.8571H21.4367V24.2571H20.9103ZM21.1735 28.0952H25.124V27.619H21.1735V28.0952ZM25.3872 27.8571V22.4829H24.8609V27.8571H25.3872ZM25.3108 22.3151L21.3602 18.7151L20.9868 19.0506L24.9373 22.6506L25.3108 22.3151ZM21.3602 19.0506L25.3108 15.4506L24.9373 15.1151L20.9868 18.7151L21.3602 19.0506ZM25.3872 15.2829V9.85714H24.8609V15.2829H25.3872ZM25.124 9.61905H21.1735V10.0952H25.124V9.61905ZM20.9103 9.85714V13.4829H21.4367V9.85714H20.9103ZM20.9874 13.3145L17.0085 16.9145L17.3806 17.2512L21.3596 13.6512L20.9874 13.3145ZM17.1946 16.8448H15.2051V17.321H17.1946V16.8448ZM15.3918 16.9151L11.4413 13.3151L11.0678 13.6506L15.0183 17.2506L15.3918 16.9151ZM11.5177 13.4829V9.85714H10.9914V13.4829H11.5177ZM11.2546 9.61905H7.27561V10.0952H11.2546V9.61905ZM7.01245 9.85714V15.2829H7.53877V9.85714H7.01245ZM7.08953 15.4512L11.0685 19.0512L11.4406 18.7145L7.46169 15.1145L7.08953 15.4512ZM11.0685 18.7145L7.08953 22.3145L7.46169 22.6512L11.4406 19.0512L11.0685 18.7145ZM7.01245 22.4829V27.8571H7.53877V22.4829H7.01245ZM7.27561 28.0952H11.2546V27.619H7.27561V28.0952ZM31.3768 18.8829H31.1137V19.121H31.3768V18.8829ZM31.3768 17.0829L31.1895 16.9157L31.1137 16.9852V17.0829H31.3768ZM35.3273 13.4571V13.219H35.2173L35.14 13.29L35.3273 13.4571ZM41.2958 13.4571H41.5589V13.219H41.2958V13.4571ZM41.2958 18.8829V19.121H41.5589V18.8829H41.2958ZM31.3768 27.8571V28.0952H31.64V27.8571H31.3768ZM31.3768 22.4829V22.2448H31.1137V22.4829H31.3768ZM41.2958 22.4829H41.5589V22.2448H41.2958V22.4829ZM41.2958 27.8571H41.0326V28.0952H41.2958V27.8571ZM45.2463 27.8571V28.0952H45.5095V27.8571H45.2463ZM45.2463 9.85714H45.5095V9.61905H45.2463V9.85714ZM33.3379 9.85714V9.61905H33.2281L33.151 9.6896L33.3379 9.85714ZM27.3979 15.2829L27.211 15.1153L27.1347 15.1849V15.2829H27.3979ZM27.3979 27.8571H27.1347V28.0952H27.3979V27.8571ZM31.64 18.8829V17.0829H31.1137V18.8829H31.64ZM31.5642 17.25L35.5147 13.6243L35.14 13.29L31.1895 16.9157L31.5642 17.25ZM35.3273 13.6952H41.2958V13.219H35.3273V13.6952ZM41.0326 13.4571V18.8829H41.5589V13.4571H41.0326ZM41.2958 18.6448H31.3768V19.121H41.2958V18.6448ZM31.64 27.8571V22.4829H31.1137V27.8571H31.64ZM31.3768 22.721H41.2958V22.2448H31.3768V22.721ZM41.0326 22.4829V27.8571H41.5589V22.4829H41.0326ZM41.2958 28.0952H45.2463V27.619H41.2958V28.0952ZM45.5095 27.8571V9.85714H44.9831V27.8571H45.5095ZM45.2463 9.61905H33.3379V10.0952H45.2463V9.61905ZM33.151 9.6896L27.211 15.1153L27.585 15.4504L33.525 10.0247L33.151 9.6896ZM27.1347 15.2829V27.8571H27.661V15.2829H27.1347ZM27.3979 28.0952H31.3768V27.619H27.3979V28.0952ZM52.061 27.8571V28.0952H52.3242V27.8571H52.061ZM52.061 20.6829V20.4448H51.7979V20.6829H52.061ZM58.001 20.6829L58.1863 20.5139L58.1095 20.4448H58.001V20.6829ZM61.98 24.2571H62.2431V24.1581L62.1652 24.0881L61.98 24.2571ZM61.98 27.8571H61.7168V28.0952H61.98V27.8571ZM65.9305 27.8571V28.0952H66.1937V27.8571H65.9305ZM65.9305 22.4829H66.1937V22.3847L66.1171 22.3151L65.9305 22.4829ZM61.98 18.8829L61.7931 18.7151L61.6092 18.8829L61.7931 19.0506L61.98 18.8829ZM65.9305 15.2829L66.1171 15.4506L66.1937 15.381V15.2829H65.9305ZM65.9305 9.85714H66.1937V9.61905H65.9305V9.85714ZM61.98 9.85714V9.61905H61.7168V9.85714H61.98ZM61.98 13.4829L62.166 13.6512L62.2431 13.5815V13.4829H61.98ZM58.001 17.0829V17.321H58.11L58.1871 17.2512L58.001 17.0829ZM52.061 17.0829H51.7979V17.321H52.061V17.0829ZM52.061 9.85714H52.3242V9.61905H52.061V9.85714ZM48.0821 9.85714V9.61905H47.8189V9.85714H48.0821ZM48.0821 27.8571H47.8189V28.0952H48.0821V27.8571ZM52.3242 27.8571V20.6829H51.7979V27.8571H52.3242ZM52.061 20.921H58.001V20.4448H52.061V20.921ZM57.8155 20.8518L61.7945 24.4262L62.1652 24.0881L58.1863 20.5139L57.8155 20.8518ZM61.7168 24.2571V27.8571H62.2431V24.2571H61.7168ZM61.98 28.0952H65.9305V27.619H61.98V28.0952ZM66.1937 27.8571V22.4829H65.6673V27.8571H66.1937ZM66.1171 22.3151L62.1666 18.7151L61.7931 19.0506L65.7437 22.6506L66.1171 22.3151ZM62.1666 19.0506L66.1171 15.4506L65.7437 15.1151L61.7931 18.7151L62.1666 19.0506ZM66.1937 15.2829V9.85714H65.6673V15.2829H66.1937ZM65.9305 9.61905H61.98V10.0952H65.9305V9.61905ZM61.7168 9.85714V13.4829H62.2431V9.85714H61.7168ZM61.7939 13.3145L57.815 16.9145L58.1871 17.2512L62.166 13.6512L61.7939 13.3145ZM58.001 16.8448H52.061V17.321H58.001V16.8448ZM52.3242 17.0829V9.85714H51.7979V17.0829H52.3242ZM52.061 9.61905H48.0821V10.0952H52.061V9.61905ZM47.8189 9.85714V27.8571H48.3452V9.85714H47.8189ZM48.0821 28.0952H52.061V27.619H48.0821V28.0952ZM72.1766 18.8829H71.9134V19.121H72.1766V18.8829ZM72.1766 17.0829L71.9892 16.9157L71.9134 16.9852V17.0829H72.1766ZM76.1271 13.4571V13.219H76.0171L75.9397 13.29L76.1271 13.4571ZM82.0955 13.4571H82.3587V13.219H82.0955V13.4571ZM82.0955 18.8829V19.121H82.3587V18.8829H82.0955ZM72.1766 27.8571V28.0952H72.4397V27.8571H72.1766ZM72.1766 22.4829V22.2448H71.9134V22.4829H72.1766ZM82.0955 22.4829H82.3587V22.2448H82.0955V22.4829ZM82.0955 27.8571H81.8324V28.0952H82.0955V27.8571ZM86.046 27.8571V28.0952H86.3092V27.8571H86.046ZM86.046 9.85714H86.3092V9.61905H86.046V9.85714ZM74.1376 9.85714V9.61905H74.0279L73.9508 9.6896L74.1376 9.85714ZM68.1976 15.2829L68.0108 15.1153L67.9345 15.1849V15.2829H68.1976ZM68.1976 27.8571H67.9345V28.0952H68.1976V27.8571ZM72.4397 18.8829V17.0829H71.9134V18.8829H72.4397ZM72.3639 17.25L76.3145 13.6243L75.9397 13.29L71.9892 16.9157L72.3639 17.25ZM76.1271 13.6952H82.0955V13.219H76.1271V13.6952ZM81.8324 13.4571V18.8829H82.3587V13.4571H81.8324ZM82.0955 18.6448H72.1766V19.121H82.0955V18.6448ZM72.4397 27.8571V22.4829H71.9134V27.8571H72.4397ZM72.1766 22.721H82.0955V22.2448H72.1766V22.721ZM81.8324 22.4829V27.8571H82.3587V22.4829H81.8324ZM82.0955 28.0952H86.046V27.619H82.0955V28.0952ZM86.3092 27.8571V9.85714H85.7829V27.8571H86.3092ZM86.046 9.61905H74.1376V10.0952H86.046V9.61905ZM73.9508 9.6896L68.0108 15.1153L68.3847 15.4504L74.3247 10.0247L73.9508 9.6896ZM67.9345 15.2829V27.8571H68.4608V15.2829H67.9345ZM68.1976 28.0952H72.1766V27.619H68.1976V28.0952ZM98.9713 27.8571V28.0952H99.2345V27.8571H98.9713ZM98.9713 13.4571V13.219H98.7081V13.4571H98.9713ZM105.878 13.4571V13.6952H106.141V13.4571H105.878ZM105.878 9.85714H106.141V9.61905H105.878V9.85714ZM88.0292 9.85714V9.61905H87.766V9.85714H88.0292ZM88.0292 13.4571H87.766V13.6952H88.0292V13.4571ZM94.9923 13.4571H95.2555V13.219H94.9923V13.4571ZM94.9923 27.8571H94.7292V28.0952H94.9923V27.8571ZM99.2345 27.8571V13.4571H98.7081V27.8571H99.2345ZM98.9713 13.6952H105.878V13.219H98.9713V13.6952ZM106.141 13.4571V9.85714H105.614V13.4571H106.141ZM105.878 9.61905H88.0292V10.0952H105.878V9.61905ZM87.766 9.85714V13.4571H88.2923V9.85714H87.766ZM88.0292 13.6952H94.9923V13.219H88.0292V13.6952ZM94.7292 13.4571V27.8571H95.2555V13.4571H94.7292ZM94.9923 28.0952H98.9713V27.619H94.9923V28.0952ZM111.845 24.2571H111.582V24.4952H111.845V24.2571ZM111.845 13.4571V13.219H111.582V13.4571H111.845ZM121.764 13.4571H122.027V13.219H121.764V13.4571ZM121.764 24.2571V24.4952H122.027V24.2571H121.764ZM123.753 27.8571V28.0952H123.863L123.94 28.0255L123.753 27.8571ZM125.714 26.0829L125.901 26.2512L125.978 26.1814V26.0829H125.714ZM125.714 11.6829H125.978V11.5862L125.903 11.5169L125.714 11.6829ZM123.753 9.85714L123.942 9.69121L123.865 9.61905H123.753V9.85714ZM109.827 9.85714V9.61905H109.716L109.638 9.69121L109.827 9.85714ZM107.866 11.6829L107.677 11.5169L107.603 11.5862V11.6829H107.866ZM107.866 26.0829H107.603V26.1814L107.68 26.2512L107.866 26.0829ZM109.827 27.8571L109.641 28.0255L109.718 28.0952H109.827V27.8571ZM112.108 24.2571V13.4571H111.582V24.2571H112.108ZM111.845 13.6952H121.764V13.219H111.845V13.6952ZM121.501 13.4571V24.2571H122.027V13.4571H121.501ZM121.764 24.019H111.845V24.4952H121.764V24.019ZM123.94 28.0255L125.901 26.2512L125.528 25.9145L123.567 27.6888L123.94 28.0255ZM125.978 26.0829V11.6829H125.451V26.0829H125.978ZM125.903 11.5169L123.942 9.69121L123.565 10.0231L125.526 11.8488L125.903 11.5169ZM123.753 9.61905H109.827V10.0952H123.753V9.61905ZM109.638 9.69121L107.677 11.5169L108.055 11.8488L110.016 10.0231L109.638 9.69121ZM107.603 11.6829V26.0829H108.129V11.6829H107.603ZM107.68 26.2512L109.641 28.0255L110.013 27.6888L108.052 25.9145L107.68 26.2512ZM109.827 28.0952H123.753V27.619H109.827V28.0952ZM132.523 27.8571V28.0952H132.786V27.8571H132.523ZM132.523 20.6829V20.4448H132.259V20.6829H132.523ZM142.442 20.6829H142.705V20.4448H142.442V20.6829ZM142.442 27.8571H142.178V28.0952H142.442V27.8571ZM146.392 27.8571V28.0952H146.655V27.8571H146.392ZM146.392 9.85714H146.655V9.61905H146.392V9.85714ZM142.442 9.85714V9.61905H142.178V9.85714H142.442ZM142.442 17.0829V17.321H142.705V17.0829H142.442ZM132.523 17.0829H132.259V17.321H132.523V17.0829ZM132.523 9.85714H132.786V9.61905H132.523V9.85714ZM128.544 9.85714V9.61905H128.281V9.85714H128.544ZM128.544 27.8571H128.281V28.0952H128.544V27.8571ZM132.786 27.8571V20.6829H132.259V27.8571H132.786ZM132.523 20.921H142.442V20.4448H132.523V20.921ZM142.178 20.6829V27.8571H142.705V20.6829H142.178ZM142.442 28.0952H146.392V27.619H142.442V28.0952ZM146.655 27.8571V9.85714H146.129V27.8571H146.655ZM146.392 9.61905H142.442V10.0952H146.392V9.61905ZM142.178 9.85714V17.0829H142.705V9.85714H142.178ZM142.442 16.8448H132.523V17.321H142.442V16.8448ZM132.786 17.0829V9.85714H132.259V17.0829H132.786ZM132.523 9.61905H128.544V10.0952H132.523V9.61905ZM128.281 9.85714V27.8571H128.807V9.85714H128.281ZM128.544 28.0952H132.523V27.619H128.544V28.0952Z" fill="#0077FF"/>
<path d="M5.11591 23.5714V19.9714L9.06644 16.3971H11.0559L15.0349 19.9714V23.5714H18.9854V18.1971L15.0349 14.5971L18.9854 10.9971V5.57143H15.0349V9.19714L11.0559 12.7971H9.06644L5.11591 9.19714V5.57143H1.13696V10.9971L5.11591 14.5971L1.13696 18.1971V23.5714H5.11591ZM25.2382 14.5971V12.7971L29.1888 9.17143H35.1572V14.5971H25.2382ZM25.2382 23.5714V18.1971H35.1572V23.5714H39.1077V5.57143H27.1993L21.2593 10.9971V23.5714H25.2382ZM45.9222 23.5714V16.3971H51.8622L55.8412 19.9714V23.5714H59.7917V18.1971L55.8412 14.5971L59.7917 10.9971V5.57143H55.8412V9.19714L51.8622 12.7971H45.9222V5.57143H41.9433V23.5714H45.9222ZM66.038 14.5971V12.7971L69.9885 9.17143H75.957V14.5971H66.038ZM66.038 23.5714V18.1971H75.957V23.5714H79.9075V5.57143H67.9991L62.0591 10.9971V23.5714H66.038ZM92.8325 23.5714V9.17143H99.7388V5.57143H81.8904V9.17143H88.8535V23.5714H92.8325ZM105.706 19.9714V9.17143H115.625V19.9714H105.706ZM117.615 23.5714L119.576 21.7971V7.39714L117.615 5.57143H103.689L101.727 7.39714V21.7971L103.689 23.5714H117.615ZM126.384 23.5714V16.3971H136.303V23.5714H140.253V5.57143H136.303V12.7971H126.384V5.57143H122.405V23.5714H126.384Z" fill="#F2F2F2"/>
</svg>
