<svg width="93" height="60" viewBox="0 0 93 60" fill="none" xmlns="http://www.w3.org/2000/svg">
<g clip-path="url(#clip0_26_550)">
<path d="M23.3715 32.9747C22.801 31.9767 22.4729 30.8197 22.4729 29.5852C22.4729 28.9673 22.5562 28.3692 22.7095 27.8001C22.9934 28.4266 23.3447 29.0143 23.753 29.5547C23.6381 29.7093 23.5675 29.8989 23.5675 30.107C23.5675 30.4047 23.7097 30.6669 23.9267 30.8364C23.6618 31.5131 23.4724 32.2293 23.3715 32.9747ZM24.2366 25.0072C25.4897 25.0135 26.678 25.3037 27.7452 25.8198C27.7235 25.8986 27.7083 25.9801 27.7083 26.0658C27.7083 26.1514 27.7235 26.2327 27.7451 26.3114C26.5388 27.0311 25.5105 28.0298 24.7472 29.2235C24.6641 29.1985 24.5778 29.181 24.4866 29.181C24.3327 29.181 24.19 29.2228 24.0626 29.2902C23.5868 28.6592 23.1913 27.9618 22.8963 27.2109C23.2005 26.3884 23.6608 25.6439 24.2366 25.0072ZM28.5781 22.8121C29.4269 23.3145 30.1822 23.9567 30.8155 24.7052C30.6923 24.847 30.6132 25.0259 30.5943 25.2242C30.1817 25.3031 29.7803 25.414 29.3897 25.5484C29.2246 25.302 28.9447 25.1399 28.6274 25.1399C28.3489 25.1399 28.1024 25.2672 27.9338 25.4643C26.9217 24.9701 25.8071 24.6661 24.6289 24.6067C25.6863 23.6151 27.0574 22.9587 28.5781 22.8121ZM34.5352 25.3734C33.8482 25.1871 33.1292 25.0819 32.3881 25.0692C32.2817 24.6764 31.9286 24.3861 31.5049 24.3857C31.3779 24.3857 31.257 24.4117 31.1471 24.4587C30.6095 23.8197 29.9869 23.2544 29.2953 22.7815C31.4209 22.8018 33.3102 23.8104 34.5352 25.3734ZM30.9756 35.8144C30.8571 35.9627 30.7356 36.1085 30.6077 36.249C30.1631 36.3418 29.7021 36.3912 29.2296 36.3912C26.9521 36.3912 24.9395 35.2547 23.7154 33.5156C23.7863 32.637 23.9862 31.7967 24.2914 31.0108C24.3545 31.0246 24.4196 31.0325 24.4866 31.0325C24.6707 31.0325 24.8412 30.9769 24.9848 30.8829C26.5546 32.2741 28.5981 33.1182 30.8361 33.1182C30.8829 33.1182 30.9291 33.1155 30.9756 33.1146V32.7034C30.9291 32.7043 30.8829 32.7072 30.8361 32.7072C28.708 32.7072 26.7635 31.9088 25.2668 30.5908C25.3534 30.4498 25.4057 30.285 25.4057 30.107C25.4057 29.8348 25.2872 29.5928 25.1016 29.4233C25.8276 28.2979 26.798 27.3538 27.9383 26.6725C28.1067 26.8665 28.3514 26.9915 28.6274 26.9915C28.8629 26.9915 29.0755 26.8996 29.238 26.7527C30.6952 27.8871 31.7862 29.4994 32.2986 31.3667H32.7084C32.1858 29.3639 31.0294 27.6337 29.4749 26.4235C29.5211 26.3135 29.5464 26.1927 29.5464 26.0658C29.5464 26.0202 29.5397 25.9766 29.5333 25.9328C29.8942 25.809 30.2654 25.7074 30.6458 25.6331C30.776 25.9852 31.1099 26.2374 31.5049 26.2374C31.6179 26.2374 31.7249 26.2141 31.8249 26.1766C32.5026 27.4198 32.8894 28.8439 32.8894 30.3587C32.8894 30.7003 32.8667 31.0363 32.8272 31.3667H33.2443C33.2809 31.0357 33.3009 30.6997 33.3009 30.3587C33.3009 28.7598 32.89 27.2571 32.1698 25.9481C32.2896 25.8211 32.3741 25.6604 32.407 25.481C33.2841 25.4985 34.1286 25.6522 34.922 25.9207C35.5948 26.9789 35.9866 28.2356 35.9866 29.5852C35.9866 30.0918 35.9296 30.5847 35.8256 31.06C35.6265 31.2066 35.4208 31.3442 35.2095 31.4736C35.3147 31.5201 35.4112 31.5877 35.4969 31.6802C35.5146 31.6992 35.5321 31.7209 35.5495 31.7425C35.5864 31.7191 35.6245 31.6966 35.6614 31.6723C35.6451 31.7235 35.6265 31.7739 35.6091 31.8245C35.6608 31.9006 35.712 31.9884 35.762 32.0911L36.0372 32.6745C36.2749 32.1444 36.4542 31.5816 36.5647 30.9942C36.5655 30.9939 36.5658 30.9936 36.5667 30.993C36.5748 30.9488 36.5812 30.9037 36.5891 30.8592C36.5978 30.8057 36.6077 30.753 36.6155 30.6991C36.6324 30.5879 36.6466 30.4761 36.6582 30.3634H36.6579C36.6841 30.1073 36.6978 29.848 36.6978 29.5852C36.6978 28.4291 36.4379 27.3342 35.9753 26.3555C35.9753 26.3555 35.9759 26.3557 35.9759 26.3558C35.9744 26.3526 35.9727 26.3496 35.9712 26.3463C35.9433 26.2875 35.9131 26.2298 35.884 26.1718C35.8608 26.1267 35.8387 26.0811 35.8148 26.0365C35.7826 25.9759 35.7489 25.9165 35.7149 25.8571C35.6966 25.8252 35.68 25.7926 35.6611 25.761C35.6608 25.7608 35.6602 25.7606 35.6597 25.7603C34.3594 23.5479 31.9676 22.0632 29.2299 22.0632C28.8783 22.0632 28.533 22.0881 28.1945 22.1355H28.1944C28.1944 22.1355 28.194 22.1355 28.1938 22.1355C28.079 22.1518 27.9652 22.1703 27.8522 22.1917C27.8403 22.1938 27.8285 22.1963 27.8166 22.1988C27.7213 22.2173 27.6267 22.2376 27.5326 22.2596C27.5205 22.2625 27.508 22.2646 27.4957 22.2674C27.4962 22.2678 27.4966 22.2678 27.497 22.2682C25.9732 22.6332 24.6324 23.47 23.6301 24.6148C23.6283 24.6148 23.6265 24.6148 23.6248 24.6152C23.5937 24.6504 23.5661 24.6889 23.5359 24.7248C23.4753 24.7967 23.4163 24.8697 23.3585 24.9437C23.3278 24.983 23.2943 25.0199 23.2645 25.0597C23.2663 25.0596 23.268 25.0595 23.2698 25.0594C23.0039 25.414 22.7668 25.7919 22.5657 26.1916C22.5654 26.1908 22.5651 26.1899 22.565 26.1891C22.5542 26.2105 22.5444 26.2324 22.5339 26.254C22.51 26.3027 22.4866 26.352 22.4637 26.4013C22.4395 26.4534 22.416 26.506 22.393 26.5586C22.3704 26.6106 22.3476 26.6627 22.3261 26.7154C22.3207 26.7286 22.3146 26.7414 22.3093 26.7546C22.3094 26.7553 22.3097 26.7558 22.31 26.7565C21.9577 27.63 21.762 28.5843 21.762 29.5852C21.762 31.2956 22.3296 32.8717 23.2842 34.1352C23.2842 34.1355 23.2841 34.1361 23.2841 34.1364C23.3129 34.1745 23.3433 34.2113 23.3728 34.2488C23.4085 34.2942 23.4433 34.3401 23.4799 34.3846C23.5489 34.4686 23.6196 34.5511 23.6922 34.6319V34.6316C25.0587 36.1518 27.0333 37.1071 29.2299 37.1071C29.4002 37.1071 29.569 37.0998 29.7367 37.0884C29.7358 37.0887 29.7356 37.0893 29.735 37.0896C29.7542 37.0884 29.7733 37.0858 29.7928 37.0843C29.8727 37.0785 29.9521 37.0711 30.0314 37.0626C30.068 37.0588 30.1046 37.0545 30.1413 37.0504C30.2212 37.0404 30.3005 37.029 30.3796 37.017C30.4014 37.0132 30.4238 37.0111 30.4455 37.0076C30.4461 37.0067 30.4464 37.0065 30.447 37.0062C30.6257 36.9766 30.8016 36.9386 30.9756 36.8964V35.8144Z" fill="#F2F2F2"/>
<path d="M31.96 46.2544V47.5729H32.5563C32.7769 47.5729 32.9475 47.5156 33.0681 47.4011C33.1884 47.287 33.2489 47.124 33.2489 46.9124C33.2489 46.7025 33.1884 46.5404 33.0681 46.4259C32.9475 46.3118 32.7769 46.2544 32.5563 46.2544H31.96ZM31.486 45.8643H32.5563C32.9493 45.8643 33.2457 45.9535 33.4459 46.1324C33.6479 46.3091 33.7488 46.5693 33.7488 46.9124C33.7488 47.2586 33.6479 47.5203 33.4459 47.6973C33.2457 47.8744 32.9493 47.9628 32.5563 47.9628H31.96V49.3729H31.486V45.8643Z" fill="#F2F2F2"/>
<path d="M35.0691 47.044C34.8375 47.044 34.6544 47.1347 34.5198 47.3165C34.3853 47.4968 34.3178 47.7444 34.3178 48.0593C34.3178 48.3742 34.3844 48.6224 34.5175 48.8042C34.6521 48.9845 34.836 49.0743 35.0691 49.0743C35.299 49.0743 35.4815 48.9836 35.6161 48.8018C35.7506 48.6201 35.8178 48.3725 35.8178 48.0593C35.8178 47.7473 35.7506 47.5006 35.6161 47.3188C35.4815 47.1356 35.299 47.044 35.0691 47.044ZM35.0691 46.6772C35.4446 46.6772 35.7396 46.7996 35.9541 47.044C36.1685 47.2884 36.2755 47.6267 36.2755 48.0593C36.2755 48.4901 36.1685 48.8285 35.9541 49.0743C35.7396 49.3187 35.4446 49.441 35.0691 49.441C34.6919 49.441 34.3963 49.3187 34.1818 49.0743C33.9691 48.8285 33.8624 48.4901 33.8624 48.0593C33.8624 47.6267 33.9691 47.2884 34.1818 47.044C34.3963 46.7996 34.6919 46.6772 35.0691 46.6772Z" fill="#F2F2F2"/>
<path d="M38.5116 46.8417V47.2462C38.3896 47.1786 38.2666 47.1286 38.1428 47.0958C38.0208 47.0612 37.8973 47.044 37.772 47.044C37.4918 47.044 37.2745 47.1332 37.1195 47.3118C36.9646 47.4889 36.887 47.7379 36.887 48.0593C36.887 48.3804 36.9646 48.6303 37.1195 48.8089C37.2745 48.9859 37.4918 49.0743 37.772 49.0743C37.8973 49.0743 38.0208 49.0579 38.1428 49.0251C38.2666 48.9906 38.3896 48.9397 38.5116 48.8724V49.2719C38.391 49.3284 38.2658 49.3705 38.1359 49.3986C38.0077 49.427 37.8708 49.441 37.7252 49.441C37.3291 49.441 37.0146 49.3164 36.7816 49.0673C36.5482 48.8182 36.4316 48.4822 36.4316 48.0593C36.4316 47.6299 36.5491 47.2922 36.7839 47.0463C37.0202 46.8005 37.3433 46.6772 37.7534 46.6772C37.8862 46.6772 38.0161 46.6916 38.1428 46.7197C38.2698 46.7463 38.3925 46.787 38.5116 46.8417Z" fill="#F2F2F2"/>
<path d="M40.6742 46.8417V47.2462C40.5521 47.1786 40.4292 47.1286 40.3057 47.0958C40.1836 47.0612 40.0598 47.044 39.9348 47.044C39.6547 47.044 39.437 47.1332 39.2821 47.3118C39.1272 47.4889 39.0499 47.7379 39.0499 48.0593C39.0499 48.3804 39.1272 48.6303 39.2821 48.8089C39.437 48.9859 39.6547 49.0743 39.9348 49.0743C40.0598 49.0743 40.1836 49.0579 40.3057 49.0251C40.4292 48.9906 40.5521 48.9397 40.6742 48.8724V49.2719C40.5536 49.3284 40.4283 49.3705 40.2984 49.3986C40.1702 49.427 40.0334 49.441 39.8878 49.441C39.4919 49.441 39.1772 49.3164 38.9441 49.0673C38.711 48.8182 38.5945 48.4822 38.5945 48.0593C38.5945 47.6299 38.7116 47.2922 38.9464 47.0463C39.1827 46.8005 39.5059 46.6772 39.916 46.6772C40.0491 46.6772 40.179 46.6916 40.3057 46.7197C40.4324 46.7463 40.5553 46.787 40.6742 46.8417Z" fill="#F2F2F2"/>
<path d="M43.2491 46.7412V49.3733H42.8196V47.2604L41.5519 49.3733H40.9979V46.7412H41.4275V48.8491L42.6929 46.7412H43.2491Z" fill="#F2F2F2"/>
<path d="M45.8947 46.741V49.3731H45.4651V47.2605L44.1977 49.3731H43.6438V46.741H44.0733V48.8489L45.3384 46.741H45.8947ZM44.0356 45.7163H44.3128C44.33 45.834 44.3762 45.9224 44.4512 45.9821C44.5279 46.04 44.6342 46.069 44.7706 46.069C44.9051 46.069 45.0097 46.04 45.085 45.9821C45.16 45.9241 45.2079 45.8354 45.2283 45.7163H45.5053C45.4896 45.9405 45.4198 46.1088 45.2963 46.2218C45.1725 46.3345 44.9972 46.3909 44.7706 46.3909C44.5436 46.3909 44.3683 46.3345 44.2445 46.2218C44.121 46.1088 44.0513 45.9405 44.0356 45.7163Z" fill="#F2F2F2"/>
<path d="M48.1819 46.8417V47.2462C48.0598 47.1786 47.9369 47.1286 47.8134 47.0958C47.6913 47.0612 47.5675 47.044 47.4425 47.044C47.1624 47.044 46.9447 47.1332 46.7898 47.3118C46.6349 47.4889 46.5576 47.7379 46.5576 48.0593C46.5576 48.3804 46.6349 48.6303 46.7898 48.8089C46.9447 48.9859 47.1624 49.0743 47.4425 49.0743C47.5675 49.0743 47.6913 49.0579 47.8134 49.0251C47.9369 48.9906 48.0598 48.9397 48.1819 48.8724V49.2719C48.0613 49.3284 47.936 49.3705 47.8064 49.3986C47.6779 49.427 47.5411 49.441 47.3955 49.441C46.9996 49.441 46.6849 49.3164 46.4518 49.0673C46.2187 48.8182 46.1022 48.4822 46.1022 48.0593C46.1022 47.6299 46.2196 47.2922 46.4541 47.0463C46.6904 46.8005 47.0136 46.6772 47.4236 46.6772C47.5568 46.6772 47.6867 46.6916 47.8134 46.7197C47.9401 46.7463 48.063 46.787 48.1819 46.8417Z" fill="#F2F2F2"/>
<path d="M48.5065 46.7412H48.936V47.9772L50.1543 46.7412H50.685L49.6803 47.7586L50.814 49.3733H50.3304L49.3984 48.0454L48.936 48.5155V49.3733H48.5065V46.7412Z" fill="#F2F2F2"/>
<path d="M53.1076 46.7412V49.3733H52.6781V47.2604L51.4104 49.3733H50.8564V46.7412H51.286V48.8491L52.5514 46.7412H53.1076Z" fill="#F2F2F2"/>
<path d="M55.7533 46.741V49.3731H55.3237V47.2605L54.0563 49.3731H53.5021V46.741H53.9319V48.8489L55.197 46.741H55.7533ZM53.8941 45.7163H54.1711C54.1885 45.834 54.2347 45.9224 54.3097 45.9821C54.3864 46.04 54.4928 46.069 54.6288 46.069C54.7637 46.069 54.8683 46.04 54.9436 45.9821C55.0186 45.9241 55.0662 45.8354 55.0866 45.7163H55.3638C55.3481 45.9405 55.2784 46.1088 55.1549 46.2218C55.0311 46.3345 54.8558 46.3909 54.6288 46.3909C54.4021 46.3909 54.2269 46.3345 54.1031 46.2218C53.9796 46.1088 53.9098 45.9405 53.8941 45.7163Z" fill="#F2F2F2"/>
<path d="M31.155 51.5544H33.6739V51.8998H32.6268V54.1862H32.2019V51.8998H31.155V51.5544Z" fill="#F2F2F2"/>
<path d="M35.9027 52.7619V52.9735H33.9168C33.9357 53.2712 34.0249 53.4983 34.1845 53.6549C34.3455 53.81 34.5693 53.8876 34.8558 53.8876C35.0218 53.8876 35.1822 53.8674 35.3371 53.8264C35.4935 53.7857 35.6484 53.7248 35.8018 53.6432V54.052C35.6469 54.1179 35.4879 54.1679 35.3252 54.2025C35.1624 54.237 34.9974 54.2543 34.83 54.2543C34.4106 54.2543 34.0781 54.1319 33.8323 53.8876C33.5881 53.6432 33.4661 53.3127 33.4661 52.8959C33.4661 52.4651 33.582 52.1236 33.8137 51.8713C34.0467 51.6175 34.3606 51.4905 34.755 51.4905C35.1084 51.4905 35.388 51.6049 35.5929 51.8338C35.7995 52.0609 35.9027 52.3703 35.9027 52.7619ZM35.4708 52.6352C35.4676 52.3984 35.401 52.2096 35.2711 52.0685C35.143 51.9277 34.9724 51.8572 34.7596 51.8572C34.5184 51.8572 34.3252 51.9254 34.1798 52.0615C34.0357 52.1979 33.9529 52.3899 33.9311 52.6375L35.4708 52.6352Z" fill="#F2F2F2"/>
<path d="M38.4134 51.5544L37.4628 52.8352L38.4628 54.1862H37.9533L37.1881 53.1525L36.4229 54.1862H35.9135L36.9347 52.8092L36.0004 51.5544H36.5098L37.207 52.4919L37.9042 51.5544H38.4134Z" fill="#F2F2F2"/>
<path d="M38.4224 51.5544H38.8566V52.6283H40.258V51.5544H40.6924V54.1862H40.258V52.9737H38.8566V54.1862H38.4224V51.5544Z" fill="#F2F2F2"/>
<path d="M42.0682 51.8572C41.8366 51.8572 41.6535 51.9479 41.519 52.1297C41.3844 52.31 41.317 52.5576 41.317 52.8725C41.317 53.1872 41.3835 53.4356 41.5166 53.6174C41.6512 53.7974 41.8352 53.8876 42.0682 53.8876C42.2984 53.8876 42.4806 53.7968 42.6152 53.6151C42.7498 53.4333 42.8172 53.1857 42.8172 52.8725C42.8172 52.5605 42.7498 52.3138 42.6152 52.132C42.4806 51.9488 42.2984 51.8572 42.0682 51.8572ZM42.0682 51.4905C42.4437 51.4905 42.7387 51.6128 42.9532 51.8572C43.1677 52.1016 43.2749 52.4399 43.2749 52.8725C43.2749 53.3034 43.1677 53.6417 42.9532 53.8876C42.7387 54.1319 42.4437 54.2543 42.0682 54.2543C41.691 54.2543 41.3955 54.1319 41.181 53.8876C40.9682 53.6417 40.8616 53.3034 40.8616 52.8725C40.8616 52.4399 40.9682 52.1016 41.181 51.8572C41.3955 51.6128 41.691 51.4905 42.0682 51.4905Z" fill="#F2F2F2"/>
<path d="M43.3223 54.1862V53.8268C43.6071 53.7829 43.7934 53.6623 43.8811 53.4648C43.9875 53.1876 44.0407 52.6942 44.0407 51.9844V51.5544H45.8176V54.1862H45.3857V51.8998H44.4726V52.1606C44.4726 52.8376 44.4037 53.3278 44.2659 53.6319C44.1189 53.9562 43.8044 54.1409 43.3223 54.1862Z" fill="#F2F2F2"/>
<path d="M47.2812 51.8572C47.0499 51.8572 46.8668 51.9479 46.7319 52.1297C46.5974 52.31 46.5302 52.5576 46.5302 52.8725C46.5302 53.1872 46.5968 53.4356 46.7296 53.6174C46.8642 53.7974 47.0481 53.8876 47.2812 53.8876C47.5114 53.8876 47.6936 53.7968 47.8282 53.6151C47.963 53.4333 48.0302 53.1857 48.0302 52.8725C48.0302 52.5605 47.963 52.3138 47.8282 52.132C47.6936 51.9488 47.5114 51.8572 47.2812 51.8572ZM47.2812 51.4905C47.657 51.4905 47.952 51.6128 48.1665 51.8572C48.3806 52.1016 48.4879 52.4399 48.4879 52.8725C48.4879 53.3034 48.3806 53.6417 48.1665 53.8876C47.952 54.1319 47.657 54.2543 47.2812 54.2543C46.9043 54.2543 46.6084 54.1319 46.3939 53.8876C46.1812 53.6417 46.0748 53.3034 46.0748 52.8725C46.0748 52.4399 46.1812 52.1016 46.3939 51.8572C46.6084 51.6128 46.9043 51.4905 47.2812 51.4905Z" fill="#F2F2F2"/>
<path d="M48.8245 54.1862V51.5544H50.6789V51.8998H49.2587V54.1862H48.8245Z" fill="#F2F2F2"/>
<path d="M53.2596 51.5544V54.1862H52.8301V52.0737L51.5626 54.1862H51.0084V51.5544H51.4383V53.6623L52.7033 51.5544H53.2596Z" fill="#F2F2F2"/>
<path d="M55.1749 54.1862V53.0796H54.3696C54.1301 53.0796 53.9307 53.005 53.7709 52.8563C53.627 52.7214 53.5549 52.5101 53.5549 52.2218V51.5544H53.9871V52.1817C53.9871 52.3652 54.0278 52.503 54.1092 52.5955C54.192 52.6877 54.3149 52.734 54.4777 52.734H55.1749V51.5544H55.6067V54.1862H55.1749Z" fill="#F2F2F2"/>
<path d="M58.3386 52.7619V52.9735H56.3527C56.3716 53.2712 56.4608 53.4983 56.6204 53.6549C56.7814 53.81 57.0052 53.8876 57.2917 53.8876C57.4577 53.8876 57.6181 53.8674 57.773 53.8264C57.9294 53.7857 58.0843 53.7248 58.2377 53.6432V54.052C58.0828 54.1179 57.9239 54.1679 57.7611 54.2025C57.5984 54.237 57.4333 54.2543 57.2659 54.2543C56.8465 54.2543 56.514 54.1319 56.2682 53.8876C56.024 53.6432 55.902 53.3127 55.902 52.8959C55.902 52.4651 56.0179 52.1236 56.2496 51.8713C56.4826 51.6175 56.7965 51.4905 57.1909 51.4905C57.5446 51.4905 57.8239 51.6049 58.0288 51.8338C58.2354 52.0609 58.3386 52.3703 58.3386 52.7619ZM57.9067 52.6352C57.9035 52.3984 57.837 52.2096 57.7073 52.0685C57.5789 51.9277 57.4083 51.8572 57.1956 51.8572C56.9543 51.8572 56.7611 51.9254 56.6158 52.0615C56.4716 52.1979 56.3888 52.3899 56.367 52.6375L57.9067 52.6352Z" fill="#F2F2F2"/>
<path d="M60.5383 51.655V52.0592C60.4163 51.9918 60.2936 51.9418 60.1698 51.9087C60.0478 51.8745 59.9242 51.8572 59.799 51.8572C59.5188 51.8572 59.3014 51.9465 59.1465 52.125C58.9916 52.3021 58.914 52.5512 58.914 52.8725C58.914 53.1936 58.9916 53.4436 59.1465 53.6221C59.3014 53.7992 59.5188 53.8876 59.799 53.8876C59.9242 53.8876 60.0478 53.8712 60.1698 53.8384C60.2936 53.8038 60.4163 53.7529 60.5383 53.6856V54.0851C60.418 54.1413 60.2928 54.1837 60.1628 54.2118C60.0347 54.2402 59.8975 54.2543 59.7522 54.2543C59.3561 54.2543 59.0416 54.1296 58.8085 53.8805C58.5752 53.6315 58.4586 53.2955 58.4586 52.8725C58.4586 52.4432 58.576 52.1054 58.8109 51.8596C59.0471 51.6134 59.3703 51.4905 59.7804 51.4905C59.9132 51.4905 60.0431 51.5045 60.1698 51.5329C60.2965 51.5596 60.4195 51.6002 60.5383 51.655Z" fill="#F2F2F2"/>
<path d="M60.8633 51.5544H61.2928V52.7904L62.5111 51.5544H63.0415L62.0368 52.5718L63.1706 54.1862H62.687L61.7552 52.8586L61.2928 53.3287V54.1862H60.8633V51.5544Z" fill="#F2F2F2"/>
<path d="M65.4638 51.5544V54.1862H65.034V52.0737L63.7666 54.1862H63.2126V51.5544H63.6422V53.6623L64.9073 51.5544H65.4638Z" fill="#F2F2F2"/>
<path d="M68.1088 51.5542V54.1863H67.6793V52.0734L66.4116 54.1863H65.8577V51.5542H66.2872V53.6621L67.5526 51.5542H68.1088ZM66.2497 50.5295H66.5267C66.5438 50.6472 66.59 50.7356 66.6653 50.795C66.742 50.853 66.8484 50.8822 66.9844 50.8822C67.119 50.8822 67.2239 50.853 67.2992 50.795C67.3741 50.7371 67.4218 50.6487 67.4422 50.5295H67.7191C67.7034 50.7537 67.634 50.922 67.5102 51.0347C67.3866 51.1477 67.2114 51.2042 66.9844 51.2042C66.7574 51.2042 66.5822 51.1477 66.4587 51.0347C66.3352 50.922 66.2654 50.7537 66.2497 50.5295Z" fill="#F2F2F2"/>
<path d="M32.5613 59.2434C32.4392 59.5566 32.3204 59.7612 32.2044 59.8566C32.0888 59.9523 31.9339 60 31.7397 60H31.3947V59.6383H31.6482C31.767 59.6383 31.8595 59.6099 31.9251 59.5537C31.9908 59.4972 32.0638 59.364 32.1434 59.1542L32.221 58.9566L31.1576 56.3669H31.6153L32.4369 58.4254L33.2585 56.3669H33.7163L32.5613 59.2434Z" fill="#F2F2F2"/>
<path d="M33.8226 56.3669H34.2568V57.4408H35.6582V56.3669H36.0924V58.999H35.6582V57.7862H34.2568V58.999H33.8226V56.3669Z" fill="#F2F2F2"/>
<path d="M38.7002 56.3669V58.999H38.2706V56.8862L37.0029 58.999H36.449V56.3669H36.8785V58.4748L38.1439 56.3669H38.7002Z" fill="#F2F2F2"/>
<path d="M39.5311 57.7862V58.6534H40.1461C40.3434 58.6534 40.4937 58.6165 40.5968 58.543C40.7003 58.4678 40.7517 58.3598 40.7517 58.2187C40.7517 58.0777 40.7003 57.9703 40.5968 57.8968C40.4937 57.823 40.3434 57.7862 40.1461 57.7862H39.5311ZM39.5311 56.7123V57.4408H40.0993C40.262 57.4408 40.3951 57.4086 40.4983 57.3445C40.6015 57.2786 40.6532 57.1879 40.6532 57.0717C40.6532 56.9558 40.6015 56.8674 40.4983 56.8063C40.3951 56.7436 40.262 56.7123 40.0993 56.7123H39.5311ZM39.0992 56.3669H40.1275C40.4358 56.3669 40.6727 56.4231 40.8386 56.5361C41.0046 56.6488 41.0874 56.8095 41.0874 57.0179C41.0874 57.1791 41.0453 57.3076 40.9607 57.4033C40.8761 57.4973 40.7512 57.5561 40.5852 57.5795C40.784 57.617 40.938 57.6954 41.0476 57.8146C41.1572 57.9337 41.2118 58.0824 41.2118 58.2609C41.2118 58.4959 41.1211 58.6777 40.9395 58.8062C40.7596 58.9347 40.5021 58.999 40.1673 58.999H39.0992V56.3669Z" fill="#F2F2F2"/>
<path d="M43.8608 57.5749V57.7865H41.875C41.8936 58.0842 41.9828 58.3113 42.1426 58.4679C42.3036 58.623 42.5274 58.7005 42.814 58.7005C42.9796 58.7005 43.14 58.6801 43.2949 58.6394C43.4516 58.5987 43.6065 58.5375 43.7599 58.4562V58.865C43.605 58.9309 43.4461 58.9809 43.2833 59.0155C43.1206 59.05 42.9555 59.0673 42.7881 59.0673C42.3687 59.0673 42.036 58.9449 41.7904 58.7005C41.5463 58.4562 41.4242 58.1254 41.4242 57.7089C41.4242 57.2781 41.5402 56.9365 41.7715 56.6843C42.0049 56.4305 42.3184 56.3035 42.7128 56.3035C43.0665 56.3035 43.3458 56.4179 43.551 56.6465C43.7576 56.8736 43.8608 57.1833 43.8608 57.5749ZM43.4289 57.4479C43.4257 57.2114 43.3592 57.0226 43.2293 56.8815C43.1011 56.7404 42.9305 56.6702 42.7178 56.6702C42.4765 56.6702 42.2833 56.7381 42.138 56.8745C41.9938 57.0109 41.911 57.2029 41.8889 57.4502L43.4289 57.4479Z" fill="#F2F2F2"/>
<path d="M44.5478 58.6042V60.0001H44.1136V56.367H44.5478V56.7665C44.6385 56.6099 44.7527 56.4937 44.8905 56.4185C45.03 56.3418 45.1956 56.3035 45.3883 56.3035C45.7074 56.3035 45.9664 56.4305 46.1652 56.6843C46.3654 56.938 46.4657 57.2717 46.4657 57.6852C46.4657 58.0988 46.3654 58.4327 46.1652 58.6865C45.9664 58.9402 45.7074 59.0673 45.3883 59.0673C45.1956 59.0673 45.03 59.0295 44.8905 58.9543C44.7527 58.8776 44.6385 58.7608 44.5478 58.6042ZM46.0172 57.6852C46.0172 57.3674 45.9516 57.1183 45.8202 56.938C45.6903 56.7562 45.511 56.6655 45.2825 56.6655C45.0541 56.6655 44.8742 56.7562 44.7426 56.938C44.6129 57.1183 44.5478 57.3674 44.5478 57.6852C44.5478 58.0034 44.6129 58.2533 44.7426 58.4351C44.8742 58.6151 45.0541 58.7052 45.2825 58.7052C45.511 58.7052 45.6903 58.6151 45.8202 58.4351C45.9516 58.2533 46.0172 58.0034 46.0172 57.6852Z" fill="#F2F2F2"/>
<path d="M48.641 56.468V56.8722C48.5189 56.8048 48.396 56.7548 48.2725 56.7217C48.1504 56.6872 48.0266 56.6702 47.9016 56.6702C47.6215 56.6702 47.4038 56.7595 47.2489 56.938C47.094 57.1151 47.0167 57.3642 47.0167 57.6852C47.0167 58.0066 47.094 58.2562 47.2489 58.4351C47.4038 58.6122 47.6215 58.7005 47.9016 58.7005C48.0266 58.7005 48.1504 58.6842 48.2725 58.6511C48.396 58.6168 48.5189 58.5659 48.641 58.4983V58.8978C48.5204 58.9543 48.3954 58.9967 48.2655 59.0248C48.137 59.0529 48.0002 59.0673 47.8546 59.0673C47.4587 59.0673 47.144 58.9426 46.9109 58.6935C46.6778 58.4444 46.5613 58.1084 46.5613 57.6852C46.5613 57.2562 46.6787 56.9184 46.9132 56.6725C47.1495 56.4264 47.4727 56.3035 47.8828 56.3035C48.0159 56.3035 48.1458 56.3175 48.2725 56.3459C48.3992 56.3725 48.5221 56.4132 48.641 56.468Z" fill="#F2F2F2"/>
<path d="M51.2169 56.3669V58.999H50.7873V56.8862L49.5196 58.999H48.9657V56.3669H49.3952V58.4748L50.6606 56.3669H51.2169Z" fill="#F2F2F2"/>
<path d="M51.3441 56.3669H53.863V56.7123H52.8158V58.999H52.3909V56.7123H51.3441V56.3669Z" fill="#F2F2F2"/>
<path d="M56.0921 57.5749V57.7865H54.1063C54.1249 58.0842 54.2141 58.3113 54.3739 58.4679C54.5349 58.623 54.7587 58.7005 55.0453 58.7005C55.2109 58.7005 55.3714 58.6801 55.5263 58.6394C55.6829 58.5987 55.8378 58.5375 55.9913 58.4562V58.865C55.8364 58.9309 55.6774 58.9809 55.5146 59.0155C55.3519 59.05 55.1868 59.0673 55.0194 59.0673C54.6 59.0673 54.2673 58.9449 54.0217 58.7005C53.7776 58.4562 53.6555 58.1254 53.6555 57.7089C53.6555 57.2781 53.7715 56.9365 54.0028 56.6843C54.2362 56.4305 54.5498 56.3035 54.9441 56.3035C55.2978 56.3035 55.5771 56.4179 55.7823 56.6465C55.9889 56.8736 56.0921 57.1833 56.0921 57.5749ZM55.6602 57.4479C55.6571 57.2114 55.5905 57.0226 55.4606 56.8815C55.3324 56.7404 55.1618 56.6702 54.9488 56.6702C54.7079 56.6702 54.5146 56.7381 54.369 56.8745C54.2251 57.0109 54.1423 57.2029 54.1202 57.4502L55.6602 57.4479Z" fill="#F2F2F2"/>
<path d="M56.0764 56.3669H58.5953V56.7123H57.5481V58.999H57.1232V56.7123H56.0764V56.3669Z" fill="#F2F2F2"/>
<path fill-rule="evenodd" clip-rule="evenodd" d="M27.3348 0.0251904C25.5478 0.200103 24.9618 0.275421 23.9641 0.458227C18.0888 1.53507 12.8047 4.32562 8.55879 8.59387C2.83819 14.3446 -0.22226 22.056 0.012581 30.1279C0.0400589 31.0715 0.103206 32.191 0.152871 32.6157C0.925237 39.2128 3.70186 45.1352 8.20652 49.7936C10.6949 52.3668 13.1921 54.1946 16.3266 55.7368C20.0879 57.5874 23.8562 58.5542 27.9205 58.7116L29.2741 58.764L29.2427 57.7698C29.216 56.9239 29.1846 56.7392 29.0322 56.5338C28.7141 56.1047 28.4415 56.0116 27.2068 55.9098C19.4617 55.2723 12.6337 51.4759 7.95394 45.2055C4.33633 40.3581 2.37695 33.7654 2.78886 27.8265C3.0615 23.8948 3.85511 20.9106 5.53434 17.5016C6.83826 14.8546 8.34245 12.7573 10.4784 10.6082C13.9169 7.14849 17.8831 4.85251 22.5568 3.6161C29.6513 1.73923 37.2401 2.93394 43.4633 6.90735C45.4186 8.15593 47.9679 10.4087 49.5001 12.2421C53.0809 16.5268 55.1586 21.6329 55.6245 27.2938C55.7314 28.5951 55.8166 28.852 56.2406 29.1561C56.4844 29.3309 56.6393 29.3596 57.4792 29.3865L58.4395 29.4173L58.4392 28.6146C58.4392 26.2932 57.8963 23.0174 57.0991 20.5251C55.598 15.8334 53.3259 12.0757 49.9085 8.63435C45.1995 3.89248 39.4271 1.05116 32.7462 0.186721C31.749 0.0577024 28.1116 -0.0508997 27.3348 0.0251904ZM27.5262 6.67136C21.047 7.13854 15.0179 10.4665 11.1041 15.736C7.37612 20.7553 5.88489 26.9183 6.89432 33.1352C7.25479 35.3552 7.87492 37.2869 8.90318 39.3925C11.112 43.9159 14.6772 47.5153 19.1427 49.7303C22.1296 51.2122 24.781 51.907 28.1669 52.0958L29.2549 52.1567L29.2543 51.3506C29.2537 50.3924 29.1599 50.0005 28.858 49.6973C28.582 49.4195 28.2819 49.3399 27.0575 49.2196C19.2198 48.4487 12.3471 42.6547 10.155 34.9703C9.5792 32.9517 9.37184 31.4652 9.37184 29.3558C9.37184 26.18 9.98233 23.4779 11.3341 20.6708C14.1284 14.868 19.4922 10.7994 25.8415 9.66676C27.3476 9.39799 30.1518 9.33477 31.7115 9.53441C36.0517 10.0897 40.0786 12.0658 43.1674 15.156C44.8667 16.856 46.0417 18.4791 47.0252 20.4846C48.1632 22.8056 48.8599 25.2887 49.02 27.5974C49.0802 28.4639 49.279 28.9495 49.6696 29.1846C49.891 29.3181 50.1471 29.3593 50.9085 29.3851L51.8687 29.4173L51.8678 28.9577C51.8667 28.1918 51.7071 26.5866 51.5208 25.4671C51.0236 22.4783 49.816 19.4202 48.1272 16.8722C47.1379 15.3799 46.4157 14.4854 45.2553 13.3158C40.5567 8.57988 34.1833 6.19133 27.5262 6.67136ZM27.2958 13.3649C22.3916 14.0026 18.0374 16.8386 15.5136 21.0389C14.6102 22.5423 13.8933 24.352 13.5547 25.9834C12.9721 28.7905 13.1434 31.9074 14.0229 34.5059C16.1196 40.7011 21.8211 45.1077 28.1338 45.4127L29.2741 45.4677L29.243 44.4852C29.2189 43.7207 29.1779 43.45 29.0582 43.2664C28.8342 42.9228 28.4357 42.7112 27.8951 42.6489C20.87 41.8381 15.6556 35.7834 15.967 28.7983C16.2121 23.3004 19.8508 18.452 25.0383 16.711C26.5263 16.2116 27.4288 16.071 29.1694 16.0672C30.9109 16.0634 31.629 16.1651 33.1376 16.6292C38.1634 18.1756 41.8227 22.6631 42.4356 28.0319C42.4975 28.5754 42.7082 28.976 43.0497 29.2011C43.2325 29.3216 43.5016 29.3628 44.2622 29.3868L45.2396 29.4181L45.1852 28.2719C45.091 26.2922 44.5435 24.1912 43.6353 22.3217C41.2685 17.4515 36.6501 14.101 31.339 13.4011C30.2953 13.2636 28.2181 13.245 27.2958 13.3649ZM73.1361 32.0596C72.2857 32.2835 71.5039 32.674 71.0145 33.1197L70.6041 33.4929L70.9767 33.9981C71.8373 35.1644 72.0224 35.2475 72.7376 34.7912C73.3651 34.3908 73.9908 34.2026 74.6935 34.2026C75.802 34.2026 76.5768 34.572 77.1667 35.3821C77.4167 35.7252 77.8105 36.6404 77.8105 36.8786C77.8105 36.9167 76.6584 36.9477 75.2504 36.9477H72.6903V37.9771V39.0064H75.2597H77.8294L77.7736 39.3284C77.6846 39.8388 77.2432 40.6718 76.8535 41.0634C76.2466 41.6734 75.7726 41.8651 74.7674 41.9063C73.742 41.9485 73.327 41.8384 72.572 41.3227C72.0276 40.9507 71.9881 40.9381 71.7547 41.0637C71.5513 41.1732 70.5143 42.2587 70.5143 42.3623C70.5143 42.4973 71.2447 43.1953 71.6789 43.4754C72.9135 44.2718 75.2626 44.5168 76.829 44.0125C78.6652 43.4213 80.0213 41.9526 80.5566 39.9749C80.7984 39.082 80.8228 37.1789 80.6028 36.3474C80.1477 34.6241 79.0788 33.2564 77.623 32.534C77.1862 32.3175 76.5602 32.0836 76.2318 32.0148C75.3785 31.8357 73.9045 31.8571 73.1361 32.0596ZM31.815 38.0628V44.1536H33.0522H34.2897L34.2908 40.1432L34.292 36.1329L35.9134 39.3067C36.9489 41.3336 37.6194 42.5502 37.7685 42.6735C37.9594 42.8309 38.107 42.8661 38.5819 42.8663C39.6075 42.8672 39.321 43.2779 42.1758 37.7198L42.9907 36.1329L42.9922 40.1432L42.9939 44.1536H44.2311H45.4686V38.0628V31.9724H44.1924C43.4144 31.9724 42.8326 32.0107 42.7015 32.0707C42.5336 32.1477 42.0979 32.9365 40.7009 35.695C39.7186 37.6343 38.8513 39.3755 38.7732 39.5643L38.6316 39.9073L38.3593 39.3064C38.2096 38.976 37.3482 37.2354 36.445 35.4386C35.1479 32.8583 34.7573 32.1512 34.585 32.0722C34.4501 32.0104 33.8799 31.9724 33.0909 31.9724H31.815V38.0628ZM47.7726 38.0628V44.1536H48.9715C50.2691 44.1536 50.4487 44.1073 50.8582 43.668C51.1189 43.3882 55.0264 36.7226 55.3597 35.9892L55.5806 35.5024L55.5538 39.828L55.5268 44.1536H56.9404H58.354V38.0628V31.9724H57.1985C55.9816 31.9724 55.6175 32.0637 55.2687 32.4565C55.0702 32.6795 51.0314 39.6369 50.7812 40.1862C50.6684 40.4339 50.5693 40.6364 50.5609 40.6364C50.5528 40.6364 50.5565 38.6871 50.5696 36.3044L50.5932 31.9724H49.1828H47.7726V38.0628ZM60.7435 38.0549V44.1536H62.1513H63.5594V42.151V40.1485L64.8608 40.0958C66.8833 40.0141 67.9263 39.6735 68.7912 38.8127C69.6006 38.0069 70.0008 36.6342 69.8035 35.3394C69.6099 34.0689 68.9514 33.1437 67.838 32.5788C66.8667 32.086 66.5151 32.0385 63.4955 31.9955L60.7435 31.9563V38.0549ZM85.3632 32.3368C85.2833 32.5373 84.3036 35.0754 83.1862 37.9771C82.0687 40.8787 81.0736 43.4581 80.9748 43.7093L80.7949 44.1656L82.117 44.1383C83.7663 44.1038 83.7142 44.1424 84.2391 42.5649L84.6097 41.4515L86.9198 41.4287L89.2303 41.4059L89.5869 42.5008C89.8737 43.3826 89.9996 43.6504 90.233 43.8749L90.5227 44.1536H91.7614C92.4426 44.1536 93 44.1249 93 44.0901C93 44.0549 91.9561 41.3142 90.6799 37.9993L88.3602 31.9724H86.9347H85.5091L85.3632 32.3368ZM65.8205 34.2132C66.2895 34.344 66.842 34.915 66.9737 35.4053C67.0986 35.8703 67.0396 36.5672 66.8417 36.9594C66.4523 37.7318 66.0556 37.913 64.6475 37.9607L63.5594 37.9976V36.0571V34.1169L64.5196 34.1175C65.0474 34.1178 65.633 34.1608 65.8205 34.2132ZM87.0654 34.9525C87.0974 35.0827 87.447 36.1384 87.8429 37.2986C88.2387 38.4588 88.5624 39.4338 88.5624 39.4648C88.5624 39.4958 87.833 39.5213 86.9413 39.5213C86.0494 39.5213 85.3194 39.4923 85.3191 39.4569C85.3167 39.2942 86.905 34.6551 86.953 34.6835C86.9832 34.7014 87.0338 34.8222 87.0654 34.9525Z" fill="#F2F2F2"/>
</g>
<defs>
<clipPath id="clip0_26_550">
<rect width="93" height="60" fill="white"/>
</clipPath>
</defs>
</svg>
