<svg width="28" height="24" viewBox="0 0 28 24" fill="none" xmlns="http://www.w3.org/2000/svg">
<path fill-rule="evenodd" clip-rule="evenodd" d="M26.1141 0.130373C24.2503 0.835952 1.28001 9.91729 0.941681 10.0824C-0.182549 10.6307 -0.31398 11.355 0.62192 11.8449C0.712279 11.8922 2.26706 12.4038 4.07697 12.9819L7.36779 14.033L14.8402 9.22259C18.95 6.57684 22.3954 4.38244 22.4965 4.34621C22.7503 4.25514 22.9687 4.26365 23.0707 4.36858C23.142 4.44201 23.145 4.47887 23.0882 4.58679C23.0507 4.6582 20.3216 7.20876 17.0234 10.2547C13.7253 13.3006 11.018 15.8166 11.0071 15.8458C10.9963 15.8749 10.8847 17.3956 10.7592 19.2251L10.5311 22.5515L10.779 22.5171C10.9153 22.4981 11.1313 22.4257 11.2588 22.3561C11.3864 22.2866 12.245 21.4861 13.167 20.5775C14.0889 19.6687 14.8751 18.9126 14.9141 18.8972C14.9531 18.8818 16.4213 19.952 18.1766 21.2754C19.932 22.5988 21.5057 23.7471 21.6738 23.827C22.1148 24.0367 22.6115 24.0575 22.9341 23.8799C23.2223 23.7212 23.5039 23.327 23.6224 22.9166C23.6682 22.7577 24.6718 17.986 25.8525 12.3128C27.8183 2.86714 27.9993 1.95265 28 1.46241C28.0006 0.999216 27.9819 0.88904 27.8613 0.645243C27.7763 0.473357 27.6313 0.297864 27.4895 0.195295C27.1655 -0.0392589 26.629 -0.0645628 26.1141 0.130373Z" fill="#F2F2F2"/>
</svg>
