<svg width="567" height="100" viewBox="0 0 567 100" fill="none" xmlns="http://www.w3.org/2000/svg">
<path d="M184.144 51.549C184.144 52.4349 184.083 53.5275 183.962 54.8268H145.921C146.406 58.4295 147.923 61.3235 150.471 63.5087C153.019 65.6349 156.265 66.698 160.209 66.698C162.878 66.698 165.275 66.196 167.398 65.1919C169.583 64.1879 171.251 62.8295 172.404 61.1168L182.232 62.7114C180.534 66.9638 177.591 70.2416 173.405 72.545C169.279 74.8483 164.668 76 159.572 76C154.839 76 150.592 74.996 146.831 72.9879C143.13 70.9208 140.218 68.0859 138.094 64.4832C136.031 60.8215 135 56.6872 135 52.0805C135 47.4738 136.031 43.3691 138.094 39.7664C140.218 36.1047 143.13 33.2698 146.831 31.2617C150.592 29.1946 154.839 28.1611 159.572 28.1611C164.304 28.1611 168.521 29.1946 172.222 31.2617C175.983 33.2698 178.896 36.0752 180.958 39.6779C183.082 43.2215 184.144 47.1785 184.144 51.549ZM159.572 37.0201C156.417 37.0201 153.656 37.906 151.29 39.6779C148.985 41.4497 147.407 43.8416 146.558 46.8537H172.768C171.858 43.9007 170.22 41.5382 167.853 39.7664C165.548 37.9356 162.787 37.0201 159.572 37.0201Z" fill="white"/>
<path d="M212.684 76C208.255 76 204.281 74.996 200.762 72.9879C197.243 70.9208 194.483 68.0859 192.481 64.4832C190.539 60.8215 189.568 56.6872 189.568 52.0805C189.568 47.4738 190.539 43.3691 192.481 39.7664C194.483 36.1047 197.243 33.2698 200.762 31.2617C204.281 29.1946 208.255 28.1611 212.684 28.1611C216.506 28.1611 219.904 28.9289 222.877 30.4644C225.85 31.9409 228.277 33.8013 230.157 36.0456V12.6577H240.623V75.1141H232.797L230.612 67.6725C228.671 69.9758 226.183 71.9544 223.15 73.608C220.116 75.2027 216.628 76 212.684 76ZM215.232 66.8752C219.661 66.8752 223.241 65.5168 225.971 62.8C228.762 60.0242 230.157 56.451 230.157 52.0805C230.157 47.7101 228.762 44.1664 225.971 41.4497C223.241 38.6738 219.661 37.2859 215.232 37.2859C210.864 37.2859 207.315 38.6738 204.585 41.4497C201.854 44.1664 200.489 47.7101 200.489 52.0805C200.489 56.451 201.854 60.0242 204.585 62.8C207.315 65.5168 210.864 66.8752 215.232 66.8752Z" fill="white"/>
<path d="M270.202 76C266.865 76 263.831 75.1731 261.101 73.5195C258.432 71.8658 256.308 69.5919 254.731 66.698C253.214 63.804 252.455 60.5262 252.455 56.8644V29.047H262.921V55.7127C262.921 59.0201 263.862 61.7074 265.742 63.7745C267.684 65.8416 270.141 66.8752 273.114 66.8752C276.148 66.8752 278.665 65.8416 280.668 63.7745C282.67 61.6483 283.671 58.9611 283.671 55.7127V29.047H294.136V75.1141H286.31L284.217 68.204C282.7 70.6255 280.698 72.545 278.21 73.9624C275.723 75.3208 273.053 76 270.202 76Z" fill="white"/>
<path d="M327.901 76C323.168 76 318.921 74.996 315.16 72.9879C311.398 70.9208 308.456 68.0859 306.332 64.4832C304.269 60.8215 303.238 56.6872 303.238 52.0805C303.238 47.4738 304.269 43.3691 306.332 39.7664C308.456 36.1047 311.398 33.2698 315.16 31.2617C318.921 29.1946 323.168 28.1611 327.901 28.1611C333.118 28.1611 337.729 29.4309 341.734 31.9705C345.799 34.451 348.681 37.9946 350.379 42.6013L340.551 44.196C339.519 42.1879 337.911 40.5638 335.727 39.3235C333.604 38.0832 331.207 37.4631 328.538 37.4631C324.291 37.4631 320.832 38.8215 318.163 41.5383C315.493 44.255 314.159 47.7691 314.159 52.0805C314.159 56.3919 315.493 59.906 318.163 62.6228C320.832 65.3396 324.291 66.698 328.538 66.698C331.329 66.698 333.816 66.0779 336 64.8376C338.184 63.5383 339.823 61.855 340.915 59.7879L350.743 61.3825C349.045 66.0483 346.102 69.651 341.916 72.1906C337.729 74.7302 333.058 76 327.901 76Z" fill="white"/>
<path d="M377.341 28.1611C383.409 28.1611 388.171 30.0215 391.629 33.7423C395.148 37.404 396.908 42.5718 396.908 49.2456V75.1141H389.172L386.988 67.8497C385.653 70.0349 383.682 71.9544 381.073 73.608C378.464 75.2027 375.37 76 371.79 76C368.635 76 365.784 75.3799 363.235 74.1396C360.748 72.8993 358.806 71.157 357.411 68.9128C356.016 66.6685 355.318 64.1289 355.318 61.294C355.318 56.9235 357.077 53.4389 360.596 50.8403C364.176 48.1825 369.363 46.8537 376.158 46.8537H386.351C386.108 43.7825 385.138 41.3611 383.439 39.5893C381.801 37.7584 379.586 36.8429 376.795 36.8429C374.551 36.8429 372.609 37.3745 370.971 38.4376C369.333 39.5007 368.119 40.8 367.331 42.3356L357.684 40.7409C358.837 36.8429 361.203 33.7718 364.783 31.5275C368.423 29.2832 372.609 28.1611 377.341 28.1611ZM374.247 67.4067C377.887 67.4067 380.83 66.255 383.075 63.9517C385.32 61.6483 386.442 58.6067 386.442 54.8268H376.522C369.424 54.8268 365.875 56.8349 365.875 60.851C365.875 62.8591 366.633 64.4537 368.15 65.6349C369.667 66.8161 371.699 67.4067 374.247 67.4067Z" fill="white"/>
<path d="M436.474 66.255L435.564 75.1141H426.736C421.579 75.1141 417.666 73.9329 414.996 71.5705C412.327 69.149 410.992 65.6644 410.992 61.1168V37.906H403.256V29.047H410.992L413.631 15.7584H421.458V29.047H435.564V37.906H421.458V61.1168C421.458 64.5423 423.217 66.255 426.736 66.255H436.474Z" fill="white"/>
<path d="M455.621 75.1141H445.155V29.047H455.621V75.1141ZM450.433 22.4913C448.492 22.4913 446.914 21.9302 445.701 20.8081C444.488 19.6268 443.881 18.1208 443.881 16.2899C443.881 14.4591 444.488 12.953 445.701 11.7718C446.975 10.5906 448.552 10 450.433 10C452.314 10 453.861 10.5906 455.075 11.7718C456.288 12.953 456.895 14.4591 456.895 16.2899C456.895 18.1208 456.288 19.6268 455.075 20.8081C453.861 21.9302 452.314 22.4913 450.433 22.4913Z" fill="white"/>
<path d="M490.466 76C485.612 76 481.244 74.996 477.361 72.9879C473.538 70.9208 470.535 68.0859 468.351 64.4832C466.227 60.8215 465.166 56.6872 465.166 52.0805C465.166 47.4738 466.227 43.3691 468.351 39.7664C470.535 36.1047 473.538 33.2698 477.361 31.2617C481.244 29.1946 485.612 28.1611 490.466 28.1611C495.319 28.1611 499.657 29.1946 503.48 31.2617C507.362 33.2698 510.366 36.1047 512.489 39.7664C514.673 43.3691 515.765 47.4738 515.765 52.0805C515.765 56.6872 514.673 60.8215 512.489 64.4832C510.366 68.0859 507.362 70.9208 503.48 72.9879C499.657 74.996 495.319 76 490.466 76ZM490.466 66.698C494.713 66.698 498.171 65.3691 500.84 62.7114C503.51 59.9946 504.845 56.451 504.845 52.0805C504.845 47.7101 503.51 44.196 500.84 41.5383C498.171 38.8215 494.713 37.4631 490.466 37.4631C486.219 37.4631 482.76 38.8215 480.091 41.5383C477.421 44.196 476.086 47.7101 476.086 52.0805C476.086 56.451 477.421 59.9946 480.091 62.7114C482.76 65.3691 486.219 66.698 490.466 66.698Z" fill="white"/>
<path d="M524.864 75.1141V29.047H532.69L534.784 35.957C536.3 33.5356 538.303 31.6456 540.79 30.2872C543.338 28.8698 546.068 28.1611 548.981 28.1611C552.378 28.1611 555.442 28.9879 558.172 30.6416C560.903 32.2953 563.056 34.5691 564.634 37.4631C566.211 40.357 567 43.6349 567 47.2966V75.1141H556.534V48.4483C556.534 45.1409 555.564 42.4537 553.622 40.3866C551.681 38.3195 549.193 37.2859 546.16 37.2859C543.005 37.2859 540.396 38.349 538.333 40.4752C536.331 42.5423 535.33 45.2 535.33 48.4483V75.1141H524.864Z" fill="white"/>
<path d="M0 48C0 25.3726 0 14.0589 7.02944 7.02944C14.0589 0 25.3726 0 48 0H52C74.6274 0 85.9411 0 92.9706 7.02944C100 14.0589 100 25.3726 100 48V52C100 74.6274 100 85.9411 92.9706 92.9706C85.9411 100 74.6274 100 52 100H48C25.3726 100 14.0589 100 7.02944 92.9706C0 85.9411 0 74.6274 0 52V48Z" fill="#0077FF"/>
<path d="M53.2083 72.0418C30.4167 72.0418 17.4168 56.4169 16.8751 30.4169H28.2917C28.6667 49.5002 37.0833 57.5835 43.7499 59.2501V30.4169H54.5002V46.8751C61.0836 46.1668 67.9994 38.6669 70.3328 30.4169H81.0831C79.2914 40.5835 71.7914 48.0835 66.458 51.1668C71.7914 53.6668 80.3335 60.2085 83.5835 72.0418H71.7498C69.2081 64.1252 62.8752 58.0001 54.5002 57.1668V72.0418H53.2083Z" fill="white"/>
</svg>
