<svg width="382" height="100" viewBox="0 0 382 100" fill="none" xmlns="http://www.w3.org/2000/svg">
<path d="M163.224 75.3571H150.749L133 25H142.195L156.38 66.5H157.806L172.49 25H181.543L163.224 75.3571Z" fill="white"/>
<path d="M205.292 49.2857L228.387 75.3571H217.125L198.306 53.7857H196.168V75.3571H187.614V25H196.168V45.5H198.235L216.056 25H226.605L205.292 49.2857Z" fill="white"/>
<path d="M248.733 75.3571V25H266.553C269.975 25 273.064 25.7381 275.82 27.2143C278.624 28.6429 280.81 30.6429 282.378 33.2143C283.946 35.7857 284.73 38.7143 284.73 42C284.73 45.2381 283.946 48.1667 282.378 50.7857C280.81 53.3571 278.624 55.381 275.82 56.8571C273.064 58.2857 269.975 59 266.553 59H257.287V75.3571H248.733ZM266.553 51.1429C269.357 51.1429 271.614 50.3095 273.325 48.6429C275.083 46.9286 275.963 44.7143 275.963 42C275.963 39.2857 275.083 37.0952 273.325 35.4286C271.614 33.7143 269.357 32.8571 266.553 32.8571H257.287V51.1429H266.553Z" fill="white"/>
<path d="M299.733 75.3571H291.535V25H299.733V75.3571Z" fill="white"/>
<path d="M324.459 37.5C329.211 37.5 332.942 39 335.651 42C338.407 44.9524 339.785 49.119 339.785 54.5V75.3571H333.726L332.015 69.5C330.97 71.2619 329.425 72.8095 327.382 74.1429C325.338 75.4286 322.915 76.0714 320.111 76.0714C317.64 76.0714 315.407 75.5714 313.411 74.5714C311.462 73.5714 309.942 72.1667 308.849 70.3571C307.756 68.5476 307.209 66.5 307.209 64.2143C307.209 60.6905 308.587 57.881 311.343 55.7857C314.147 53.6429 318.21 52.5714 323.533 52.5714H331.516C331.326 50.0952 330.566 48.1429 329.235 46.7143C327.952 45.2381 326.218 44.5 324.032 44.5C322.273 44.5 320.753 44.9286 319.47 45.7857C318.187 46.6429 317.236 47.6905 316.618 48.9286L309.062 47.6429C309.965 44.5 311.819 42.0238 314.622 40.2143C317.474 38.4048 320.753 37.5 324.459 37.5ZM322.036 69.1429C324.887 69.1429 327.192 68.2143 328.95 66.3571C330.708 64.5 331.588 62.0476 331.588 59H323.818C318.258 59 315.478 60.6191 315.478 63.8571C315.478 65.4762 316.072 66.7619 317.26 67.7143C318.448 68.6667 320.04 69.1429 322.036 69.1429Z" fill="white"/>
<path d="M373.66 38.2143H382L366.817 80C365.534 83.5238 363.871 86.0714 361.827 87.6429C359.831 89.2143 357.146 90 353.772 90H348.141L347.428 82.5H354.343C355.721 82.5 356.766 82.1905 357.479 81.5714C358.239 81 358.881 79.9762 359.404 78.5L359.831 77.3571L343.365 38.2143H352.133L363.039 65H364.18L373.66 38.2143Z" fill="white"/>
<path d="M52.1 0C74.7 0 86 0 93 7C100 14 100 25.3 100 47.9V52.1C100 74.7 100 86 93 93C86 100 74.7 100 52.1 100H47.9C25.3 100 14 100 7 93C0 86 0 74.7 0 52.1V47.9C0 25.3 0 14 7 7C14 0 25.3 0 47.9 0H52.1Z" fill="#0077FF"/>
<path d="M0.3 28.1C0 33.5 0 40 0 47.9V52.1C0 58.1 0 63.2 0.1 67.7C13.2 74.1 30.8 78 50 78C69.2 78 86.8 74.1 99.9 67.7C100 63.2 100 58 100 52.1V47.9C100 40 100 33.5 99.7 28H0.3V28.1Z" fill="#0009B4"/>
<path d="M69.4002 36.3999C61.3002 36.3999 54.7002 42.9999 54.7002 51.0999C54.7002 59.1999 61.3002 65.7999 69.4002 65.7999C77.5002 65.7999 84.1002 59.1999 84.1002 51.0999C84.1002 42.9999 77.5002 36.3999 69.4002 36.3999ZM69.4002 55.5999C66.9002 55.5999 64.9002 53.5999 64.9002 51.0999C64.9002 48.5999 66.9002 46.5999 69.4002 46.5999C71.9002 46.5999 73.9002 48.5999 73.9002 51.0999C73.9002 53.5999 71.9002 55.5999 69.4002 55.5999Z" fill="white"/>
<path d="M38.4 36.7998L31.3 43.8998L24.2 36.7998L17 43.9998L24.1 51.0998L17 58.1998L24.2 65.3998L31.3 58.2998L38.4 65.3998L45.6 58.1998L38.5 51.0998L45.6 43.9998L38.4 36.7998Z" fill="white"/>
</svg>
