<svg width="60" height="60" viewBox="0 0 60 60" fill="none" xmlns="http://www.w3.org/2000/svg">
<g id="VK_logo_Grey_40x40 1" clip-path="url(#clip0_814_219)">
<g id="Group">
<path id="Vector" d="M28.7688 60H31.2672C44.8296 60 51.612 60 55.824 55.788C60.036 51.576 60 44.796 60 31.2672V28.7328C60 15.2064 60 8.42402 55.824 4.21202C51.648 1.21593e-05 44.8296 0 31.2672 0H28.7688C15.204 0 8.424 1.21593e-05 4.212 4.21202C-2.5034e-06 8.42402 0 15.2016 0 28.7328V31.2672C0 44.796 -2.5034e-06 51.576 4.212 55.788C8.424 60 15.204 60 28.7688 60Z" fill="#0077FF"/>
<path id="Vector_2" d="M32.1966 43.2594C18.6678 43.2594 10.4574 33.873 10.1382 18.2754H16.9902C17.2038 29.733 22.4166 34.5954 26.4126 35.5866V18.2754H32.9814V28.161C36.8358 27.7338 40.8678 23.2362 42.2262 18.2754H48.6846C47.6502 24.3786 43.2606 28.8762 40.155 30.7314C43.2606 32.2314 48.2574 36.1578 50.1846 43.2594H43.083C41.583 38.5122 37.9062 34.8354 32.9814 34.3362V43.2594H32.1966Z" fill="#F2F2F2"/>
</g>
</g>
<defs>
<clipPath id="clip0_814_219">
<rect width="60" height="60" fill="white"/>
</clipPath>
</defs>
</svg>
