<svg viewBox="0 0 1440 4618" fill="none" xmlns="http://www.w3.org/2000/svg">
<g filter="url(#filter0_f_3_2)">
    <circle cx="1237.5" cy="2221.5" r="54.5" fill="#A5DBFF"/>
    <circle cx="1440.5" cy="3612.5" r="172.5" fill="#A5DBFF"/>
    <circle cx="1006" cy="4209" r="107" fill="#A5DBFF"/>
    <circle cx="1166.5" cy="4382.5" r="53.5" fill="#A5DBFF"/>
    <circle cx="39.5" cy="2179.5" r="54.5" fill="#A5DBFF"/>
    <circle cx="1193" cy="2046" r="99" fill="#F4A5FF"/>
    <circle cx="1321" cy="3188" r="99" fill="#F4A5FF"/>
    <circle cx="480.5" cy="2305.5" r="110.5" fill="#F4A5FF"/>
    <circle cx="953" cy="2549" r="55" fill="#F4A5FF"/>
    <circle cx="15" cy="3427" r="134" fill="#F4A5FF"/>
    <circle cx="1288" cy="4027" r="99" fill="#F4A5FF"/>
    <circle cx="1126" cy="4496" r="40" fill="#F4A5FF"/>
    <circle cx="149" cy="3166" r="55" fill="#F4A5FF"/>
    <circle cx="1037" cy="1707" r="84" fill="#A5DBFF"/>
    <circle cx="349.5" cy="2423.5" r="110.5" fill="#A5DBFF"/>
    <circle cx="916.5" cy="2944.5" r="110.5" fill="#A5DBFF"/>
    <circle cx="178" cy="2022" r="84" fill="#A5DBFF"/>
    <circle cx="492" cy="1578" r="99" fill="#F4A5FF"/>
    <circle cx="1424.5" cy="1267.5" r="133.5" fill="#A5DBFF"/>
    <circle cx="668" cy="460" r="95" fill="#A5DBFF"/>
    <circle cx="966" cy="918" r="95" fill="#A5DBFF"/>
    <circle cx="99.5" cy="172.5" r="47.5" fill="#A5DBFF"/>
    <circle cx="-4" cy="298" r="95" fill="#A5DBFF"/>
    <circle cx="793" cy="298" r="95" fill="#F4A5FF"/>
    <circle cx="1390.5" cy="646.5" r="143.5" fill="#F4A5FF"/>
    <circle cx="36.5" cy="483.5" r="54.5" fill="#F4A5FF"/>
    <circle cx="45.5" cy="999.5" r="54.5" fill="#F4A5FF"/>
    <circle cx="911.5" cy="1067.5" r="54.5" fill="#F4A5FF"/>
</g>
<defs>
<filter id="filter0_f_3_2" x="0" y="0" width="1450" height="4628" filterUnits="userSpaceOnUse" color-interpolation-filters="sRGB">
<feFlood flood-opacity="0" result="BackgroundImageFix"/>
<feBlend mode="normal" in="SourceGraphic" in2="BackgroundImageFix" result="shape"/>
<feGaussianBlur stdDeviation="38.0559" result="effect1_foregroundBlur_3_2"/>
</filter>
</defs>
</svg>
