<svg width="153" height="1389" viewBox="0 0 153 1389" fill="none" xmlns="http://www.w3.org/2000/svg">
<path d="M56.2 218.852V277.652C56.2 280.116 55.752 282.319 54.856 284.26C53.96 286.201 52.7653 287.844 51.272 289.188C49.816 290.532 48.1547 291.559 46.288 292.268C44.4213 292.977 42.4987 293.332 40.52 293.332C38.5787 293.332 36.656 292.977 34.752 292.268C32.8853 291.559 31.2053 290.532 29.712 289.188C28.256 287.844 27.08 286.201 26.184 284.26C25.288 282.319 24.84 280.116 24.84 277.652V236.548H17V218.852H56.2ZM42.76 236.548H38.28V273.172C38.28 274.815 39.0267 275.636 40.52 275.636C42.0133 275.636 42.76 274.815 42.76 273.172V236.548ZM42.76 324.461V296.125H56.2L56.2 370.605H42.76V342.157H17V324.461H42.76ZM43.88 392.846C42.3867 392.846 41.64 393.667 41.64 395.31L41.64 430.254H56.2V447.95H28.2C20.7333 447.95 17 444.217 17 436.75L17 379.63H27.08V428.014C27.08 429.507 27.8267 430.254 29.32 430.254H31.56L31.56 390.83C31.56 385.902 32.624 382.057 34.752 379.294C36.88 376.531 39.9227 375.15 43.88 375.15H56.2V392.846H43.88ZM56.2 485.946V509.578L29.32 531.362L56.2 553.146L56.2 577.674H17V559.978H40.016L17 541.33V521.394L38.896 503.642H17V485.946H56.2ZM17 656.677V638.981H39.4L17 599.893V582.197H56.2V599.893H33.8L56.2 638.981V656.677H17ZM56.2 661.11L56.2 719.91C56.2 722.374 55.752 724.576 54.856 726.518C53.96 728.459 52.7653 730.102 51.272 731.446C49.816 732.79 48.1547 733.816 46.288 734.526C44.4213 735.235 42.4987 735.59 40.52 735.59C38.5787 735.59 36.656 735.235 34.752 734.526C32.8853 733.816 31.2053 732.79 29.712 731.446C28.256 730.102 27.08 728.459 26.184 726.518C25.288 724.576 24.84 722.374 24.84 719.91V678.806H17L17 661.11H56.2ZM42.76 678.806H38.28V715.43C38.28 717.072 39.0267 717.894 40.52 717.894C42.0133 717.894 42.76 717.072 42.76 715.43V678.806ZM31.56 761.764H41.64V800.684C42.8347 800.049 43.88 799.078 44.776 797.772C45.672 796.465 46.12 794.692 46.12 792.452V759.748C46.12 758.105 45.3733 757.284 43.88 757.284H42.76V739.588H43.88C45.7093 739.588 47.408 739.998 48.976 740.82C50.544 741.641 51.9067 742.798 53.064 744.292C54.2213 745.822 55.1173 747.652 55.752 749.78C56.424 751.945 56.76 754.334 56.76 756.948V800.068C56.76 802.756 56.2187 805.294 55.136 807.684C54.0533 810.073 52.5787 812.145 50.712 813.9C48.8827 815.692 46.736 817.092 44.272 818.1C41.8453 819.145 39.288 819.668 36.6 819.668C33.912 819.668 31.336 819.145 28.872 818.1C26.4453 817.092 24.2987 815.692 22.432 813.9C20.6027 812.145 19.1467 810.073 18.064 807.684C16.9813 805.294 16.44 802.756 16.44 800.068V756.948C16.44 754.334 16.7573 751.945 17.392 749.78C18.064 747.652 18.9787 745.822 20.136 744.292C21.2933 742.798 22.656 741.641 24.224 740.82C25.792 739.998 27.4907 739.588 29.32 739.588H30.44V757.284H29.32C27.8267 757.284 27.08 758.105 27.08 759.748V792.452C27.08 794.692 27.528 796.465 28.424 797.772C29.32 799.078 30.3653 800.049 31.56 800.684L31.56 761.764ZM17 898.003V878.067L22.6 873.531V839.035L17 834.499V814.563L56.2 846.315V866.251L17 898.003ZM33.8 864.459L43.88 856.283L33.8 848.107V864.459ZM14.76 942.075V926.619L58.44 961.955V977.411L14.76 942.075ZM17 1061.6L17 1041.66L56.2 1009.91V1029.84L29.32 1051.63L56.2 1073.41V1093.35L17 1061.6ZM56.2 1095.6V1113.3H34.696L56.2 1144.44L56.2 1170.08L36.6 1141.69L17 1170.08L17 1144.44L27.752 1128.87L17 1113.3V1095.6H56.2Z" fill="white" fill-opacity="0.5"/>
<path d="M146.6 33.984L135.87 48.948L146.6 63.912V89.78L126.59 61.882L106 90.592V64.724L117.31 48.948L106 33.172V7.30399L126.59 36.014L146.6 8.11599V33.984ZM106 178.175V157.527L111.8 152.829V117.101L106 112.403V91.7552L146.6 124.641V145.289L106 178.175ZM123.4 143.433L133.84 134.965L123.4 126.497V143.433ZM146.6 180.511V198.839H124.328L146.6 231.087L146.6 257.651L126.3 228.245L106 257.651V231.087L117.136 214.963L106 198.839L106 180.511H146.6ZM106 345.265V324.617L111.8 319.919L111.8 284.191L106 279.493V258.845L146.6 291.731V312.379L106 345.265ZM123.4 310.523L133.84 302.055L123.4 293.587V310.523ZM132.68 361.882V332.534H146.6V409.674H132.68V380.21H106V361.882H132.68ZM147.18 474.641C147.18 477.425 146.619 480.055 145.498 482.529C144.377 485.004 142.849 487.15 140.916 488.967C139.021 490.823 136.798 492.273 134.246 493.317C131.733 494.4 129.084 494.941 126.3 494.941C123.516 494.941 120.848 494.4 118.296 493.317C115.783 492.273 113.559 490.823 111.626 488.967C109.731 487.15 108.223 485.004 107.102 482.529C105.981 480.055 105.42 477.425 105.42 474.641V432.301C105.42 429.517 105.981 426.888 107.102 424.413C108.223 421.939 109.731 419.773 111.626 417.917C113.559 416.1 115.783 414.65 118.296 413.567C120.848 412.523 123.516 412.001 126.3 412.001C129.084 412.001 131.733 412.523 134.246 413.567C136.798 414.65 139.021 416.1 140.916 417.917C142.849 419.773 144.377 421.939 145.498 424.413C146.619 426.888 147.18 429.517 147.18 432.301V474.641ZM132.1 470.871V436.071C132.1 434.447 131.539 433.075 130.418 431.953C129.297 430.832 127.924 430.271 126.3 430.271C124.676 430.271 123.303 430.832 122.182 431.953C121.061 433.075 120.5 434.447 120.5 436.071V470.871C120.5 472.495 121.061 473.868 122.182 474.989C123.303 476.111 124.676 476.671 126.3 476.671C127.924 476.671 129.297 476.111 130.418 474.989C131.539 473.868 132.1 472.495 132.1 470.871ZM146.6 498.435V516.763H133.26V557.247H146.6V575.575H106V557.247H119.34V516.763H106V498.435H146.6ZM103.68 631.067V615.059L148.92 651.657V667.665L103.68 631.067ZM147.18 766.852C147.18 769.636 146.619 772.265 145.498 774.74C144.377 777.214 142.849 779.36 140.916 781.178C139.021 783.034 136.798 784.484 134.246 785.528C131.733 786.61 129.084 787.152 126.3 787.152C123.516 787.152 120.848 786.61 118.296 785.528C115.783 784.484 113.559 783.034 111.626 781.178C109.731 779.36 108.223 777.214 107.102 774.74C105.981 772.265 105.42 769.636 105.42 766.852V724.512C105.42 721.728 105.981 719.098 107.102 716.624C108.223 714.149 109.731 711.984 111.626 710.128C113.559 708.31 115.783 706.86 118.296 705.778C120.848 704.734 123.516 704.212 126.3 704.212C129.084 704.212 131.733 704.734 134.246 705.778C136.798 706.86 139.021 708.31 140.916 710.128C142.849 711.984 144.377 714.149 145.498 716.624C146.619 719.098 147.18 721.728 147.18 724.512L147.18 766.852ZM132.1 763.082V728.282C132.1 726.658 131.539 725.285 130.418 724.164C129.297 723.042 127.924 722.482 126.3 722.482C124.676 722.482 123.303 723.042 122.182 724.164C121.061 725.285 120.5 726.658 120.5 728.282V763.082C120.5 764.706 121.061 766.078 122.182 767.2C123.303 768.321 124.676 768.882 126.3 768.882C127.924 768.882 129.297 768.321 130.418 767.2C131.539 766.078 132.1 764.706 132.1 763.082ZM136.16 790.022H146.6V850.922C146.6 853.049 146.349 855.001 145.846 856.78C145.343 858.559 144.589 860.086 143.584 861.362C142.617 862.638 141.419 863.624 139.988 864.32C138.557 865.055 136.895 865.422 135 865.422C133.028 865.422 131.307 864.977 129.838 864.088C128.407 863.237 127.228 862.019 126.3 860.434C125.411 862.019 124.231 863.237 122.762 864.088C121.331 864.977 119.63 865.422 117.658 865.422C115.763 865.422 114.101 865.055 112.67 864.32C111.239 863.624 110.021 862.638 109.016 861.362C108.049 860.086 107.315 858.559 106.812 856.78C106.309 855.001 106.058 853.049 106.058 850.922L106.058 790.022H116.498L116.498 844.542C116.498 846.243 117.271 847.094 118.818 847.094C120.365 847.094 121.138 846.243 121.138 844.542L121.138 794.662H131.52V844.542C131.52 846.243 132.293 847.094 133.84 847.094C135.387 847.094 136.16 846.243 136.16 844.542V790.022ZM112.38 868.923C113.347 868.923 114.236 869.097 115.048 869.445C115.899 869.831 116.633 870.334 117.252 870.953C117.909 871.61 118.412 872.345 118.76 873.157C119.147 874.007 119.34 874.916 119.34 875.883V882.843C119.34 883.809 119.147 884.699 118.76 885.511C118.412 886.361 117.909 887.096 117.252 887.715C116.633 888.372 115.899 888.875 115.048 889.223C114.236 889.609 113.347 889.803 112.38 889.803C111.413 889.803 110.505 889.609 109.654 889.223C108.842 888.875 108.107 888.372 107.45 887.715C106.831 887.096 106.348 886.361 106 885.511C105.613 884.699 105.42 883.809 105.42 882.843V875.883C105.42 874.916 105.613 874.007 106 873.157C106.348 872.345 106.831 871.61 107.45 870.953C108.107 870.334 108.842 869.831 109.654 869.445C110.505 869.097 111.413 868.923 112.38 868.923ZM106.058 920.762V902.434H132.274L123.4 893.56L130.592 886.368L146.658 902.434V920.762H106.058ZM114.12 925.393C125.72 925.393 131.52 931.193 131.52 942.793V981.653C131.52 983.355 132.293 984.205 133.84 984.205C135.387 984.205 136.16 983.355 136.16 981.653V927.713H146.6V988.033C146.6 990.16 146.291 992.113 145.672 993.891C145.053 995.67 144.183 997.197 143.062 998.473C141.941 999.749 140.587 1000.74 139.002 1001.43C137.455 1002.17 135.735 1002.53 133.84 1002.53C131.945 1002.53 130.205 1002.17 128.62 1001.43C127.073 1000.74 125.739 999.749 124.618 998.473C123.497 997.197 122.627 995.67 122.008 993.891C121.389 992.113 121.08 990.16 121.08 988.033V947.201C121.08 944.881 119.92 943.721 117.6 943.721H116.44V1000.21H106V925.393H114.12ZM132.1 1041.96V1095.32H120.5V1041.96H132.1ZM106.058 1160.41V1142.08H132.274L123.4 1133.21L130.592 1126.01L146.658 1142.08V1160.41H106.058ZM147.18 1226.55C147.18 1229.33 146.619 1231.96 145.498 1234.43C144.377 1236.91 142.849 1239.06 140.916 1240.87C139.021 1242.73 136.798 1244.18 134.246 1245.22C131.733 1246.31 129.084 1246.85 126.3 1246.85C123.516 1246.85 120.848 1246.31 118.296 1245.22C115.783 1244.18 113.559 1242.73 111.626 1240.87C109.731 1239.06 108.223 1236.91 107.102 1234.43C105.981 1231.96 105.42 1229.33 105.42 1226.55V1184.21C105.42 1181.42 105.981 1178.79 107.102 1176.32C108.223 1173.84 109.731 1171.68 111.626 1169.82C113.559 1168.01 115.783 1166.56 118.296 1165.47C120.848 1164.43 123.516 1163.91 126.3 1163.91C129.084 1163.91 131.733 1164.43 134.246 1165.47C136.798 1166.56 139.021 1168.01 140.916 1169.82C142.849 1171.68 144.377 1173.84 145.498 1176.32C146.619 1178.79 147.18 1181.42 147.18 1184.21V1226.55ZM132.1 1222.78V1187.98C132.1 1186.35 131.539 1184.98 130.418 1183.86C129.297 1182.74 127.924 1182.18 126.3 1182.18C124.676 1182.18 123.303 1182.74 122.182 1183.86C121.061 1184.98 120.5 1186.35 120.5 1187.98V1222.78C120.5 1224.4 121.061 1225.77 122.182 1226.89C123.303 1228.02 124.676 1228.58 126.3 1228.58C127.924 1228.58 129.297 1228.02 130.418 1226.89C131.539 1225.77 132.1 1224.4 132.1 1222.78ZM112.38 1248.02C113.347 1248.02 114.236 1248.19 115.048 1248.54C115.899 1248.93 116.633 1249.43 117.252 1250.05C117.909 1250.71 118.412 1251.44 118.76 1252.25C119.147 1253.1 119.34 1254.01 119.34 1254.98V1261.94C119.34 1262.9 119.147 1263.79 118.76 1264.61C118.412 1265.46 117.909 1266.19 117.252 1266.81C116.633 1267.47 115.899 1267.97 115.048 1268.32C114.236 1268.7 113.347 1268.9 112.38 1268.9C111.413 1268.9 110.505 1268.7 109.654 1268.32C108.842 1267.97 108.107 1267.47 107.45 1266.81C106.831 1266.19 106.348 1265.46 106 1264.61C105.613 1263.79 105.42 1262.9 105.42 1261.94V1254.98C105.42 1254.01 105.613 1253.1 106 1252.25C106.348 1251.44 106.831 1250.71 107.45 1250.05C108.107 1249.43 108.842 1248.93 109.654 1248.54C110.505 1248.19 111.413 1248.02 112.38 1248.02ZM106.058 1299.86L106.058 1281.53H132.274L123.4 1272.66L130.592 1265.46L146.658 1281.53V1299.86H106.058ZM114.12 1304.49C125.72 1304.49 131.52 1310.29 131.52 1321.89V1360.75C131.52 1362.45 132.293 1363.3 133.84 1363.3C135.387 1363.3 136.16 1362.45 136.16 1360.75V1306.81H146.6V1367.13C146.6 1369.26 146.291 1371.21 145.672 1372.99C145.053 1374.77 144.183 1376.29 143.062 1377.57C141.941 1378.84 140.587 1379.83 139.002 1380.53C137.455 1381.26 135.735 1381.63 133.84 1381.63C131.945 1381.63 130.205 1381.26 128.62 1380.53C127.073 1379.83 125.739 1378.84 124.618 1377.57C123.497 1376.29 122.627 1374.77 122.008 1372.99C121.389 1371.21 121.08 1369.26 121.08 1367.13V1326.3C121.08 1323.98 119.92 1322.82 117.6 1322.82H116.44V1379.31H106V1304.49H114.12Z" fill="white" fill-opacity="0.5"/>
</svg>
