<svg width="255" height="1379" viewBox="0 0 255 1379" fill="none" xmlns="http://www.w3.org/2000/svg">
<path d="M52.202 69.3495H72.88V103.551H52.202V69.3495ZM18 69.3495H38.482V110.411L45.342 117.173H79.642L86.6 110.411V55.6295L18 55.6295V69.3495ZM18 160.761H72.88L72.88 184.575H86.6L86.6 123.031H72.88V147.041H18V160.761ZM18 195.254V229.554L38.482 250.036H86.6V236.414H59.062V215.834L72.782 202.212H86.6V188.492H65.922L45.342 208.974V236.414L31.72 222.694V195.254H18ZM18 311.861H64.256L37.894 330.187V341.653L64.256 359.587H18L18 373.307H86.6V360.077L53.378 335.773L86.6 311.861V298.141H18V311.861ZM18 396.846L63.766 431.048H18V444.67H86.6V431.048L40.932 396.846H86.6V383.126H18V396.846ZM52.202 468.144H72.88V502.346H52.202V468.144ZM18 468.144H38.482V509.206L45.342 515.968H79.642L86.6 509.206V454.424H18V468.144ZM18 578.568L24.762 585.33H79.642L86.6 578.568V530.548L79.642 523.786H66.02V537.506H72.88V571.708H59.062L59.062 544.268H45.342L45.342 571.708H31.72V537.506H38.482V523.786H24.762L18 530.548V578.568ZM52.202 607.848H59.062L72.88 621.47V642.05H52.202V607.848ZM18 607.848H38.482L38.482 642.05H18V655.672H86.6L86.6 614.61L65.922 594.128H18V607.848ZM18 716.35L86.6 754.57V738.302L18 699.788V716.35ZM31.72 831.891V825.031L45.342 811.409H86.6V797.689H38.482L18 818.171V838.751L38.482 859.233H86.6V845.611H45.342L31.72 831.891ZM18 881.773H45.342V902.255L31.72 915.975H18V929.597H38.482L52.202 915.975L65.922 929.597H86.6V915.975H72.782L59.062 902.255V881.773H86.6V868.053H18V881.773ZM18 1032.42L24.762 1039.18H57.298V1008.31H43.578V1025.56H31.72V991.353H72.88V1025.56H66.02V1039.18H79.642L86.6 1032.42V984.395L79.642 977.633H24.762L18 984.395V1032.42ZM52.202 1062.65H72.88V1096.85H52.202V1062.65ZM18 1110.48H31.72L38.482 1103.71L45.342 1110.48H79.642L86.6 1103.71V1048.93H18V1062.65H38.482V1083.13L31.72 1089.99L24.762 1096.85H18L18 1110.48ZM31.72 1133.95H72.88L72.88 1168.15H31.72V1133.95ZM18 1175.01L24.762 1181.78H79.642L86.6 1175.01L86.6 1126.99L79.642 1120.23H24.762L18 1126.99V1175.01ZM86.6 1191.53H24.762L18 1198.29V1246.31L24.762 1253.07H86.6V1239.45H31.72V1205.25H86.6V1191.53ZM52.202 1276.55H72.88L72.88 1310.75H52.202L52.202 1276.55ZM18 1276.55H38.482V1317.61L45.342 1324.37H79.642L86.6 1317.61L86.6 1262.83H18V1276.55Z" fill="white" fill-opacity="0.5"/>
<path d="M147 38.4752H162.12L177.132 53.4872V61.0472L162.12 76.1672H147V91.1792H169.572L184.692 76.1672L199.812 91.1792H222.6V76.1672H207.372L192.252 61.0472V53.4872L207.372 38.4752H222.6V23.3552L199.812 23.3552L184.692 38.4752L169.572 23.3552L147 23.3552V38.4752ZM184.692 114.94H192.252L207.48 129.952V152.632H184.692V114.94ZM147 114.94H169.572V152.632H147V167.644H222.6V122.392L199.812 99.82H147V114.94ZM147 193.54H177.132V216.112L162.12 231.232H147V246.244H169.572L184.692 231.232L199.812 246.244H222.6V231.232H207.372L192.252 216.112V193.54H222.6V178.42H147V193.54ZM184.692 269.979H192.252L207.48 284.991L207.48 307.671H184.692L184.692 269.979ZM147 269.979H169.572V307.671H147V322.683H222.6V277.431L199.812 254.859H147V269.979ZM147 371.799H207.48V398.043H222.6V330.219H207.48V356.679H147L147 371.799ZM162.12 420.719H207.48V458.411H162.12V420.719ZM147 465.971L154.452 473.423H214.932L222.6 465.971V413.051L214.932 405.599H154.452L147 413.051V465.971ZM147 499.293H177.132V536.985H147V551.997H222.6V536.985H192.252V499.293H222.6V484.173H147V499.293ZM147 618.842L222.6 660.962V643.034L147 600.59L147 618.842ZM147 736.452H222.6V706.32H207.48V721.44H147V736.452ZM147 775.185L207.48 809.637H222.6V741.812H207.48V791.817L147 756.933V775.185ZM147 799.922V815.042H162.12V799.922H147ZM147 851.624H222.6V821.492H207.48V836.612H147V851.624ZM171.948 877.504H207.48V905.476L171.948 877.504ZM162.12 915.196V887.764L197.328 915.196H162.12ZM147 922.756L154.452 930.208H214.932L222.6 922.756V869.836L214.932 862.384H154.452L147 869.836V922.756ZM177.132 980.961V1063.8H192.252V980.961H177.132ZM207.48 1164.13H199.812L162.12 1111.32H147V1179.14H162.12V1137.02L192.252 1179.14H214.932L222.6 1171.69V1118.77L214.932 1111.32H199.92V1126.44H207.48V1164.13ZM147 1214.65H222.6V1184.52H207.48V1199.64H147V1214.65ZM147 1224.33V1239.45H162.12V1224.33H147ZM147 1276.03H222.6L222.6 1245.9H207.48V1261.02H147V1276.03ZM171.948 1301.91H207.48V1329.88L171.948 1301.91ZM162.12 1339.6V1312.17L197.328 1339.6H162.12ZM147 1347.16L154.452 1354.61H214.932L222.6 1347.16V1294.24L214.932 1286.79H154.452L147 1294.24L147 1347.16Z" fill="white" fill-opacity="0.5"/>
</svg>
